<svg preserveAspectRatio="none" width="100%" height="100%" overflow="visible" style="display: block;" viewBox="0 0 24 24" fill="none" xmlns="http://www.w3.org/2000/svg">
<g id="vuesax/linear/box">
<path id="Vector" fill-rule="evenodd" clip-rule="evenodd" d="M7.44937 1.50437C7.86378 1.5 8.10175 1.52187 8.39307 1.58748C8.60642 1.6356 8.92236 1.72308 9.09058 1.78432C9.2588 1.84555 9.54601 1.9724 9.72655 2.07301C9.90708 2.16924 10.1738 2.33983 10.3215 2.45355C10.4692 2.5629 10.8179 2.89533 11.1011 3.1884C11.5401 3.6433 11.6427 3.72641 11.7986 3.7614C11.9258 3.79202 12.0489 3.79202 12.1884 3.7614C12.373 3.72204 12.4427 3.66955 12.9064 3.1884C13.1895 2.89533 13.5382 2.5629 13.686 2.45355C13.8337 2.33983 14.1004 2.16924 14.2809 2.07301C14.4614 1.9724 14.7486 1.84555 14.9169 1.78432C15.0851 1.72308 15.401 1.6356 15.6144 1.58748C15.8852 1.52624 16.1601 1.5 16.517 1.5C16.9068 1.5 17.1366 1.52624 17.4812 1.60498C17.7274 1.66184 18.0598 1.76245 18.2198 1.82806C18.3757 1.88929 18.6629 2.02926 18.8558 2.13424C19.0486 2.2436 19.3604 2.45355 19.5533 2.60664C19.7461 2.76411 20.0415 3.04405 20.2098 3.23651C20.378 3.4246 20.6324 3.75703 20.7678 3.97573C20.9073 4.19006 21.1001 4.53124 21.1945 4.73683C21.2888 4.94241 21.4284 5.30546 21.5063 5.54603C21.5802 5.78661 21.6745 6.14966 21.7156 6.35524C21.773 6.64393 21.7894 6.9195 21.7894 7.60185C21.7853 8.38919 21.7771 8.52479 21.6786 8.95782C21.6212 9.22027 21.5145 9.60519 21.4448 9.81077C21.3504 10.0995 21.2847 10.2219 21.1534 10.3488C21.0591 10.4406 20.9155 10.5325 20.8129 10.5587C20.7185 10.585 20.5667 10.5937 20.4764 10.5806C20.3862 10.5675 20.2344 10.4975 20.1359 10.4231C20.0415 10.3532 19.9266 10.2132 19.8815 10.117C19.8323 10.0164 19.7995 9.85451 19.7995 9.73641C19.7995 9.61831 19.8569 9.36024 19.9225 9.15465C19.9882 8.94907 20.0744 8.59477 20.1113 8.36732C20.1605 8.06113 20.1728 7.79869 20.1564 7.38315C20.1441 6.97636 20.1072 6.69642 20.0333 6.39898C19.98 6.17153 19.8692 5.83472 19.7912 5.65538C19.7174 5.47605 19.5533 5.17423 19.4302 4.98177C19.3071 4.79369 19.0568 4.4875 18.8763 4.30379C18.6957 4.12008 18.4167 3.88388 18.2608 3.78327C18.1008 3.68267 17.8259 3.5427 17.6454 3.47271C17.4648 3.40273 17.1694 3.31962 16.9889 3.29338C16.7878 3.25838 16.5211 3.24526 16.2914 3.26276C16.0862 3.28025 15.7826 3.33274 15.6144 3.38086C15.4462 3.43335 15.1671 3.55145 14.9989 3.65205C14.8307 3.74828 14.6091 3.897 14.5066 3.98448C14.404 4.06759 14.1291 4.34753 13.8911 4.6056C13.567 4.95553 13.3905 5.10862 13.1731 5.22672C13.0131 5.31421 12.7669 5.41918 12.6192 5.45855C12.4715 5.50229 12.2007 5.53291 12.0037 5.53291C11.8068 5.53291 11.536 5.50229 11.3883 5.45855C11.2406 5.41918 10.9903 5.31421 10.8344 5.22672C10.6169 5.10862 10.4405 4.95553 10.1163 4.6056C9.87836 4.34753 9.60346 4.06759 9.50088 3.98448C9.39831 3.897 9.17674 3.74828 9.00852 3.65205C8.8403 3.55145 8.56129 3.43335 8.39307 3.38086C8.22484 3.33274 7.91712 3.28025 7.71607 3.26276C7.4863 3.24526 7.2196 3.25838 7.01856 3.29338C6.83802 3.31962 6.54261 3.40273 6.36207 3.47271C6.18154 3.5427 5.90254 3.68267 5.74662 3.78327C5.5866 3.88388 5.3117 4.12008 5.13117 4.30379C4.95064 4.4875 4.70035 4.79369 4.57726 4.98177C4.45417 5.17423 4.29415 5.46292 4.2244 5.63351C4.15055 5.79973 4.03977 6.12779 3.98232 6.35524C3.90026 6.67017 3.86744 6.91075 3.85103 7.36128C3.83462 7.80306 3.84693 8.05676 3.89616 8.36732C3.93309 8.59477 4.01925 8.94907 4.0849 9.15465C4.15055 9.36024 4.20799 9.61831 4.20799 9.73641C4.20799 9.85451 4.17517 10.0164 4.12593 10.117C4.0808 10.2132 3.96591 10.3532 3.87154 10.4231C3.77307 10.4975 3.62126 10.5675 3.53099 10.5806C3.44073 10.5937 3.28892 10.585 3.19455 10.5587C3.09197 10.5325 2.94836 10.4406 2.854 10.3488C2.7227 10.2219 2.65705 10.0995 2.56268 9.81077C2.49293 9.60519 2.38625 9.22027 2.32881 8.95782C2.23034 8.52479 2.22213 8.38919 2.21803 7.60185C2.21803 6.9195 2.23444 6.64393 2.29188 6.35524C2.33291 6.14966 2.42728 5.78661 2.50114 5.54603C2.57909 5.30546 2.7186 4.94241 2.81297 4.73683C2.90733 4.53124 3.10018 4.19006 3.23968 3.97573C3.37508 3.75703 3.62947 3.4246 3.79769 3.23651C3.96591 3.04405 4.26133 2.76411 4.45417 2.60664C4.64701 2.45355 4.95884 2.2436 5.15168 2.13424C5.34453 2.02926 5.62763 1.88929 5.78765 1.82806C5.94357 1.76245 6.2595 1.66622 6.48516 1.60935C6.79289 1.53499 7.03087 1.50875 7.44937 1.50437ZM11.9627 12.0022C17.8136 11.9978 18.7614 12.0066 19.0732 12.0634C19.2702 12.0984 19.5451 12.1684 19.6846 12.2209C19.8282 12.269 20.0703 12.3827 20.2303 12.4658C20.3862 12.5489 20.6283 12.702 20.7637 12.7983C20.8991 12.8989 21.1411 13.1176 21.3012 13.2882C21.4612 13.4544 21.6991 13.7693 21.8304 13.988C21.9658 14.2024 22.13 14.5392 22.2038 14.7316C22.2777 14.9241 22.3761 15.2784 22.4213 15.519C22.5074 15.9432 22.5115 16.0351 22.4869 21.9051L22.3844 22.0801C22.3269 22.1719 22.1997 22.3075 22.0971 22.3732C21.9535 22.4694 21.8633 22.4956 21.6868 22.4956C21.5104 22.4956 21.4201 22.4694 21.2765 22.3732C21.174 22.3075 21.0468 22.1719 20.9893 22.0801C20.895 21.9182 20.8868 21.857 20.8662 20.746H3.14121L3.1289 21.3277C3.12069 21.857 3.11249 21.9182 3.01812 22.0801C2.96067 22.1719 2.83348 22.3075 2.7309 22.3732C2.5873 22.4694 2.49703 22.4956 2.3206 22.5C2.13186 22.5 2.06211 22.4738 1.89389 22.3557C1.76259 22.2638 1.65591 22.1413 1.5 21.8176V18.8958C1.5 16.1138 1.5041 15.9564 1.58616 15.5277C1.6313 15.2828 1.72977 14.9241 1.80362 14.7316C1.87748 14.5392 2.0416 14.2024 2.177 13.988C2.30829 13.7693 2.54627 13.4544 2.70629 13.2838C2.8663 13.1132 3.16172 12.8595 3.36687 12.7195C3.56792 12.5752 3.88385 12.4002 4.06439 12.3215C4.24492 12.2471 4.53213 12.1509 4.70035 12.1115C4.86858 12.0765 5.05321 12.0372 5.11065 12.0284C5.1681 12.0153 8.24946 12.0066 11.9627 12.0022ZM4.43366 14.0668C4.29415 14.1455 4.05618 14.3423 3.87975 14.5348C3.69922 14.7229 3.51458 14.9722 3.44073 15.1253C3.36687 15.2696 3.2725 15.5452 3.22327 15.7377C3.14941 16.057 3.14121 16.2144 3.14121 17.5442V18.9964H20.8662C20.8662 16.2144 20.858 16.057 20.7842 15.7377C20.7349 15.5452 20.6406 15.2696 20.5667 15.1253C20.4929 14.9722 20.3082 14.7229 20.1277 14.5348C19.9513 14.3423 19.7174 14.1455 19.5738 14.0668C19.4384 13.988 19.1799 13.8874 18.9994 13.8349C18.6752 13.7474 18.6055 13.7474 11.9832 13.7474C5.443 13.7518 5.28708 13.7562 4.98756 13.8393C4.81934 13.8874 4.56906 13.988 4.43366 14.0668ZM10.6292 8.52041L10.7892 8.62976C10.8795 8.691 10.9985 8.81785 11.0559 8.90971C11.1421 9.04968 11.1626 9.13716 11.1626 9.37336C11.1626 9.60956 11.1421 9.69704 11.0559 9.83701C10.9985 9.92887 10.8795 10.0557 10.6292 10.2263H6.81341L6.65339 10.117C6.56312 10.0557 6.44824 9.93762 6.3949 9.85451C6.34566 9.7714 6.29232 9.61393 6.27591 9.50458C6.2636 9.39523 6.27181 9.22464 6.29643 9.11966C6.32515 9.00594 6.4031 8.87034 6.50568 8.76099C6.59595 8.66476 6.73135 8.56853 6.8011 8.54666C6.87905 8.52041 7.74479 8.50729 10.6292 8.52041ZM17.194 8.52041L17.3541 8.62976C17.4443 8.691 17.5633 8.81785 17.6207 8.90971C17.7069 9.04968 17.7274 9.13716 17.7274 9.37336C17.7274 9.60956 17.7069 9.69704 17.6207 9.83701C17.5633 9.92887 17.4443 10.0557 17.194 10.2263H13.3782L13.2182 10.117C13.1279 10.0557 13.0131 9.93762 12.9597 9.85451C12.9105 9.7714 12.8571 9.61393 12.8407 9.50458C12.8284 9.39523 12.8366 9.22464 12.8613 9.11966C12.89 9.00594 12.9679 8.87034 13.0705 8.76099C13.1608 8.66476 13.2962 8.56853 13.3659 8.54666C13.4439 8.52041 14.3096 8.50729 17.194 8.52041Z" fill="var(--fill-0, #141414)"/>
</g>
</svg>
