<svg width="929" height="342" viewBox="0 0 929 342" fill="none" xmlns="http://www.w3.org/2000/svg">
<path d="M468.455 92.2194C439.935 92.2194 411.415 92.2194 382.9 92.2194C382.672 92.2194 382.439 92.1874 382.216 92.2194C381.199 92.361 380.944 91.8949 380.934 90.9171C380.848 82.5915 381.555 74.3801 383.597 66.2647C387.231 51.8297 394.148 39.2225 404.152 28.274C411.146 20.6247 419.294 14.4651 428.472 9.69453C436.41 5.56829 444.795 2.6621 453.623 1.23185C467.078 -0.947792 480.396 -0.285217 493.519 3.62169C507.056 7.65197 518.888 14.5839 529.106 24.3169C538.271 33.0491 545.092 43.3762 549.838 55.0786C554.475 66.5115 556.404 78.4469 556.117 90.7663C556.085 92.1645 556.076 92.1782 554.471 92.1782C528.08 92.1828 501.685 92.1874 475.294 92.1919C473.014 92.1919 470.739 92.1919 468.459 92.1919V92.2102L468.455 92.2194Z" fill="#E5C58F"/>
<path d="M644.521 145.481C642.109 146.962 639.729 148.497 637.281 149.914C629.525 154.401 621.268 157.737 612.751 160.437C602.419 163.713 591.85 165.911 581.135 167.502C567.908 169.462 554.612 170.102 541.271 169.604C528.394 169.124 515.646 167.538 503.012 164.911C490.473 162.301 478.422 158.203 466.622 153.327C454.699 148.401 442.889 143.196 430.907 138.421C422.595 135.109 414.128 132.152 405.638 129.324C394.212 125.517 382.544 122.593 370.716 120.313C362.021 118.636 353.263 117.543 344.426 116.981C333.834 116.305 323.256 116.428 312.687 117.333C308.72 117.671 304.763 118.183 300.805 118.608C300.436 118.649 300.062 118.658 299.606 118.489C299.825 118.352 300.025 118.179 300.258 118.078C309.404 114.075 318.906 111.26 328.714 109.396C342.871 106.705 357.138 106.12 371.46 107.226C377.269 107.673 383.05 108.697 388.804 109.679C397.422 111.155 405.802 113.623 414.096 116.364C423.58 119.499 432.808 123.292 441.854 127.523C454.466 133.427 467.037 139.436 480.214 144.014C489.538 147.259 499.017 149.968 508.629 152.235C516.722 154.145 524.87 155.74 533.105 156.887C542.365 158.18 551.676 158.801 561.018 159.062C570.215 159.318 579.393 159.002 588.544 158.084C598.785 157.056 608.93 155.42 618.942 152.993C627.286 150.969 635.443 148.337 643.509 145.413C643.783 145.312 644.065 145.239 644.344 145.152C644.403 145.262 644.462 145.372 644.521 145.477V145.481Z" fill="#E5C58F"/>
<path d="M524.109 115.693C536.356 117.114 554.334 118.946 553.996 119.056C551.84 119.769 549.683 120.514 547.476 121.012C537.618 123.242 517.265 124.612 505.091 124.471C456.883 123.913 445.265 118.366 445.265 118.366C446.122 117.918 447.098 117.649 448.051 117.438C454.539 116.017 461.027 114.61 467.529 113.244C469.307 112.869 471.118 112.654 472.941 112.206C472.499 112.165 472.061 112.097 471.619 112.087C465.281 111.991 458.944 111.85 452.601 111.827C443.131 111.79 433.675 111.48 424.414 109.364C416.503 107.555 408.679 105.347 400.823 103.314C400.582 103.25 400.354 103.131 400.144 102.775C400.531 102.775 400.919 102.766 401.306 102.775C411.023 102.994 420.739 103.241 430.456 103.419C437.176 103.543 443.893 103.575 450.613 103.625C475.823 103.803 501.037 104.022 526.247 104.114C537.368 104.155 548.493 103.812 559.618 103.844C570.096 103.876 580.556 104.406 590.97 105.704C599.838 106.805 608.574 108.519 617.141 111.078C623.812 113.07 630.287 115.542 636.383 118.951C636.834 119.202 637.267 119.49 637.71 119.764C600.795 112.037 563.713 109.2 526.224 113.207C522.964 113.554 519.727 114.139 516.48 114.619C516.49 114.779 516.499 114.939 516.508 115.099C516.508 115.099 522.216 115.469 524.109 115.688V115.693Z" fill="#E5C58F"/>
<path d="M285.521 135.488C288.134 134.885 290.728 134.19 293.364 133.687C308.123 130.891 323.051 130.155 338.025 130.228C348.635 130.279 359.172 131.32 369.572 133.5C375.878 134.821 382.216 136.05 388.458 137.635C400.194 140.619 411.661 144.476 422.923 148.949C434.696 153.629 446.51 158.221 458.346 162.74C463.02 164.527 467.807 166.007 472.545 167.629C472.773 167.707 472.992 167.817 473.197 168.118C472.887 168.16 472.577 168.224 472.262 168.233C462.309 168.42 452.369 168.128 442.475 166.99C431.828 165.77 421.336 163.617 410.959 160.985C397.285 157.517 383.647 153.889 370.042 150.147C360.936 147.643 351.963 144.654 342.853 142.168C332.188 139.262 321.364 137.133 310.321 136.173C303.527 135.584 296.752 135.607 289.958 135.904C288.494 135.968 287.031 135.913 285.567 135.913C285.553 135.766 285.535 135.62 285.521 135.479V135.488Z" fill="#E5C58F"/>
<path d="M517.269 177.143C513.517 178.308 509.796 179.602 506.003 180.607C495.575 183.376 484.924 184.546 474.154 184.911C460.38 185.382 446.797 184.034 433.365 181.014C426.197 179.405 419.271 177.07 412.632 173.913C412.227 173.721 411.83 173.51 411.447 173.172C446.523 179.496 481.819 178.683 517.16 176.636C517.196 176.805 517.233 176.974 517.269 177.143Z" fill="#E5C58F"/>
<path d="M625.381 130.845C619.307 132.655 613.289 134.661 607.147 136.237C590.258 140.578 572.978 142.548 555.487 143.329C533.118 144.33 511.018 142.625 489.137 138.44C477.46 136.205 466.161 132.892 455.31 128.346C454.649 128.067 454.001 127.765 453.367 127.272C510.485 135.894 567.821 133.911 625.198 130.096C625.262 130.347 625.321 130.594 625.385 130.845H625.381Z" fill="#E5C58F"/>
<path d="M83.07 280.958H83.09L83.96 281.028C90.7 281.608 95.18 283.408 97.65 286.188V286.208C99.5 288.168 100.63 290.668 101.02 293.798C101.43 297.048 101.62 300.708 101.62 304.808C101.62 308.908 101.4 312.858 100.92 316.708C100.43 320.588 99.74 323.118 98.93 324.448C96.2 328.628 92.51 331.648 87.81 333.508C83.03 335.398 77.89 336.348 72.34 336.348C64.58 336.348 57.7 334.878 51.73 331.948C45.92 329.098 40.98 325.138 36.9 320.078L36.51 319.588C32.62 314.598 29.56 308.658 27.38 301.768L26.96 300.378C24.76 292.868 23.64 284.568 23.64 275.468C23.64 267.218 24.8 259.308 27.12 251.818C29.44 244.308 32.75 237.698 37.04 231.968C41.32 226.248 46.53 221.688 52.66 218.278C58.75 214.888 65.59 213.188 73.23 213.188C80.42 213.188 86.88 214.418 92.65 216.838C98.45 219.268 103.15 222.448 106.82 226.328C109.51 229.128 112.07 232.658 114.49 236.918L114.97 237.778C117.52 242.428 119.43 247.338 120.71 252.568L120.89 253.298H124.72V212.888H121.71L121.42 213.258C119.88 215.258 118.58 216.958 117.52 218.388C117 219.088 116.6 219.588 116.31 219.908C116.28 219.948 116.24 219.978 116.22 220.008C116.11 219.948 115.97 219.878 115.8 219.788C115.26 219.488 114.5 219.038 113.5 218.418L112.68 217.938C110.69 216.808 108.06 215.578 104.78 214.278C101.02 212.788 96.4 211.408 90.95 210.178C85.45 208.908 79.14 208.298 72.01 208.298C60.15 208.298 50 209.998 41.61 213.408C33.52 216.698 26.64 221.038 20.98 226.418L20.44 226.938C16.37 230.878 12.99 235.048 10.3 239.478C7.6 243.888 5.51 248.258 4.02 252.558C2.54 256.858 1.49 260.958 0.89 264.838C0.3 268.688 0 272.138 0 275.138C0 285.248 1.66 294.398 4.94 302.608C8.22 310.788 12.95 317.728 19.14 323.438C25.33 329.148 32.89 333.438 41.85 336.368C50.8 339.288 60.92 340.748 72.19 340.748C77.91 340.748 83.63 340.158 89.35 338.968C95.04 337.788 100.26 336.328 104.96 334.598C109.64 332.878 113.64 331.178 116.91 329.518C120.12 327.888 122.26 326.668 123.19 325.868L123.52 325.578V299.348C123.52 296.648 123.57 293.968 123.69 291.268L123.72 290.778C123.87 288.398 124.31 286.758 124.96 285.738C125.87 284.328 127.37 283.218 129.57 282.508L130.23 282.298V282.278C132.28 281.658 134.18 281.248 135.93 281.028L136.77 280.928V277.368H83.07V280.958Z" fill="#E5C58F"/>
<path d="M244.69 251.958L244.73 251.938V248.928H212.14V251.928L212.95 252.048C216.82 252.628 219.64 253.598 221.5 254.918C223.35 256.248 224.65 257.978 225.42 260.098V260.118C225.7 260.848 225.93 261.848 226.1 263.178C226.27 264.498 226.39 265.938 226.46 267.488C226.56 269.048 226.61 270.668 226.65 272.408C226.72 274.138 226.72 275.808 226.72 277.448V298.468C226.72 301.228 226.6 304.068 226.4 306.988C226.18 309.858 225.77 312.698 225.17 315.448C224.57 318.158 223.65 320.718 222.41 323.118C221.19 325.478 219.53 327.588 217.44 329.388C215.38 331.198 212.78 332.608 209.62 333.658C206.49 334.688 202.6 335.228 197.97 335.228C193.93 335.228 190.39 334.588 187.32 333.278C184.24 331.958 181.64 330.108 179.51 327.698C177.37 325.278 175.69 322.338 174.51 318.868L174.29 318.208C173.29 315.118 172.73 311.728 172.6 308.018L172.58 307.218C172.58 305.238 172.55 303.348 172.51 301.578L172.47 300.248C172.44 298.918 172.44 297.538 172.44 296.098V271.478C172.44 269.918 172.46 268.318 172.51 266.688C172.56 265.058 172.63 263.188 172.71 261.028C172.8 259.248 173.19 257.848 173.83 256.768C174.49 255.638 175.3 254.798 176.24 254.178C177.24 253.548 178.34 253.048 179.55 252.758C180.85 252.448 182.07 252.208 183.19 252.038L184 251.918V248.918H145.22V251.948L146.06 252.048C148.15 252.288 149.99 252.708 151.6 253.298C153.12 253.848 154.4 254.768 155.45 256.038V256.058C155.84 256.488 156.15 257.138 156.38 258.078C156.61 259.088 156.8 260.198 156.92 261.418C157.04 262.658 157.11 263.998 157.11 265.458V286.358C157.11 290.878 157.09 294.988 157.04 298.698C156.97 302.428 156.97 305.448 156.97 307.748C156.97 308.758 157.05 310.278 157.17 312.298C157.27 314.418 157.71 316.728 158.43 319.198C159.14 321.708 160.25 324.248 161.73 326.818C163.24 329.458 165.36 331.848 168.08 334.018C170.84 336.218 174.31 337.928 178.48 339.198C182.69 340.478 187.71 341.098 193.79 341.098C199.87 341.098 205.04 340.458 209.3 339.148C213.51 337.848 217 336.058 219.76 333.788C222.49 331.538 224.6 329.028 226.11 326.208C227.59 323.478 228.67 320.708 229.35 317.958C230.02 315.218 230.43 312.638 230.55 310.168C230.67 307.788 230.8 305.778 230.87 304.218V304.198C231.04 298.688 231.19 293.748 231.31 289.368C231.43 285.018 231.55 281.048 231.63 277.488V277.468C231.63 275.598 231.68 273.678 231.75 271.758C231.82 269.838 231.94 268.028 232.11 266.308C232.24 265.018 232.38 263.848 232.52 262.798L232.67 261.778C232.89 260.468 233.09 259.638 233.29 259.168C234.21 256.928 235.5 255.318 237.07 254.288L237.79 253.818C239.34 252.998 241.34 252.408 243.87 252.068L244.69 251.958Z" fill="#E5C58F"/>
<path d="M927.58 336.678H927.49C923.75 336.108 920.5 334.888 917.75 332.998C914.99 331.098 912.1 328.068 909.07 323.838C907.11 321.048 904.86 317.828 902.34 314.208C899.84 310.588 897.52 307.208 895.36 304.078V304.058L894.87 303.408C893.75 301.898 892.61 300.518 891.42 299.268C890.47 298.268 889.48 297.408 888.47 296.718C890.69 295.908 892.82 294.958 894.88 293.868C897.43 292.508 899.66 290.858 901.59 288.928C903.53 286.988 905.09 284.738 906.24 282.218C907.4 279.658 907.99 276.778 907.99 273.598C907.99 268.518 906.86 264.198 904.49 260.748C902.17 257.358 899.11 254.688 895.36 252.708C891.69 250.758 887.64 249.598 883.23 249.278C878.92 248.958 874 248.788 868.44 248.788H859.77C856.22 248.788 852.66 248.808 849.11 248.858C845.57 248.928 842.4 248.928 839.61 248.928H833.59V251.928L834.41 252.048C836.61 252.358 838.44 252.748 839.9 253.188C841.24 253.598 842.47 254.378 843.62 255.598C843.91 255.908 844.21 256.428 844.46 257.248L844.57 257.618C844.85 258.678 845.03 259.848 845.15 261.178C845.27 262.528 845.34 263.948 845.39 265.458V265.478C845.46 266.968 845.46 268.438 845.46 269.938V301.228C845.46 303.698 845.44 306.108 845.39 308.448C845.34 310.808 845.32 312.938 845.27 314.918C845.2 316.918 845.2 318.498 845.2 319.648C845.2 320.958 845.18 322.278 845.08 323.668C844.98 325.088 844.89 326.398 844.76 327.598C844.64 328.808 844.45 329.888 844.22 330.808C843.99 331.758 843.72 332.328 843.44 332.648V332.668C842.49 333.828 841.16 334.718 839.41 335.328C839.18 335.408 838.96 335.488 838.73 335.558C835.62 336.568 832.27 336.708 829.13 335.798C828.73 335.688 828.39 335.568 828.15 335.458C826.84 334.838 825.74 334.108 824.87 333.318C823.97 332.468 823.26 331.688 822.72 330.918C822.15 330.108 821.81 329.558 821.66 329.288C820.67 327.168 819.81 325.248 819 323.568C818.21 321.928 817.39 319.828 816.49 317.298V317.278L815 313.378C814.51 312.078 814.01 310.768 813.51 309.448L810.54 301.528C808.56 296.198 806.53 290.688 804.42 285.018C802.31 279.338 800.11 273.418 797.81 267.278C795.51 261.138 793.06 254.658 790.51 247.808L790.28 247.188H788.07L787.8 247.688C787.51 248.228 787.05 248.918 786.43 249.838C785.85 250.698 785.12 251.618 784.24 252.558C783.37 253.498 782.36 254.408 781.21 255.288C780.07 256.148 778.81 256.898 777.38 257.528L776.5 257.918L777.95 261.128C776.01 265.648 773.96 270.468 771.79 275.658C769.56 280.988 767.34 286.248 765.06 291.478C762.81 296.718 760.6 301.808 758.45 306.748C756.3 311.718 754.36 316.118 752.63 319.978C750.75 324.168 749.16 327.288 747.86 329.388C746.53 331.558 745.65 332.808 745.16 333.298L745.1 333.358L745.05 333.418C745.05 333.418 745 333.468 744.91 333.548C744.8 333.638 744.64 333.758 744.43 333.908C744.01 334.198 743.42 334.568 742.67 335.018C742.27 335.258 741.84 335.468 741.39 335.658C739.49 336.468 737.38 336.658 735.34 336.378C734.37 336.238 733.32 336.068 732.78 335.868C731.34 335.348 730.18 334.778 729.29 334.138C728.34 333.448 727.65 332.838 727.17 332.298C726.9 331.998 726.7 331.758 726.56 331.578C726.49 331.488 726.44 331.428 726.41 331.378C726.41 331.358 726.39 331.348 726.39 331.348L726.37 331.298L726.22 330.998C725.87 330.248 725.59 329.218 725.43 327.868L725.36 327.268C725.2 325.898 725.12 324.548 725.12 323.218C725.05 318.338 725 313.738 725 309.368V284.748C725 281.038 725.05 277.228 725.12 273.268C725.19 270.388 725.32 267.468 725.49 264.518C725.64 261.588 725.97 259.498 726.41 258.228C727 256.608 728.08 255.188 729.73 253.968C731.3 252.808 733.65 252.118 736.92 252.048L737.85 252.028V248.918H709.89L709.66 249.538C709.43 250.168 708.41 252.558 706.64 256.738C704.85 260.898 702.6 266.108 699.84 272.368C697.07 278.628 693.96 285.628 690.49 293.378C687.3 300.498 684.04 307.638 680.73 314.818L651.75 248.918H623.83V251.898L624.62 252.028C625.59 252.198 626.76 252.458 628.14 252.818C629.46 253.158 630.68 253.698 631.81 254.468C632.92 255.218 633.9 256.248 634.75 257.588C635.49 258.778 635.97 260.348 636.08 262.338L636.1 262.738C636.17 265.138 636.22 267.148 636.22 268.778V284.368C636.22 289.888 636.17 295.048 636.1 299.868C636.03 304.678 635.9 308.858 635.73 312.388V312.418C635.66 316.598 635.37 320.098 634.89 322.968C634.41 325.828 633.66 328.168 632.64 330.028C631.64 331.848 630.31 333.268 628.64 334.298C628.41 334.448 628.16 334.588 627.91 334.728C625.48 336.028 622.68 336.458 619.98 335.908C619.34 335.778 618.77 335.648 618.41 335.468C617.1 334.848 616.01 334.118 615.13 333.338C614.23 332.478 613.51 331.698 612.98 330.938C612.41 330.138 612.07 329.588 611.92 329.318C610.93 327.198 610.07 325.278 609.26 323.598C608.47 321.958 607.66 319.858 606.75 317.328V317.308L605.26 313.408C603.77 309.498 602.29 305.538 600.8 301.558C598.82 296.228 596.78 290.718 594.68 285.038C592.57 279.358 590.37 273.438 588.07 267.298C585.77 261.158 583.32 254.678 580.77 247.828L580.54 247.208H578.33L578.06 247.708C577.77 248.248 577.31 248.938 576.69 249.858C576.11 250.718 575.38 251.638 574.5 252.578C573.63 253.518 572.62 254.428 571.47 255.308C570.33 256.168 569.07 256.918 567.64 257.548L566.76 257.938L568.21 261.148C566.27 265.668 564.22 270.478 562.05 275.668C559.82 280.998 557.6 286.258 555.32 291.488C553.07 296.728 550.86 301.818 548.71 306.758C546.56 311.728 544.62 316.128 542.89 319.988C541.01 324.178 539.42 327.298 538.12 329.398C536.78 331.568 535.91 332.818 535.42 333.308L535.36 333.368L535.31 333.428C535.31 333.428 535.29 333.458 535.17 333.558C535.06 333.648 534.9 333.768 534.69 333.918C534.48 334.068 534.23 334.228 533.94 334.408L532.94 335.018C531.53 335.848 529.85 336.398 527.81 336.628L526.97 336.728V339.898H555.22V336.908L554.42 336.778C553.34 336.608 552.24 336.418 551.02 336.218C549.91 336.038 548.87 335.738 547.93 335.308C546.97 334.878 546.25 334.388 545.69 333.788C545.22 333.278 544.97 332.638 544.97 331.768C544.97 330.158 545.76 327.188 547.49 322.728C548.67 319.838 549.82 316.968 550.97 314.138C552.05 311.478 553.17 308.688 554.31 305.778H585.92C587.08 308.758 588.15 311.658 589.16 314.428C589.7 315.908 590.2 317.318 590.67 318.668L592 322.508C592.8 324.938 593.43 326.978 593.89 328.638C594.35 330.318 594.54 331.438 594.54 332.028C594.54 332.938 594.24 333.638 593.67 334.168C592.99 334.838 592.19 335.338 591.26 335.718C590.3 336.108 589.38 336.358 588.49 336.518C587.52 336.688 587.02 336.748 586.87 336.748H585.92V339.878L655.39 339.828V336.828L654.57 336.708C651.3 336.238 648.77 335.518 646.9 334.578L646.54 334.388C644.69 333.378 643.32 331.968 642.43 330.218L642.26 329.868C641.43 328.138 640.9 325.978 640.67 323.398C640.43 320.598 640.31 317.248 640.31 313.398V297.568C640.31 293.048 640.33 288.738 640.38 284.658C640.43 280.638 640.45 276.418 640.5 272.308C640.55 269.338 640.56 266.028 640.57 262.408L641.03 263.448C642.14 265.998 643.56 269.188 645.3 272.978C647.04 276.768 648.97 281.088 651.12 285.958C653.28 290.828 655.58 296.038 658.05 301.598C660.52 307.148 663.07 312.948 665.66 318.958C668.26 324.978 670.88 331.048 673.52 337.138L673.77 337.708H675.84L676.04 337.028C676.17 336.608 676.56 335.628 677.22 334.098C677.88 332.568 678.6 330.878 679.34 328.998C680.07 327.178 680.82 325.378 681.56 323.598C682.32 321.828 682.88 320.558 683.28 319.758V319.738L683.3 319.718C686.03 313.578 688.52 308.058 690.79 302.958C693.04 297.898 695.29 292.928 697.52 288.068C699.75 283.218 701.98 278.218 704.26 273.108C706.02 269.158 707.91 264.918 709.93 260.388V306.248C709.93 311.178 709.86 316.378 709.69 321.798C709.62 323.418 709.45 324.998 709.21 326.578C708.95 328.118 708.6 329.378 708.16 330.348C707.44 331.838 706.03 333.228 703.74 334.488C701.5 335.718 698.69 336.428 695.24 336.598L694.33 336.638V339.848L765.01 339.878V336.888L764.21 336.758C763.13 336.588 762.03 336.398 760.81 336.198C759.7 336.018 758.66 335.718 757.72 335.288L757.37 335.118C756.58 334.728 755.97 334.288 755.48 333.768C755.01 333.258 754.76 332.618 754.76 331.748C754.76 330.138 755.55 327.168 757.29 322.708C758.46 319.818 759.62 316.948 760.77 314.118C761.85 311.458 762.97 308.668 764.11 305.758H795.72C796.87 308.738 797.95 311.638 798.95 314.408C800.02 317.358 800.95 320.068 801.79 322.488C802.59 324.918 803.22 326.958 803.68 328.618C804.14 330.298 804.33 331.418 804.33 332.008C804.33 332.918 804.03 333.618 803.46 334.148C802.78 334.818 801.98 335.318 801.05 335.698C800.09 336.088 799.17 336.338 798.28 336.498C797.31 336.668 796.81 336.728 796.66 336.728H795.71V339.858L874.43 339.878V336.788L873.52 336.748C870.24 336.608 867.79 335.968 866.05 334.968C864.18 333.868 863.07 332.888 862.53 332.008V331.988L862.51 331.968L862.38 331.768C861.75 330.748 861.37 329.428 861.3 327.768C861.25 326.328 861.18 324.708 861.12 322.878L861.06 320.978C860.99 318.268 860.94 314.948 860.94 310.998V298.038C861.66 298.078 862.3 298.108 862.83 298.108C863.56 298.108 864.68 298.258 866.24 298.578C868.19 298.958 870.1 299.908 871.93 301.458C873.83 303.068 875.6 304.818 877.21 306.668C879.19 308.958 880.89 311.028 882.32 312.868C883.75 314.718 885.09 316.538 886.3 318.328C887.52 320.138 888.74 321.968 889.94 323.818C891.12 325.688 892.53 327.778 894.09 330.078C895.41 331.978 896.38 333.378 896.98 334.318C897.59 335.258 898.13 336.038 898.59 336.578C898.99 337.058 899.38 337.518 899.75 337.908C900.1 338.288 900.65 338.858 901.39 339.598L901.59 339.798H928.39V336.798L927.58 336.678ZM556.19 301.218H556.2C557.98 296.858 559.64 292.768 561.17 288.988C562.83 284.828 564.4 281.118 565.79 277.818C567.19 274.508 568.36 271.698 569.32 269.398C569.79 268.238 570.2 267.248 570.56 266.408C571.12 267.818 571.76 269.438 572.5 271.298C573.62 274.128 574.85 277.268 576.22 280.698C577.59 284.118 578.98 287.668 580.43 291.378C581.71 294.668 582.96 297.938 584.2 301.218H556.19ZM765.96 301.208C767.74 296.858 769.4 292.768 770.93 288.988C772.59 284.828 774.16 281.118 775.55 277.818C776.95 274.508 778.12 271.698 779.08 269.398C779.55 268.238 779.96 267.248 780.32 266.408C780.88 267.818 781.52 269.438 782.26 271.288C783.38 274.118 784.61 277.258 785.98 280.688C787.35 284.108 788.74 287.658 790.19 291.368C791.47 294.658 792.72 297.928 793.96 301.208H765.96ZM884.44 288.808H884.42L884.09 289.058C882.28 290.378 880.12 291.438 877.56 292.248C874.91 293.128 872.17 293.708 869.29 293.988C866.66 294.248 863.85 294.388 860.86 294.418V281.768C860.86 278.398 860.88 274.898 860.93 271.288C860.98 267.678 861.05 264.438 861.13 261.558C861.23 259.678 861.28 258.178 861.33 257.178C861.38 256.108 861.4 255.358 861.45 254.798C861.5 254.268 861.56 253.808 861.63 253.478C861.67 253.298 861.71 253.088 861.75 252.858C862.22 252.808 862.8 252.748 863.47 252.698C864.52 252.628 865.9 252.578 867.62 252.578C869.94 252.578 872.19 252.768 874.3 253.168C876.4 253.568 878.4 254.208 880.31 255.078C884.02 256.838 886.82 259.198 888.76 262.108L888.92 262.368C890.87 265.438 891.86 268.928 891.86 272.868C891.86 275.018 891.6 277.078 891.04 279.038C890.48 280.998 889.64 282.838 888.5 284.518C887.47 286.098 886.1 287.528 884.44 288.808Z" fill="#E5C58F"/>
<path d="M527.11 308.518C528.39 303.998 529.01 298.888 529.01 293.158C529.01 287.428 528.31 282.848 526.93 278.578C525.56 274.338 523.7 270.578 521.36 267.308C519.03 264.048 516.29 261.268 513.18 258.888C510.27 256.658 507.15 254.828 503.87 253.358L503.21 253.068C500.51 251.888 497.75 251.018 494.98 250.418C492.22 249.818 489.47 249.398 486.71 249.148C483.96 248.898 481.22 248.778 478.47 248.778H470.56C461.33 248.778 453.44 248.798 446.92 248.848C440.41 248.918 435.42 248.918 431.97 248.918H431.02V251.938L431.85 252.038C433.96 252.298 435.83 252.678 437.49 253.248H437.5C439.06 253.758 440.4 254.678 441.51 256.028V256.048C441.9 256.478 442.21 257.128 442.44 258.068C442.67 259.078 442.86 260.188 442.98 261.418C443.1 262.658 443.17 263.998 443.17 265.458V301.178C443.17 303.648 443.14 306.058 443.1 308.398C443.08 309.578 443.06 310.708 443.04 311.778L442.98 314.878C442.91 316.868 442.91 318.448 442.91 319.598C442.91 320.898 442.86 322.228 442.79 323.638C442.72 325.038 442.6 326.328 442.43 327.518C442.26 328.758 442.09 329.838 441.88 330.798C441.67 331.758 441.43 332.218 441.21 332.438L441.15 332.498C440.3 333.498 438.97 334.398 437.12 335.198C436.86 335.308 436.54 335.428 436.19 335.528C432.42 336.698 428.31 336.498 424.68 334.928C423.44 334.388 422.27 333.738 421.17 332.988C418.41 331.088 415.52 328.058 412.49 323.828C410.53 321.038 408.28 317.818 405.76 314.198C403.26 310.578 400.94 307.198 398.79 304.068V304.048L398.3 303.398C397.18 301.888 396.04 300.508 394.85 299.258C393.9 298.258 392.91 297.398 391.9 296.708C394.12 295.898 396.25 294.948 398.31 293.858C400.86 292.498 403.09 290.848 405.02 288.918C406.95 286.988 408.52 284.728 409.67 282.208C410.83 279.648 411.42 276.768 411.42 273.588C411.42 268.508 410.29 264.188 407.92 260.738C405.6 257.348 402.54 254.678 398.79 252.698C395.12 250.748 391.07 249.588 386.66 249.268C382.35 248.948 377.43 248.778 371.87 248.778H363.2C359.65 248.778 356.09 248.798 352.53 248.848C348.99 248.918 345.82 248.918 343.02 248.918H337V251.918L337.82 252.038C340.02 252.348 341.85 252.738 343.31 253.178C344.65 253.588 345.88 254.368 347.03 255.588C347.32 255.898 347.62 256.418 347.87 257.238L347.98 257.608C348.26 258.668 348.44 259.838 348.56 261.168C348.68 262.518 348.75 263.938 348.8 265.448V265.468C348.87 266.958 348.87 268.428 348.87 269.928V301.218C348.87 303.688 348.84 306.098 348.8 308.438C348.75 310.798 348.73 312.928 348.68 314.908C348.61 316.908 348.61 318.488 348.61 319.638C348.61 320.948 348.59 322.268 348.49 323.658C348.39 325.078 348.29 326.388 348.17 327.588C348.05 328.798 347.86 329.878 347.63 330.798C347.4 331.748 347.13 332.318 346.85 332.638V332.658C345.91 333.818 344.57 334.708 342.82 335.318C342.59 335.398 342.37 335.478 342.14 335.558C339.03 336.568 335.68 336.698 332.54 335.798C332.14 335.678 331.8 335.568 331.56 335.448C330.25 334.828 329.15 334.098 328.27 333.308C327.37 332.458 326.66 331.678 326.12 330.908C325.55 330.098 325.21 329.548 325.06 329.278C324.07 327.158 323.21 325.238 322.41 323.558C321.62 321.918 320.8 319.818 319.9 317.288V317.268L318.41 313.368C317.91 312.068 317.42 310.758 316.92 309.438L313.95 301.518C311.97 296.188 309.94 290.678 307.83 285.008C305.72 279.328 303.52 273.408 301.22 267.268C298.92 261.128 296.47 254.648 293.92 247.798L293.69 247.178H291.48L291.21 247.678C290.92 248.218 290.46 248.908 289.84 249.828C289.26 250.688 288.53 251.608 287.65 252.548C286.78 253.488 285.77 254.398 284.62 255.278C283.48 256.138 282.22 256.888 280.79 257.518L279.91 257.908L281.36 261.118C279.42 265.638 277.37 270.448 275.2 275.638C272.97 280.968 270.75 286.228 268.47 291.458C266.22 296.698 264.01 301.788 261.86 306.728C259.71 311.698 257.77 316.098 256.04 319.958C254.16 324.148 252.57 327.268 251.27 329.368C249.93 331.538 249.06 332.788 248.57 333.278L248.51 333.338L248.47 333.398C248.47 333.398 248.45 333.428 248.33 333.528C248.22 333.618 248.06 333.738 247.85 333.888C247.43 334.178 246.84 334.548 246.09 334.998C244.68 335.828 243 336.378 240.96 336.608L240.11 336.708V339.878H268.36V336.888L267.56 336.758C266.48 336.588 265.38 336.398 264.16 336.198C263.05 336.018 262.01 335.718 261.07 335.288L260.72 335.118C259.93 334.728 259.32 334.288 258.84 333.768C258.36 333.258 258.11 332.618 258.11 331.748C258.11 330.138 258.9 327.158 260.64 322.698C261.81 319.818 262.97 316.948 264.11 314.118C265.19 311.458 266.31 308.668 267.45 305.758H299.06C300.21 308.738 301.29 311.638 302.3 314.408C303.37 317.358 304.3 320.068 305.13 322.488C305.93 324.918 306.56 326.958 307.02 328.618C307.48 330.298 307.67 331.418 307.67 332.008C307.67 332.918 307.37 333.618 306.8 334.148H306.79C306.11 334.818 305.31 335.318 304.38 335.698C303.42 336.088 302.5 336.338 301.61 336.498C300.64 336.668 300.14 336.728 299.99 336.728H299.04V339.858L377.76 339.878V336.788L376.85 336.748C373.57 336.608 371.12 335.968 369.38 334.968C367.51 333.868 366.4 332.888 365.86 332.008V331.988L365.84 331.968L365.71 331.768C365.08 330.748 364.7 329.428 364.63 327.768C364.58 326.328 364.51 324.708 364.44 322.878L364.38 320.978C364.31 318.268 364.26 314.948 364.26 310.998V298.038C364.98 298.078 365.62 298.108 366.15 298.108C366.88 298.108 368 298.258 369.56 298.578C371.51 298.958 373.42 299.908 375.25 301.458C377.15 303.068 378.92 304.818 380.53 306.668C382.51 308.958 384.21 311.028 385.64 312.868C387.08 314.718 388.41 316.538 389.62 318.328C390.54 319.678 391.45 321.048 392.36 322.428L393.26 323.808C394.44 325.678 395.85 327.768 397.41 330.068C398.73 331.968 399.7 333.368 400.3 334.308C400.91 335.248 401.45 336.028 401.91 336.568C402.32 337.048 402.7 337.508 403.07 337.898C403.42 338.278 403.97 338.848 404.71 339.588L404.91 339.788L476.65 339.858C480.49 339.858 484.45 339.588 488.53 339.038C492.63 338.488 496.61 337.548 500.47 336.208C504.34 334.858 508.01 333.068 511.45 330.798C514.92 328.508 517.99 325.618 520.6 322.158C523.25 318.678 525.3 314.538 526.82 309.758L527.22 308.518H527.11ZM269.38 301.208C271.16 296.858 272.82 292.768 274.35 288.988C276.01 284.828 277.57 281.118 278.97 277.818C280.37 274.508 281.54 271.698 282.5 269.398C282.96 268.238 283.38 267.248 283.74 266.408C284.3 267.818 284.94 269.438 285.68 271.288C286.8 274.118 288.03 277.258 289.4 280.688C290.77 284.108 292.17 287.658 293.61 291.368C294.89 294.658 296.14 297.928 297.38 301.208H269.38ZM387.84 288.798L387.5 289.058C385.69 290.378 383.53 291.438 380.97 292.248C378.32 293.128 375.58 293.708 372.7 293.988C370.07 294.248 367.27 294.388 364.27 294.418V281.768C364.27 278.398 364.29 274.898 364.34 271.288C364.39 267.678 364.46 264.438 364.53 261.558C364.63 259.678 364.68 258.178 364.73 257.178C364.78 256.108 364.8 255.358 364.85 254.798C364.9 254.268 364.96 253.808 365.03 253.478C365.06 253.298 365.11 253.088 365.15 252.858C365.62 252.808 366.2 252.748 366.87 252.698C367.92 252.628 369.29 252.578 371.02 252.578C373.34 252.578 375.59 252.768 377.7 253.168C379.8 253.568 381.81 254.208 383.71 255.078C387.42 256.838 390.23 259.208 392.17 262.118L392.32 262.358C394.27 265.428 395.26 268.918 395.26 272.858C395.26 275.008 395 277.068 394.44 279.028C393.88 280.988 393.04 282.828 391.9 284.508C390.87 286.088 389.5 287.518 387.84 288.798ZM505.58 320.158H505.57C501.3 327.328 494.84 332.158 486.15 334.638H486.13C484.32 335.198 482.33 335.558 480.2 335.778C478.05 335.998 475.96 336.088 473.93 336.088C471.76 336.088 469.45 335.878 466.98 335.418C464.63 334.988 462.73 334.018 461.24 332.528C460.93 332.218 460.6 331.708 460.29 330.948L460.16 330.608C459.82 329.628 459.56 328.568 459.4 327.328C459.23 326.048 459.11 324.748 458.96 323.388C458.82 322.088 458.77 320.848 458.77 319.718V319.698C458.7 316.968 458.65 313.478 458.65 309.198V294.738C458.65 284.928 458.7 276.488 458.77 269.398C458.84 262.708 459.06 257.408 459.44 253.478C459.84 253.408 460.34 253.348 460.93 253.278C461.84 253.178 462.9 253.078 464.02 252.958C465.12 252.838 466.22 252.768 467.36 252.718H467.38C468.5 252.648 469.54 252.648 470.53 252.648C473.39 252.648 475.78 252.768 477.72 252.958C479.66 253.178 481.47 253.438 483.08 253.758H483.1C487.24 254.468 491.07 256.078 494.59 258.538C498.13 261.048 501.19 264.078 503.77 267.668C506.35 271.258 508.37 275.278 509.83 279.718L510.05 280.368H510.09C511.41 284.588 512.06 288.948 512.06 293.388C512.06 304.048 509.88 312.978 505.58 320.158Z" fill="#E5C58F"/>
</svg>
