<svg width="669" height="538" viewBox="0 0 669 538" fill="none" xmlns="http://www.w3.org/2000/svg">
<path d="M181.29 268.54C181.29 180.05 253.28 108.06 341.76 108.06C430.24 108.06 502.24 180.05 502.24 268.54C502.24 275.49 501.79 282.34 500.93 289.06C502.61 289.05 504.29 289.04 505.97 289.04C506.8 282.32 507.24 275.48 507.24 268.54C507.24 177.29 433.01 103.06 341.76 103.06C250.51 103.06 176.29 177.29 176.29 268.54C176.29 278.38 177.16 288.03 178.81 297.41C180.56 297.68 182.31 297.95 184.05 298.23C182.24 288.6 181.29 278.68 181.29 268.54Z" fill="black"/>
<path d="M552.49 427.39C552.27 427.42 552.04 427.45 551.82 427.48C503.65 490.97 427.42 532.06 341.75 532.06C236.03 532.06 144.67 469.47 102.72 379.42C100.63 378.86 98.54 378.31 96.48 377.8C138.41 471.56 232.57 537.07 341.75 537.07C430.87 537.07 509.97 493.43 558.84 426.41C556.74 426.75 554.63 427.08 552.48 427.4L552.49 427.39Z" fill="black"/>
<path d="M79.4 299.54C79.62 299.5 79.83 299.47 80.05 299.42C78.86 289.29 78.23 278.98 78.23 268.54C78.23 123.23 196.45 5 341.75 5C487.05 5 605.29 123.23 605.29 268.54C605.29 278.62 604.7 288.56 603.59 298.35C605.23 298.73 606.87 299.12 608.49 299.52C609.66 289.35 610.29 279.02 610.29 268.54C610.3 120.47 489.83 0 341.75 0C193.67 0 73.23 120.47 73.23 268.54C73.23 279.32 73.89 289.95 75.13 300.41C76.55 300.12 77.97 299.81 79.4 299.54Z" fill="black"/>
<path d="M159.68 207.68L147.93 205.77C145.97 205.45 143.02 204.97 142.26 204.29C141.46 203.59 141.04 201.76 141.12 199.42L141.15 198.54L138.52 198.11L134.22 224.61L136.89 225.04L137.11 224.15C137.77 221.54 138.94 219.46 140.2 218.72C141.07 218.18 142.24 217.91 143.78 217.91C145.32 217.91 146.92 218.15 148.35 218.38C151.93 218.96 155.49 220.04 156.42 220.81C159.26 223.3 160.53 227.38 159.83 231.73C158.22 241.62 150.21 247.29 137.85 247.29C135.52 247.29 133.06 247.08 130.54 246.67C112.95 243.81 105.34 232.47 106.92 222.74C107.84 217.1 110.72 212.28 115.03 209.17C118.15 206.99 123.24 205.26 127.7 204.87L128.47 204.8L128.91 202.11L109.47 198.95L109.1 201.21L110.51 202.65C110.97 203.12 111.47 203.62 111.81 203.98C110.17 205.9 105.33 211.61 103.57 222.5C101.99 232.22 103.49 240.24 108.15 247.04C114.95 256.93 125.25 259.29 128.24 259.78C130.29 260.11 132.32 260.28 134.26 260.28C149.66 260.28 160.16 250 163.07 232.08C164.71 221.95 161.01 210.19 159.91 208.1L159.68 207.66V207.68Z" fill="black"/>
<path d="M176.88 138.74L176.63 138.59C173.62 136.75 171 135.12 168.65 133.65C166.33 132.2 164.28 130.92 162.37 129.77C157.39 126.77 153.69 124.16 152.94 123.12C151.27 120.91 151.17 118.71 152.56 115.26L152.88 114.46L150.59 113.13L139.65 132L141.95 133.33L142.49 132.65C144.85 129.65 147.04 128.25 149.38 128.25C149.77 128.25 150.17 128.29 150.58 128.37C152.94 128.8 157.99 131.74 160.42 133.14C161.74 133.91 162.88 134.56 163.99 135.19C166.17 136.43 168.23 137.61 171.42 139.52C181.88 145.8 190.62 152.56 182.72 166.18C179.86 171.11 175.65 173.71 170.53 173.71C167.21 173.71 163.62 172.66 159.86 170.58C156.21 168.55 151.41 165.86 146.59 163.06C141.65 160.2 139.61 159.01 135.01 156.16C132.33 154.49 131.92 152.02 133.63 147.91L133.97 147.1L131.67 145.76L117.97 169.39L120.29 170.73L120.82 170.01C122.57 167.66 124.12 166.46 125.84 166.13C125.91 166.12 125.99 166.11 126.07 166.11C127.7 166.11 131.03 168.04 133.72 169.6L142.76 174.85C145.52 176.45 148.1 177.98 150.28 179.27C151.86 180.21 153.23 181.01 154.28 181.63C155.79 182.51 160.39 185.17 166.18 185.17C173.79 185.17 180.25 180.67 185.4 171.8C197.3 151.28 181.94 141.83 176.89 138.72L176.88 138.74Z" fill="black"/>
<path d="M368.11 49.14C367.61 33.88 358.37 26.97 350.71 23.86C345.7 21.87 340.53 21.61 336.58 21.61C334.71 21.61 332.86 21.68 331.08 21.74L329.71 21.79C322.43 22.03 316.04 22.27 311.2 22.46C308.25 22.57 305.89 22.66 304.25 22.71L303.25 22.74L303.34 25.42L304.23 25.49C306.91 25.71 308.97 26.17 310.33 27.69C311.32 28.8 311.46 33.08 311.56 36.21L312.07 51.54C312.27 57.76 312.43 64.96 312.45 67.79C312.51 73.83 311.93 75.81 310.09 76.65C304.39 79.27 299.49 79 299.49 79C296.51 79 293.61 77.96 289.77 75.5C287.67 74.18 285.09 72.5 282.51 70.82C280.58 69.57 278.65 68.31 276.91 67.2C274.92 65.95 273.16 65.09 271.63 64.61C277.62 59 279.6 52.39 277.07 46.25C274.77 40.66 270.32 37.42 264.22 36.89C263.69 36.85 263.15 36.82 262.62 36.82C257.7 36.82 252.59 38.92 247.19 41.15C243.78 42.56 236.4 45.63 231.25 47.78C228.49 48.93 224.92 50.41 224.92 50.41L225.93 52.87L226.77 52.65C228.18 52.29 229.53 51.96 230.72 51.96C231.53 51.96 232.23 52.11 232.93 52.42C234.35 53.06 236.4 58.05 237.28 60.18L243.12 74.35C245.5 80.14 248.17 86.82 249.16 89.44L249.21 89.55C250.25 92.25 251.67 95.96 251.27 97.27C250.85 98.69 248.78 100.58 246.11 102.19C242.04 105.04 239.44 104.62 239.44 104.62C237.83 104.62 236.2 104.08 235.99 103.99L235.66 103.85C233.17 102.75 231.36 101.96 228.51 100.39C222.12 96.95 195.21 82.41 187.03 77.95L186.42 77.61L185.03 78.82L185.08 79.33C185.33 82 185.04 86.24 183.4 89.41L182.93 90.34L185.75 91.65C190.1 104.78 194.91 119.45 197.88 129.32C199.56 134.96 199.91 137.92 199.85 138.77C199.83 139.21 199.16 141.58 197.52 143.37L196.92 144.03L198.73 146.1L213.04 133.63L211.28 131.61L210.54 132.11C209.19 133.04 207.23 134.28 205.76 134.28C205.21 134.28 204.8 134.11 204.47 133.73C203.98 133.16 203.06 131.48 201.97 128.45C201.07 126.02 200.27 123.69 199.43 121.23C199.05 120.15 198.68 119.05 198.28 117.91L212.54 105.48C224.35 111.8 226.67 113.66 227.12 114.18C228.03 115.22 227.37 116.94 225.07 119.44L224.46 120.1L226.23 122.12C233.14 116.3 240.49 111.04 248.19 106.38C255.9 101.72 263.97 97.66 272.34 94.25L273.67 93.71L272.62 91.17L271.72 91.5C270.31 92.03 268.94 92.29 267.65 92.29C265.66 92.29 264.6 91.67 264.32 91.47C263.18 90.69 262.42 88.94 261.37 86.51L260.94 85.52C259.63 82.53 257.87 78.27 255.46 72.44C255.81 72.32 256.16 72.21 256.74 72.09C257.05 72.04 257.39 72.01 257.74 72.01C260.11 72.01 263 73.32 264.96 74.31C270.03 76.86 272.86 78.81 276.44 81.28C277.66 82.11 278.95 83 280.44 83.99L280.9 84.29C284.71 86.81 284.78 86.86 286.3 87.52C287.35 87.83 288.44 87.99 289.52 87.99C290.69 87.99 291.86 87.81 292.98 87.44C293.04 87.42 293.09 87.4 293.15 87.38C305.96 83.11 319.35 80.85 332.84 80.41L335.49 80.32C341.75 80.11 350.67 78.81 357.59 73.77C364.94 68.43 368.48 60.14 368.11 49.14ZM197.02 114.17C193.95 105.3 191.5 97.99 190.14 93.77C194.85 96.2 202.2 100.04 209.08 103.65L197.02 114.17ZM262.29 64.83C259.88 66.95 257.4 68.27 254.29 69.6L254.24 69.49C252.91 66.29 248.86 56.55 246.62 50.56C245.32 47.25 245.04 46.43 244.88 45.7C245.49 45.37 246.4 44.92 247.67 44.39C249.91 43.47 251.98 43.02 254.01 43.02C254.33 43.02 254.65 43.02 254.96 43.05C259.61 43.43 263.22 46.16 265.11 50.75C266.71 54.64 267.53 60.24 262.29 64.83ZM340.72 76.07C338.87 76.71 336.36 77.11 333.66 77.2C333.36 77.21 333.06 77.22 332.75 77.22C329.74 77.22 327.71 76.61 326.38 75.32C326.01 74.94 325.1 73.43 324.74 67.48L324.22 51.61C323.82 39.69 323.53 30.91 323.77 25.72C325.29 25.42 327.87 25.11 329.97 25.04C330.52 25.02 331.04 25.01 331.53 25.01C334.1 25.01 335.83 25.26 337.19 25.49C346.67 27.01 354.4 37.65 354.8 49.73C355.25 63.43 350.25 72.78 340.72 76.07Z" fill="black"/>
<path d="M519.59 200.32C517.67 194.36 519.31 190.6 519.31 190.6C519.66 189.74 520.11 188.91 520.65 188.15C521.85 186.46 522.91 185.01 524.64 182.96C529.32 177.29 548.9 153.68 554.77 146.67L555.21 146.13L554.3 144.54L553.79 144.49C551.12 144.21 547.02 143.09 544.23 140.87L543.41 140.22L541.58 142.73C527.16 144.51 512.46 146.28 502.26 147.26C499.87 147.48 497.75 147.59 495.98 147.59C494.21 147.59 493.1 147.47 492.61 147.34C492.18 147.23 489.99 146.11 488.55 144.16C487.44 142.62 486.64 140.92 486.08 139.44C485.01 136.6 485.51 133.38 487.42 131.02C487.43 131 487.45 130.99 487.46 130.97C491.29 126.12 494.85 121.73 498.28 117.5C501.2 113.91 504.21 110.2 507.45 106.33C508.93 104.58 512.41 100.48 514 99.52C514.79 99.06 515.66 98.83 516.58 98.83C518.11 98.83 519.72 99.47 521.34 100.74L522.12 101.35L523.86 99.2L508.78 86.97L508.21 87.26C507.93 87.4 507.05 87.86 505.7 88.57C499.83 91.63 484.67 99.55 469.46 107.06L481.29 64.66L465.96 52.22L464.29 54.28L464.87 54.91C466.9 57.14 469.26 60.55 466.33 64.37C463.66 67.83 462.35 69.44 460.37 71.86C459.62 72.78 458.78 73.8 457.74 75.09C453.12 80.77 448.95 85.64 446.27 88.72C441.36 94.42 439 96.44 435.86 96.84C431.86 97.35 430.68 96.46 429.36 95.82C423.68 93.04 423.47 89.71 423.4 89.26L423.36 88.92C423 86.21 422.75 84.26 422.62 81C422.25 73.61 420.77 42.94 420.37 33.88L420.34 33.19L418.59 32.63L418.18 32.93C416.03 34.53 412.25 36.47 408.69 36.71L407.64 36.78L407.99 39.87C399.01 50.36 388.96 62.05 382.01 69.74C378.05 74.1 375.7 75.92 374.95 76.31C374.73 76.43 373.33 76.86 371.59 76.86C370.96 76.86 370.36 76.81 369.81 76.7L368.93 76.52L368.09 79.15L386.17 84.94L386.98 82.39L386.17 82.02C382.64 80.43 381.2 79.04 381.65 77.65C381.88 76.94 382.84 75.29 384.87 72.79C386.51 70.75 388.1 68.85 389.78 66.83C390.49 65.97 391.23 65.09 391.98 64.18L410 69.95C410.72 83.71 410.26 86.42 410.1 86.93C409.99 87.26 409.67 88.25 407.34 88.25C406.24 88.25 405.15 88.03 404.53 87.9L403.65 87.72L402.83 90.28L412.11 93.25C423.73 96.97 434.63 102.65 444.28 110.11C444.79 110.51 445.19 110.82 445.42 111.03L447.1 108.96L446.5 108.32C440.81 102.34 442.37 99.32 448.69 91.53C455.72 82.87 459.72 78 464.79 71.84L467.56 68.48C467.23 69.65 466.87 70.99 466.46 72.47C463.73 82.48 459.15 99.23 454.38 115.79L454.19 116.42L456.21 118.06L456.8 117.73C458.41 116.84 465.32 113.02 467.35 112.06C472.46 109.5 486.7 102.3 496.64 97.27L501.09 95.02L491.01 107.44C486.53 112.96 482.99 117.32 478.53 122.58C477.03 124.29 475.56 125.57 474.48 126.09C473.97 126.34 473.3 126.47 472.55 126.47C470.53 126.47 468.1 125.55 465.89 123.94L465.12 123.38L463.35 125.57C463.35 125.57 463.44 125.64 463.61 125.76C476.21 134.96 486.72 146.72 494.48 160.26L495.07 161.28L497.39 159.95L497.04 159.13C495.51 155.57 495.39 153.58 496.65 152.85C497.3 152.48 499.12 151.92 502.31 151.44C504.89 151.03 507.33 150.7 509.93 150.35C511.04 150.2 512.19 150.04 513.37 149.88L522.77 166.29C514.27 176.65 511.98 178.56 511.39 178.89C511.14 179.04 510.88 179.11 510.61 179.11C509 179.11 507.23 176.68 506.63 175.85L506.1 175.13L503.77 176.46C503.77 176.46 517.62 204.67 522.24 228.52M394.53 61.17C400.52 53.96 405.52 48.08 408.43 44.73C408.77 49.92 409.3 58.15 409.77 66.05L394.53 61.17ZM525.24 163.27L517.28 149.38C526.55 148.1 534.21 147.13 538.63 146.62C535.36 150.72 530.18 157.16 525.24 163.27Z" fill="black"/>
<path d="M522.23 228.52L524.93 228L524.78 227.05C524.16 223.06 525.43 220.62 526.28 219.81C527.28 218.84 529.14 218.45 531.73 217.9L532.78 217.67C535.97 216.98 540.5 216.09 546.68 214.9C546.74 215.26 546.78 215.62 546.77 216.22C546.74 218.75 544.59 221.78 542.98 223.84C539.47 228.3 537 230.69 533.87 233.71C532.81 234.73 531.68 235.82 530.42 237.09L530.05 237.46C526.81 240.71 526.75 240.77 525.81 242.13L525.07 243.17L528.72 262.02L531.33 261.51L531.28 260.65C531.04 255.77 532.51 252.44 536.89 247.92C538.59 246.13 540.73 243.95 542.87 241.77C544.5 240.11 546.13 238.45 547.58 236.96C549.19 235.25 550.39 233.7 551.16 232.3C554.84 238.27 559.8 241.54 565.27 241.54C566.19 241.54 567.13 241.44 568.08 241.26C574.01 240.11 578.06 236.39 579.79 230.52C581.37 225.27 580.22 219.3 578.99 212.98C578.31 209.44 576.81 201.86 575.73 196.41C575.11 193.31 574.63 190.9 574.52 190.31L574.33 189.33L571.72 189.83L571.77 190.7C571.91 193.33 571.91 195.17 570.77 196.78C569.86 198.04 564.57 199.06 562.31 199.5L547.26 202.42C541.11 203.61 534.04 204.9 531.28 205.35L531.17 205.37C529.06 205.73 526.67 206.14 524.94 206.14C523.85 206.14 523.38 205.97 523.19 205.87C521.88 205.17 520.64 203.25 519.59 200.32M575.59 220.23C574.3 224.71 570.91 227.7 566.03 228.65C564.96 228.86 563.9 228.96 562.9 228.96C558.49 228.96 554.99 226.93 552.79 223.1C551.2 220.31 550.39 217.62 549.71 214.31L549.87 214.28C553.62 213.54 563.6 211.57 569.88 210.56C573.39 209.94 574.24 209.84 574.99 209.82C575.2 210.48 575.46 211.45 575.72 212.82C576.26 215.57 576.21 217.99 575.59 220.23Z" fill="black"/>
<path d="M28.44 326.51C35.81 325.72 43.17 324.77 50.55 324.14C70.22 322.46 89.9 322.23 109.62 323.49C126.06 324.54 142.37 326.57 158.55 329.69C178.71 333.58 198.62 338.48 218.16 344.72C211.79 334.59 206.64 323.62 202.94 312.02C199.38 311.23 195.81 310.51 192.21 309.9C181.5 308.07 170.74 306.17 159.93 305.33C133.28 303.27 106.73 304.36 80.38 309.37C62.13 312.84 44.44 318.08 27.42 325.53C26.99 325.72 26.61 326.04 26.21 326.3C27.06 326.61 27.75 326.6 28.44 326.52V326.51Z" fill="black"/>
<path d="M502.41 372.51C534.96 371.06 567.12 367.39 598.55 359.31C609.98 356.38 621.18 352.64 632.48 349.28C632.36 348.81 632.25 348.35 632.13 347.89C573.84 351.77 515.57 354.62 457.37 353.8C452.64 360.18 447.39 366.16 441.7 371.68C461.82 373.13 482.05 373.43 502.4 372.52L502.41 372.51Z" fill="black"/>
<path d="M478.16 314.02C537.66 310.73 596.66 316.36 655.42 328.66C654.6 328.15 653.79 327.61 652.95 327.15C641.6 320.81 629.56 316.21 617.14 312.5C601.2 307.74 584.94 304.55 568.43 302.5C549.05 300.08 529.58 299.1 510.08 299.04C500.8 299.01 491.51 299.13 482.23 299.25C481.13 304.28 479.77 309.21 478.15 314.02H478.16Z" fill="black"/>
<path d="M499.64 327.34C500.01 327.22 488.45 325.98 474.22 324.43C472.86 327.64 471.38 330.79 469.79 333.87C476.61 333.03 482.72 332.06 487.5 330.97C491.61 330.04 495.62 328.66 499.63 327.33L499.64 327.34Z" fill="black"/>
<path d="M667.77 375.91C667.25 376.07 666.73 376.21 666.22 376.39C651.21 381.83 636.03 386.73 620.5 390.5C601.87 395.02 582.99 398.06 563.93 399.97C546.9 401.68 529.82 402.27 512.7 401.79C495.31 401.31 477.99 400.15 460.75 397.74C446.59 395.77 432.58 393.08 418.65 389.88C407.17 397.19 394.59 402.93 381.21 406.8C388.96 409.04 396.8 411.03 404.75 412.68C428.26 417.57 451.99 420.52 475.95 421.41C500.78 422.34 525.52 421.15 550.14 417.5C570.08 414.54 589.75 410.45 608.98 404.35C624.83 399.32 640.2 393.12 654.63 384.77C659.19 382.13 663.62 379.28 668.1 376.52C667.99 376.32 667.88 376.11 667.77 375.91Z" fill="black"/>
<path d="M0 357.92C0 357.92 0 357.91 0 357.9V357.92Z" fill="black"/>
<path d="M234.35 428.05C235.06 428.68 235.8 429.07 236.56 429.43C248.92 435.31 261.8 439.65 275.14 442.65C300.14 448.27 325.42 450.78 351.05 449.9C371.09 449.22 390.91 447.04 410.32 441.89C417.38 440.02 424.3 437.61 431.29 435.44C431.22 435.13 431.15 434.81 431.09 434.5C365.32 438.31 299.64 439.82 234.36 428.05H234.35Z" fill="black"/>
<path d="M347.53 418.86C348.12 418.84 348.69 418.72 349.27 418.65C348.89 418.09 348.48 417.88 348.06 417.74C342.57 415.86 337.05 414.07 331.56 412.2C301.09 410.26 273.16 398.91 250.69 381.03C231.34 373.54 211.67 367.04 191.57 361.93C179.95 358.98 168.16 356.69 156.42 354.23C137.06 350.17 117.45 348.23 97.71 348.14C69.84 348 42.06 349.37 14.6 354.58C9.7 355.52 4.87 356.81 0.01 357.93C0.04 358.19 0.07 358.45 0.09 358.72C2.81 358.72 5.54 358.82 8.26 358.7C20.9 358.15 33.51 358.1 46.16 359.2C66.71 360.99 86.86 364.95 106.7 370.36C123.65 374.99 140.35 380.55 157.3 385.21C182.62 392.17 208 398.93 233.45 405.38C252.76 410.28 272.29 414.28 292.1 416.55C310.51 418.67 329.01 419.21 347.53 418.86Z" fill="black"/>
<path d="M341.76 137.07C269.27 137.07 210.3 196.04 210.3 268.53C210.3 341.02 269.27 400 341.76 400C414.25 400 473.23 341.02 473.23 268.53C473.23 196.04 414.25 137.07 341.76 137.07ZM425.29 276.36L424.26 276.48C422.12 276.75 419.8 277.25 417.3 278.01V278.03L416.49 278.29C413.8 279.16 411.97 280.51 410.86 282.24C410.07 283.49 409.53 285.49 409.35 288.4L409.31 289C409.16 292.3 409.1 295.57 409.1 298.87V330.91L408.7 331.26C407.56 332.24 404.95 333.73 401.03 335.72C397.04 337.75 392.15 339.82 386.44 341.92C380.7 344.03 374.32 345.82 367.37 347.26C360.38 348.71 353.4 349.43 346.41 349.43C332.65 349.43 320.29 347.65 309.35 344.08C298.41 340.5 289.17 335.26 281.61 328.29C274.05 321.32 268.27 312.84 264.27 302.85C260.26 292.82 258.24 281.65 258.24 269.3C258.24 265.64 258.61 261.42 259.33 256.72C260.06 251.98 261.35 246.97 263.15 241.72C264.97 236.47 267.52 231.13 270.82 225.74C274.11 220.33 278.23 215.24 283.2 210.42L283.86 209.78C290.77 203.21 299.18 197.91 309.06 193.89C319.31 189.73 331.7 187.65 346.19 187.65C354.9 187.65 362.61 188.4 369.32 189.95C375.98 191.45 381.62 193.14 386.21 194.96C390.22 196.55 393.43 198.05 395.86 199.43L396.86 200.02C398.08 200.78 399.01 201.33 399.67 201.69C399.88 201.8 400.05 201.89 400.18 201.96C400.21 201.92 400.25 201.89 400.29 201.84C400.64 201.45 401.13 200.84 401.77 199.98C403.06 198.23 404.65 196.16 406.53 193.71L406.88 193.26H410.56V242.62H405.88L405.66 241.73C404.1 235.34 401.76 229.35 398.65 223.67L398.06 222.62C395.1 217.42 391.98 213.11 388.69 209.69C384.21 204.95 378.47 201.07 371.38 198.1C364.33 195.14 356.44 193.64 347.66 193.64C338.33 193.64 329.97 195.72 322.54 199.86C315.05 204.02 308.69 209.59 303.46 216.58C298.22 223.58 294.18 231.65 291.34 240.82C288.51 249.97 287.09 259.63 287.09 269.71C287.09 280.82 288.46 290.96 291.14 300.13L291.65 301.83C294.31 310.25 298.05 317.5 302.8 323.59L303.28 324.19C308.26 330.37 314.3 335.21 321.39 338.69C328.68 342.27 337.08 344.06 346.56 344.06C353.34 344.06 359.62 342.9 365.45 340.59C371.19 338.32 375.7 334.63 379.03 329.52C380.02 327.9 380.86 324.81 381.46 320.07C382.05 315.37 382.31 310.54 382.31 305.54C382.31 300.54 382.08 296.06 381.58 292.09C381.1 288.27 379.72 285.21 377.46 282.82V282.8C374.44 279.4 368.97 277.21 360.74 276.5L359.68 276.4H359.66V272.03H425.25V276.38L425.29 276.36Z" fill="black"/>
</svg>
