<svg width="1343" height="185" viewBox="0 0 1343 185" fill="none" xmlns="http://www.w3.org/2000/svg">
<path d="M182.933 92.2194C154.413 92.2194 125.893 92.2194 97.3781 92.2194C97.1501 92.2194 96.9176 92.1874 96.6942 92.2194C95.6774 92.361 95.4221 91.8949 95.413 90.9171C95.3263 82.5915 96.0331 74.3801 98.0757 66.2647C101.71 51.8297 108.627 39.2225 118.63 28.274C125.624 20.6247 133.772 14.4651 142.951 9.69453C150.889 5.56829 159.274 2.6621 168.101 1.23185C181.556 -0.947792 194.875 -0.285217 207.997 3.62169C221.534 7.65197 233.366 14.5839 243.584 24.3169C252.749 33.0491 259.57 43.3762 264.317 55.0786C268.954 66.5115 270.882 78.4469 270.595 90.7663C270.563 92.1645 270.554 92.1782 268.949 92.1782C242.558 92.1828 216.163 92.1874 189.773 92.1919C187.493 92.1919 185.218 92.1919 182.938 92.1919V92.2102L182.933 92.2194Z" fill="black"/>
<path d="M359 145.481C356.588 146.962 354.208 148.497 351.759 149.914C344.004 154.401 335.746 157.737 327.229 160.437C316.897 163.713 306.328 165.911 295.613 167.502C282.386 169.462 269.09 170.102 255.749 169.604C242.873 169.124 230.125 167.538 217.49 164.911C204.951 162.301 192.9 158.203 181.1 153.327C169.177 148.401 157.368 143.196 145.385 138.421C137.073 135.109 128.606 132.152 120.117 129.324C108.69 125.517 97.0225 122.593 85.195 120.313C76.5 118.636 67.7411 117.543 58.9047 116.981C48.3129 116.305 37.7347 116.428 27.1657 117.333C23.1989 117.671 19.2413 118.183 15.2836 118.608C14.9142 118.649 14.5404 118.658 14.0844 118.489C14.3033 118.352 14.5039 118.179 14.7364 118.078C23.8829 114.075 33.3849 111.26 43.1925 109.396C57.3499 106.705 71.6167 106.12 85.9382 107.226C91.7471 107.673 97.5286 108.697 103.283 109.679C111.9 111.155 120.281 113.623 128.574 116.364C138.058 119.499 147.287 123.292 156.333 127.523C168.945 133.427 181.515 139.436 194.692 144.014C204.017 147.259 213.496 149.968 223.107 152.235C231.201 154.145 239.349 155.74 247.583 156.887C256.843 158.18 266.154 158.801 275.497 159.062C284.693 159.318 293.872 159.002 303.023 158.084C313.263 157.056 323.408 155.42 333.421 152.993C341.765 150.969 349.922 148.337 357.988 145.413C358.261 145.312 358.544 145.239 358.822 145.152C358.881 145.262 358.941 145.372 359 145.477V145.481Z" fill="black"/>
<path d="M238.587 115.693C250.834 117.114 268.812 118.946 268.475 119.056C266.318 119.769 264.162 120.514 261.955 121.012C252.097 123.242 231.743 124.612 219.569 124.471C171.361 123.913 159.744 118.366 159.744 118.366C160.601 117.918 161.576 117.649 162.529 117.438C169.018 116.017 175.506 114.61 182.008 113.244C183.786 112.869 185.596 112.654 187.42 112.206C186.978 112.165 186.54 112.097 186.098 112.087C179.76 111.991 173.422 111.85 167.08 111.827C157.61 111.79 148.153 111.48 138.893 109.364C130.982 107.555 123.158 105.347 115.302 103.314C115.06 103.25 114.832 103.131 114.622 102.775C115.01 102.775 115.397 102.766 115.785 102.775C125.501 102.994 135.218 103.241 144.934 103.419C151.655 103.543 158.371 103.575 165.092 103.625C190.302 103.803 215.516 104.022 240.726 104.114C251.846 104.155 262.972 103.812 274.097 103.844C284.575 103.876 295.034 104.406 305.448 105.704C314.316 106.805 323.053 108.519 331.62 111.078C338.291 113.07 344.765 115.542 350.861 118.951C351.313 119.202 351.746 119.49 352.188 119.764C315.274 112.037 278.191 109.2 240.703 113.207C237.443 113.554 234.205 114.139 230.959 114.619C230.968 114.779 230.977 114.939 230.986 115.099C230.986 115.099 236.695 115.469 238.587 115.688V115.693Z" fill="black"/>
<path d="M0 135.488C2.61262 134.885 5.207 134.19 7.84241 133.687C22.6016 130.891 37.5296 130.155 52.5031 130.228C63.1132 130.279 73.6503 131.32 84.0506 133.5C90.3564 134.821 96.6942 136.05 102.936 137.635C114.672 140.619 126.14 144.476 137.402 148.949C149.174 153.629 160.988 158.221 172.825 162.74C177.498 164.527 182.286 166.007 187.023 167.629C187.251 167.707 187.47 167.817 187.675 168.118C187.365 168.16 187.055 168.224 186.741 168.233C176.787 168.42 166.847 168.128 156.953 166.99C146.307 165.77 135.815 163.617 125.438 160.985C111.763 157.517 98.1259 153.889 84.5202 150.147C75.4148 147.643 66.4416 144.654 57.3317 142.168C46.6669 139.262 35.8425 137.133 24.7993 136.173C18.0056 135.584 11.2301 135.607 4.43643 135.904C2.97282 135.968 1.50921 135.913 0.0455954 135.913C0.0319168 135.766 0.0136786 135.62 0 135.479V135.488Z" fill="black"/>
<path d="M231.748 177.143C227.995 178.308 224.275 179.602 220.481 180.607C210.053 183.376 199.402 184.546 188.633 184.911C174.858 185.382 161.276 184.034 147.843 181.014C140.676 179.405 133.75 177.07 127.111 173.913C126.705 173.721 126.308 173.51 125.925 173.172C161.002 179.496 196.297 178.683 231.638 176.636C231.675 176.805 231.711 176.974 231.748 177.143Z" fill="black"/>
<path d="M339.859 130.845C333.786 132.655 327.767 134.661 321.625 136.237C304.737 140.578 287.456 142.548 269.966 143.329C247.597 144.33 225.497 142.625 203.615 138.44C191.938 136.205 180.64 132.892 169.788 128.346C169.127 128.067 168.48 127.765 167.846 127.272C224.963 135.894 282.299 133.911 339.677 130.096C339.741 130.347 339.8 130.594 339.864 130.845H339.859Z" fill="black"/>
<path d="M497.531 88.8631H497.551L498.421 88.9331C505.161 89.5131 509.641 91.3131 512.111 94.0931V94.1131C513.961 96.0731 515.091 98.5731 515.481 101.703C515.891 104.953 516.081 108.613 516.081 112.713C516.081 116.813 515.861 120.763 515.381 124.613C514.891 128.493 514.201 131.023 513.391 132.353C510.661 136.533 506.971 139.553 502.271 141.413C497.491 143.303 492.351 144.253 486.801 144.253C479.041 144.253 472.161 142.783 466.191 139.853C460.381 137.003 455.441 133.043 451.361 127.983L450.971 127.493C447.081 122.503 444.021 116.563 441.841 109.673L441.421 108.283C439.221 100.773 438.101 92.4731 438.101 83.3731C438.101 75.1231 439.261 67.2131 441.581 59.7231C443.901 52.2131 447.211 45.6031 451.501 39.8731C455.781 34.1531 460.991 29.5931 467.121 26.1831C473.211 22.7931 480.051 21.0931 487.691 21.0931C494.881 21.0931 501.341 22.3231 507.111 24.7431C512.911 27.1731 517.611 30.3531 521.281 34.2331C523.971 37.0331 526.531 40.5631 528.951 44.8231L529.431 45.6831C531.981 50.3331 533.891 55.2431 535.171 60.4731L535.351 61.2031H539.181V20.7931H536.171L535.881 21.1631C534.341 23.1631 533.041 24.8631 531.981 26.2931C531.461 26.9931 531.061 27.4931 530.771 27.8131C530.741 27.8531 530.701 27.8831 530.681 27.9131C530.571 27.8531 530.431 27.7831 530.261 27.6931C529.721 27.3931 528.961 26.9431 527.961 26.3231L527.141 25.8431C525.151 24.7131 522.521 23.4831 519.241 22.1831C515.481 20.6931 510.861 19.3131 505.411 18.0831C499.911 16.8131 493.601 16.2031 486.471 16.2031C474.611 16.2031 464.461 17.9031 456.071 21.3131C447.981 24.6031 441.101 28.9431 435.441 34.3231L434.901 34.8431C430.831 38.7831 427.451 42.9531 424.761 47.3831C422.061 51.7931 419.971 56.1631 418.481 60.4631C417.001 64.7631 415.951 68.8631 415.351 72.7431C414.761 76.5931 414.461 80.0431 414.461 83.0431C414.461 93.1531 416.121 102.303 419.401 110.513C422.681 118.693 427.411 125.633 433.601 131.343C439.791 137.053 447.351 141.343 456.311 144.273C465.261 147.193 475.381 148.653 486.651 148.653C492.371 148.653 498.091 148.063 503.811 146.873C509.501 145.693 514.721 144.233 519.421 142.503C524.101 140.783 528.101 139.083 531.371 137.423C534.581 135.793 536.721 134.573 537.651 133.773L537.981 133.483V107.253C537.981 104.553 538.031 101.873 538.151 99.1731L538.181 98.6831C538.331 96.3031 538.771 94.6631 539.421 93.6431C540.331 92.2331 541.831 91.1231 544.031 90.4131L544.691 90.2031V90.1831C546.741 89.5631 548.641 89.1531 550.391 88.9331L551.231 88.8331V85.2731H497.531V88.8631Z" fill="black"/>
<path d="M659.151 59.8631L659.191 59.8431V56.8331H626.601V59.8331L627.411 59.9531C631.281 60.5331 634.101 61.5031 635.961 62.8231C637.811 64.1531 639.111 65.8831 639.881 68.0031V68.0231C640.161 68.7531 640.391 69.7531 640.561 71.0831C640.731 72.4031 640.851 73.8431 640.921 75.3931C641.021 76.9531 641.071 78.5731 641.111 80.3131C641.181 82.0431 641.181 83.7131 641.181 85.3531V106.373C641.181 109.133 641.061 111.973 640.861 114.893C640.641 117.763 640.231 120.603 639.631 123.353C639.031 126.063 638.111 128.623 636.871 131.023C635.651 133.383 633.991 135.493 631.901 137.293C629.841 139.103 627.241 140.513 624.081 141.563C620.951 142.593 617.061 143.133 612.431 143.133C608.391 143.133 604.851 142.493 601.781 141.183C598.701 139.863 596.101 138.013 593.971 135.603C591.831 133.183 590.151 130.243 588.971 126.773L588.751 126.113C587.751 123.023 587.191 119.633 587.061 115.923L587.041 115.123C587.041 113.143 587.011 111.253 586.971 109.483L586.931 108.153C586.901 106.823 586.901 105.443 586.901 104.003V79.3831C586.901 77.8231 586.921 76.2231 586.971 74.5931C587.021 72.9631 587.091 71.0931 587.171 68.9331C587.261 67.1531 587.651 65.7531 588.291 64.6731C588.951 63.5431 589.761 62.7031 590.701 62.0831C591.701 61.4531 592.801 60.9531 594.011 60.6631C595.311 60.3531 596.531 60.1131 597.651 59.9431L598.461 59.8231V56.8231H559.681V59.8531L560.521 59.9531C562.611 60.1931 564.451 60.6131 566.061 61.2031C567.581 61.7531 568.861 62.6731 569.911 63.9431V63.9631C570.301 64.3931 570.611 65.0431 570.841 65.9831C571.071 66.9931 571.261 68.1031 571.381 69.3231C571.501 70.5631 571.571 71.9031 571.571 73.3631V94.2631C571.571 98.7831 571.551 102.893 571.501 106.603C571.431 110.333 571.431 113.353 571.431 115.653C571.431 116.663 571.511 118.183 571.631 120.203C571.731 122.323 572.171 124.633 572.891 127.103C573.601 129.613 574.711 132.153 576.191 134.723C577.701 137.363 579.821 139.753 582.541 141.923C585.301 144.123 588.771 145.833 592.941 147.103C597.151 148.383 602.171 149.003 608.251 149.003C614.331 149.003 619.501 148.363 623.761 147.053C627.971 145.753 631.461 143.963 634.221 141.693C636.951 139.443 639.061 136.933 640.571 134.113C642.051 131.383 643.131 128.613 643.811 125.863C644.481 123.123 644.891 120.543 645.011 118.073C645.131 115.693 645.261 113.683 645.331 112.123V112.103C645.501 106.593 645.651 101.653 645.771 97.2731C645.891 92.9231 646.011 88.9531 646.091 85.3931V85.3731C646.091 83.5031 646.141 81.5831 646.211 79.6631C646.281 77.7431 646.401 75.9331 646.571 74.2131C646.701 72.9231 646.841 71.7531 646.981 70.7031L647.131 69.6831C647.351 68.3731 647.551 67.5431 647.751 67.0731C648.671 64.8331 649.961 63.2231 651.531 62.1931L652.251 61.7231C653.801 60.9031 655.801 60.3131 658.331 59.9731L659.151 59.8631Z" fill="black"/>
<path d="M1342.04 144.583H1341.95C1338.21 144.013 1334.96 142.793 1332.21 140.903C1329.45 139.003 1326.56 135.973 1323.53 131.743C1321.57 128.953 1319.32 125.733 1316.8 122.113C1314.3 118.493 1311.98 115.113 1309.82 111.983V111.963L1309.33 111.313C1308.21 109.803 1307.07 108.423 1305.88 107.173C1304.93 106.173 1303.94 105.313 1302.93 104.623C1305.15 103.813 1307.28 102.863 1309.34 101.773C1311.89 100.413 1314.12 98.7631 1316.05 96.8331C1317.99 94.8931 1319.55 92.6431 1320.7 90.1231C1321.86 87.5631 1322.45 84.6831 1322.45 81.5031C1322.45 76.4231 1321.32 72.1031 1318.95 68.6531C1316.63 65.2631 1313.57 62.5931 1309.82 60.6131C1306.15 58.6631 1302.1 57.5031 1297.69 57.1831C1293.38 56.8631 1288.46 56.6931 1282.9 56.6931H1274.23C1270.68 56.6931 1267.12 56.7131 1263.57 56.7631C1260.03 56.8331 1256.86 56.8331 1254.07 56.8331H1248.05V59.8331L1248.87 59.9531C1251.07 60.2631 1252.9 60.6531 1254.36 61.0931C1255.7 61.5031 1256.93 62.2831 1258.08 63.5031C1258.37 63.8131 1258.67 64.3331 1258.92 65.1531L1259.03 65.5231C1259.31 66.5831 1259.49 67.7531 1259.61 69.0831C1259.73 70.4331 1259.8 71.8531 1259.85 73.3631V73.3831C1259.92 74.8731 1259.92 76.3431 1259.92 77.8431V109.133C1259.92 111.603 1259.9 114.013 1259.85 116.353C1259.8 118.713 1259.78 120.843 1259.73 122.823C1259.66 124.823 1259.66 126.403 1259.66 127.553C1259.66 128.863 1259.64 130.183 1259.54 131.573C1259.44 132.993 1259.35 134.303 1259.22 135.503C1259.1 136.713 1258.91 137.793 1258.68 138.713C1258.45 139.663 1258.18 140.233 1257.9 140.553V140.573C1256.95 141.733 1255.62 142.623 1253.87 143.233C1253.64 143.313 1253.42 143.393 1253.19 143.463C1250.08 144.473 1246.73 144.613 1243.59 143.703C1243.19 143.593 1242.85 143.473 1242.61 143.363C1241.3 142.743 1240.2 142.013 1239.33 141.223C1238.43 140.373 1237.72 139.593 1237.18 138.823C1236.61 138.013 1236.27 137.463 1236.12 137.193C1235.13 135.073 1234.27 133.153 1233.46 131.473C1232.67 129.833 1231.85 127.733 1230.95 125.203V125.183L1229.46 121.283C1228.97 119.983 1228.47 118.673 1227.97 117.353L1225 109.433C1223.02 104.103 1220.99 98.5932 1218.88 92.9232C1216.77 87.2432 1214.57 81.3231 1212.27 75.1831C1209.97 69.0431 1207.52 62.5631 1204.97 55.7131L1204.74 55.0931H1202.53L1202.26 55.5931C1201.97 56.1331 1201.51 56.8231 1200.89 57.7431C1200.31 58.6031 1199.58 59.5231 1198.7 60.4631C1197.83 61.4031 1196.82 62.3131 1195.67 63.1931C1194.53 64.0531 1193.27 64.8031 1191.84 65.4331L1190.96 65.8232L1192.41 69.0331C1190.47 73.5531 1188.42 78.3731 1186.25 83.5631C1184.02 88.8931 1181.8 94.1531 1179.52 99.3831C1177.27 104.623 1175.06 109.713 1172.91 114.653C1170.76 119.623 1168.82 124.023 1167.09 127.883C1165.21 132.073 1163.62 135.193 1162.32 137.293C1160.99 139.463 1160.11 140.713 1159.62 141.203L1159.56 141.263L1159.51 141.323C1159.51 141.323 1159.46 141.373 1159.37 141.453C1159.26 141.543 1159.1 141.663 1158.89 141.813C1158.47 142.103 1157.88 142.473 1157.13 142.923C1156.73 143.163 1156.3 143.373 1155.85 143.563C1153.95 144.373 1151.84 144.563 1149.8 144.283C1148.83 144.143 1147.78 143.973 1147.24 143.773C1145.8 143.253 1144.64 142.683 1143.75 142.043C1142.8 141.353 1142.11 140.743 1141.63 140.203C1141.36 139.903 1141.16 139.663 1141.02 139.483C1140.95 139.393 1140.9 139.333 1140.87 139.283C1140.87 139.263 1140.85 139.253 1140.85 139.253L1140.83 139.203L1140.68 138.903C1140.33 138.153 1140.05 137.123 1139.89 135.773L1139.82 135.173C1139.66 133.803 1139.58 132.453 1139.58 131.123C1139.51 126.243 1139.46 121.643 1139.46 117.273V92.6531C1139.46 88.9431 1139.51 85.1332 1139.58 81.1732C1139.65 78.2932 1139.78 75.3732 1139.95 72.4232C1140.1 69.4932 1140.43 67.4031 1140.87 66.1331C1141.46 64.5131 1142.54 63.0931 1144.19 61.8731C1145.76 60.7131 1148.11 60.0231 1151.38 59.9531L1152.31 59.9331V56.8231H1124.35L1124.12 57.4431C1123.89 58.0731 1122.87 60.4631 1121.1 64.6431C1119.31 68.8031 1117.06 74.0131 1114.3 80.2731C1111.53 86.5331 1108.42 93.5331 1104.95 101.283C1101.76 108.403 1098.5 115.543 1095.19 122.723L1066.21 56.8231H1038.29V59.8031L1039.08 59.9331C1040.05 60.1031 1041.22 60.3631 1042.6 60.7231C1043.92 61.0631 1045.14 61.6031 1046.27 62.3731C1047.38 63.1231 1048.36 64.1531 1049.21 65.4931C1049.95 66.6831 1050.43 68.2531 1050.54 70.2431L1050.56 70.6431C1050.63 73.0431 1050.68 75.0531 1050.68 76.6831V92.2731C1050.68 97.7931 1050.63 102.953 1050.56 107.773C1050.49 112.583 1050.36 116.763 1050.19 120.293V120.323C1050.12 124.503 1049.83 128.003 1049.35 130.873C1048.87 133.733 1048.12 136.073 1047.1 137.933C1046.1 139.753 1044.77 141.173 1043.1 142.203C1042.87 142.353 1042.62 142.493 1042.37 142.633C1039.94 143.933 1037.14 144.363 1034.44 143.813C1033.8 143.683 1033.23 143.553 1032.87 143.373C1031.56 142.753 1030.47 142.023 1029.59 141.243C1028.69 140.383 1027.97 139.603 1027.44 138.843C1026.87 138.043 1026.53 137.493 1026.38 137.223C1025.39 135.103 1024.53 133.183 1023.72 131.503C1022.93 129.863 1022.12 127.763 1021.21 125.233V125.213L1019.72 121.313C1018.23 117.403 1016.75 113.443 1015.26 109.463C1013.28 104.133 1011.24 98.6231 1009.14 92.9431C1007.03 87.2631 1004.83 81.3432 1002.53 75.2032C1000.23 69.0632 997.781 62.5831 995.231 55.7331L995.001 55.1131H992.791L992.521 55.6131C992.231 56.1531 991.771 56.8431 991.151 57.7631C990.571 58.6231 989.841 59.5431 988.961 60.4831C988.091 61.4231 987.081 62.3331 985.931 63.2131C984.791 64.0731 983.531 64.8232 982.101 65.4532L981.221 65.8431L982.671 69.0531C980.731 73.5731 978.681 78.3832 976.511 83.5732C974.281 88.9032 972.061 94.1631 969.781 99.3931C967.531 104.633 965.321 109.723 963.171 114.663C961.021 119.633 959.081 124.033 957.351 127.893C955.471 132.083 953.881 135.203 952.581 137.303C951.241 139.473 950.371 140.723 949.881 141.213L949.821 141.273L949.771 141.333C949.771 141.333 949.751 141.363 949.631 141.463C949.521 141.553 949.361 141.673 949.151 141.823C948.941 141.973 948.691 142.133 948.401 142.313L947.401 142.923C945.991 143.753 944.311 144.303 942.271 144.533L941.431 144.633V147.803H969.681V144.813L968.881 144.683C967.801 144.513 966.701 144.323 965.481 144.123C964.371 143.943 963.331 143.643 962.391 143.213C961.431 142.783 960.711 142.293 960.151 141.693C959.681 141.183 959.431 140.543 959.431 139.673C959.431 138.063 960.221 135.093 961.951 130.633C963.131 127.743 964.281 124.873 965.431 122.043C966.511 119.383 967.631 116.593 968.771 113.683H1000.38C1001.54 116.663 1002.61 119.563 1003.62 122.333C1004.16 123.813 1004.66 125.223 1005.13 126.573L1006.46 130.413C1007.26 132.843 1007.89 134.883 1008.35 136.543C1008.81 138.223 1009 139.343 1009 139.933C1009 140.843 1008.7 141.543 1008.13 142.073C1007.45 142.743 1006.65 143.243 1005.72 143.623C1004.76 144.013 1003.84 144.263 1002.95 144.423C1001.98 144.593 1001.48 144.653 1001.33 144.653H1000.38V147.783L1069.85 147.733V144.733L1069.03 144.613C1065.76 144.143 1063.23 143.423 1061.36 142.483L1061 142.293C1059.15 141.283 1057.78 139.873 1056.89 138.123L1056.72 137.773C1055.89 136.043 1055.36 133.883 1055.13 131.303C1054.89 128.503 1054.77 125.153 1054.77 121.303V105.473C1054.77 100.953 1054.79 96.6431 1054.84 92.5631C1054.89 88.5431 1054.91 84.3231 1054.96 80.2131C1055.01 77.2431 1055.02 73.9331 1055.03 70.3131L1055.49 71.3531C1056.6 73.9031 1058.02 77.0931 1059.76 80.8831C1061.5 84.6731 1063.43 88.9931 1065.58 93.8631C1067.74 98.7331 1070.04 103.943 1072.51 109.503C1074.98 115.053 1077.53 120.853 1080.12 126.863C1082.72 132.883 1085.34 138.953 1087.98 145.043L1088.23 145.613H1090.3L1090.5 144.933C1090.63 144.513 1091.02 143.533 1091.68 142.003C1092.34 140.473 1093.06 138.783 1093.8 136.903C1094.53 135.083 1095.28 133.283 1096.02 131.503C1096.78 129.733 1097.34 128.463 1097.74 127.663V127.643L1097.76 127.623C1100.49 121.483 1102.98 115.963 1105.25 110.863C1107.5 105.803 1109.75 100.833 1111.98 95.9731C1114.21 91.1231 1116.44 86.1232 1118.72 81.0132C1120.48 77.0632 1122.37 72.8232 1124.39 68.2932V114.153C1124.39 119.083 1124.32 124.283 1124.15 129.703C1124.08 131.323 1123.91 132.903 1123.67 134.483C1123.41 136.023 1123.06 137.283 1122.62 138.253C1121.9 139.743 1120.49 141.133 1118.2 142.393C1115.96 143.623 1113.15 144.333 1109.7 144.503L1108.79 144.543V147.753L1179.47 147.783V144.793L1178.67 144.663C1177.59 144.493 1176.49 144.303 1175.27 144.103C1174.16 143.923 1173.12 143.623 1172.18 143.193L1171.83 143.023C1171.04 142.633 1170.43 142.193 1169.94 141.673C1169.47 141.163 1169.22 140.523 1169.22 139.653C1169.22 138.043 1170.01 135.073 1171.75 130.613C1172.92 127.723 1174.08 124.853 1175.23 122.023C1176.31 119.363 1177.43 116.573 1178.57 113.663H1210.18C1211.33 116.643 1212.41 119.543 1213.41 122.313C1214.48 125.263 1215.41 127.973 1216.25 130.393C1217.05 132.823 1217.68 134.863 1218.14 136.523C1218.6 138.203 1218.79 139.323 1218.79 139.913C1218.79 140.823 1218.49 141.523 1217.92 142.053C1217.24 142.723 1216.44 143.223 1215.51 143.603C1214.55 143.993 1213.63 144.243 1212.74 144.403C1211.77 144.573 1211.27 144.633 1211.12 144.633H1210.17V147.763L1288.89 147.783V144.693L1287.98 144.653C1284.7 144.513 1282.25 143.873 1280.51 142.873C1278.64 141.773 1277.53 140.793 1276.99 139.913V139.893L1276.97 139.873L1276.84 139.673C1276.21 138.653 1275.83 137.333 1275.76 135.673C1275.71 134.233 1275.64 132.613 1275.58 130.783L1275.52 128.883C1275.45 126.173 1275.4 122.853 1275.4 118.903V105.943C1276.12 105.983 1276.76 106.013 1277.29 106.013C1278.02 106.013 1279.14 106.163 1280.7 106.483C1282.65 106.863 1284.56 107.813 1286.39 109.363C1288.29 110.973 1290.06 112.723 1291.67 114.573C1293.65 116.863 1295.35 118.933 1296.78 120.773C1298.21 122.623 1299.55 124.443 1300.76 126.233C1301.98 128.043 1303.2 129.873 1304.4 131.723C1305.58 133.593 1306.99 135.683 1308.55 137.983C1309.87 139.883 1310.84 141.283 1311.44 142.223C1312.05 143.163 1312.59 143.943 1313.05 144.483C1313.45 144.963 1313.84 145.423 1314.21 145.813C1314.56 146.193 1315.11 146.763 1315.85 147.503L1316.05 147.703H1342.85V144.703L1342.04 144.583ZM970.651 109.123H970.661C972.441 104.763 974.101 100.673 975.631 96.8931C977.291 92.7331 978.861 89.0231 980.251 85.7231C981.651 82.4131 982.821 79.6031 983.781 77.3031C984.251 76.1431 984.661 75.1531 985.021 74.3131C985.581 75.7231 986.221 77.3432 986.961 79.2032C988.081 82.0332 989.311 85.1731 990.681 88.6031C992.051 92.0231 993.441 95.5731 994.891 99.2831C996.171 102.573 997.421 105.843 998.661 109.123H970.651ZM1180.42 109.113C1182.2 104.763 1183.86 100.673 1185.39 96.8931C1187.05 92.7331 1188.62 89.0231 1190.01 85.7231C1191.41 82.4131 1192.58 79.6031 1193.54 77.3031C1194.01 76.1431 1194.42 75.1531 1194.78 74.3131C1195.34 75.7231 1195.98 77.3431 1196.72 79.1931C1197.84 82.0231 1199.07 85.1631 1200.44 88.5931C1201.81 92.0131 1203.2 95.5631 1204.65 99.2731C1205.93 102.563 1207.18 105.833 1208.42 109.113H1180.42ZM1298.9 96.7131H1298.88L1298.55 96.9631C1296.74 98.2831 1294.58 99.3431 1292.02 100.153C1289.37 101.033 1286.63 101.613 1283.75 101.893C1281.12 102.153 1278.31 102.293 1275.32 102.323V89.6732C1275.32 86.3032 1275.34 82.8031 1275.39 79.1931C1275.44 75.5831 1275.51 72.3431 1275.59 69.4631C1275.69 67.5831 1275.74 66.0831 1275.79 65.0831C1275.84 64.0131 1275.86 63.2631 1275.91 62.7031C1275.96 62.1731 1276.02 61.7131 1276.09 61.3831C1276.13 61.2031 1276.17 60.9931 1276.21 60.7631C1276.68 60.7131 1277.26 60.6531 1277.93 60.6031C1278.98 60.5331 1280.36 60.4831 1282.08 60.4831C1284.4 60.4831 1286.65 60.6731 1288.76 61.0731C1290.86 61.4731 1292.86 62.1131 1294.77 62.9831C1298.48 64.7431 1301.28 67.1032 1303.22 70.0132L1303.38 70.2731C1305.33 73.3431 1306.32 76.8331 1306.32 80.7731C1306.32 82.9231 1306.06 84.9831 1305.5 86.9431C1304.94 88.9031 1304.1 90.7432 1302.96 92.4232C1301.93 94.0032 1300.56 95.4331 1298.9 96.7131Z" fill="black"/>
<path d="M941.572 116.423C942.852 111.903 943.472 106.793 943.472 101.063C943.472 95.3331 942.772 90.7531 941.392 86.4831C940.022 82.2431 938.162 78.4831 935.822 75.2131C933.492 71.9531 930.752 69.1731 927.642 66.7931C924.732 64.5631 921.612 62.7331 918.332 61.2631L917.672 60.9731C914.971 59.7931 912.212 58.9231 909.442 58.3231C906.682 57.7231 903.932 57.3031 901.172 57.0531C898.422 56.8031 895.682 56.6831 892.932 56.6831H885.022C875.792 56.6831 867.902 56.7031 861.382 56.7531C854.872 56.8231 849.882 56.8231 846.432 56.8231H845.482V59.8431L846.312 59.9431C848.422 60.2031 850.292 60.5831 851.952 61.1531H851.962C853.522 61.6631 854.862 62.5831 855.972 63.9331V63.9531C856.362 64.3831 856.672 65.0331 856.902 65.9731C857.132 66.9831 857.322 68.0931 857.442 69.3231C857.562 70.5631 857.632 71.9031 857.632 73.3631V109.083C857.632 111.553 857.602 113.963 857.562 116.303C857.542 117.483 857.522 118.613 857.502 119.683L857.442 122.783C857.372 124.773 857.372 126.353 857.372 127.503C857.372 128.803 857.322 130.133 857.252 131.543C857.182 132.943 857.062 134.233 856.892 135.423C856.722 136.663 856.552 137.743 856.342 138.703C856.132 139.663 855.892 140.123 855.672 140.343L855.612 140.403C854.762 141.403 853.432 142.303 851.582 143.103C851.322 143.213 851.002 143.333 850.652 143.433C846.882 144.603 842.772 144.403 839.142 142.833C837.902 142.293 836.732 141.643 835.632 140.893C832.872 138.993 829.982 135.963 826.952 131.733C824.992 128.943 822.742 125.723 820.222 122.103C817.722 118.483 815.402 115.103 813.252 111.973V111.953L812.762 111.303C811.642 109.793 810.502 108.413 809.312 107.163C808.362 106.163 807.372 105.303 806.362 104.613C808.582 103.803 810.712 102.853 812.772 101.763C815.322 100.403 817.552 98.7531 819.482 96.8231C821.411 94.8931 822.982 92.6331 824.132 90.1131C825.292 87.5531 825.882 84.6731 825.882 81.4931C825.882 76.4131 824.752 72.0931 822.382 68.6431C820.062 65.2531 817.002 62.5831 813.252 60.6031C809.582 58.6531 805.532 57.4931 801.122 57.1731C796.812 56.8531 791.892 56.6831 786.332 56.6831H777.662C774.112 56.6831 770.552 56.7031 766.992 56.7531C763.452 56.8231 760.282 56.8231 757.482 56.8231H751.462V59.8231L752.282 59.9431C754.482 60.2531 756.312 60.6431 757.772 61.0831C759.112 61.4931 760.342 62.2731 761.492 63.4931C761.782 63.8031 762.082 64.3231 762.332 65.1431L762.442 65.5131C762.722 66.5731 762.902 67.7431 763.022 69.0731C763.142 70.4231 763.212 71.8431 763.262 73.3531V73.3731C763.332 74.8631 763.332 76.3331 763.332 77.8331V109.123C763.332 111.593 763.302 114.003 763.262 116.343C763.212 118.703 763.192 120.833 763.142 122.813C763.072 124.813 763.072 126.393 763.072 127.543C763.072 128.853 763.052 130.173 762.952 131.563C762.852 132.983 762.752 134.293 762.632 135.493C762.512 136.703 762.322 137.783 762.092 138.703C761.862 139.653 761.592 140.223 761.312 140.543V140.563C760.372 141.723 759.032 142.613 757.282 143.223C757.052 143.303 756.832 143.383 756.602 143.463C753.492 144.473 750.142 144.603 747.002 143.703C746.602 143.583 746.262 143.473 746.022 143.353C744.712 142.733 743.612 142.003 742.732 141.213C741.832 140.363 741.122 139.583 740.582 138.813C740.012 138.003 739.672 137.453 739.522 137.183C738.532 135.063 737.672 133.143 736.872 131.463C736.082 129.823 735.262 127.723 734.362 125.193V125.173L732.872 121.273C732.372 119.973 731.882 118.663 731.382 117.343L728.412 109.423C726.432 104.093 724.402 98.5831 722.292 92.9131C720.182 87.2331 717.982 81.3131 715.682 75.1731C713.382 69.0331 710.932 62.5531 708.382 55.7031L708.152 55.0831H705.942L705.672 55.5831C705.382 56.1231 704.922 56.8131 704.302 57.7331C703.722 58.5931 702.992 59.5131 702.112 60.4531C701.242 61.3931 700.232 62.3031 699.082 63.1831C697.942 64.0431 696.682 64.7931 695.252 65.4231L694.372 65.8131L695.822 69.0231C693.882 73.5431 691.832 78.3531 689.662 83.5431C687.432 88.8731 685.212 94.1331 682.932 99.3631C680.682 104.603 678.472 109.693 676.322 114.633C674.172 119.603 672.232 124.003 670.502 127.863C668.622 132.053 667.032 135.173 665.732 137.273C664.392 139.443 663.522 140.693 663.032 141.183L662.972 141.243L662.932 141.303C662.932 141.303 662.912 141.333 662.792 141.433C662.682 141.523 662.522 141.643 662.312 141.793C661.892 142.083 661.302 142.453 660.552 142.903C659.142 143.733 657.462 144.283 655.422 144.513L654.572 144.613V147.783H682.822V144.793L682.022 144.663C680.942 144.493 679.842 144.303 678.622 144.103C677.512 143.923 676.472 143.623 675.532 143.193L675.182 143.023C674.392 142.633 673.782 142.193 673.302 141.673C672.822 141.163 672.572 140.523 672.572 139.653C672.572 138.043 673.362 135.063 675.102 130.603C676.272 127.723 677.432 124.853 678.572 122.023C679.652 119.363 680.772 116.573 681.912 113.663H713.522C714.672 116.643 715.752 119.543 716.762 122.313C717.832 125.263 718.762 127.973 719.592 130.393C720.392 132.823 721.022 134.863 721.482 136.523C721.942 138.203 722.132 139.323 722.132 139.913C722.132 140.823 721.832 141.523 721.262 142.053H721.252C720.572 142.723 719.772 143.223 718.842 143.603C717.882 143.993 716.962 144.243 716.072 144.403C715.102 144.573 714.602 144.633 714.452 144.633H713.502V147.763L792.222 147.783V144.693L791.312 144.653C788.032 144.513 785.582 143.873 783.842 142.873C781.972 141.773 780.862 140.793 780.322 139.913V139.893L780.302 139.873L780.172 139.673C779.542 138.653 779.162 137.333 779.092 135.673C779.042 134.233 778.972 132.613 778.902 130.783L778.842 128.883C778.772 126.173 778.722 122.853 778.722 118.903V105.943C779.442 105.983 780.082 106.013 780.612 106.013C781.342 106.013 782.462 106.163 784.022 106.483C785.972 106.863 787.882 107.813 789.712 109.363C791.612 110.973 793.382 112.723 794.992 114.573C796.972 116.863 798.672 118.933 800.102 120.773C801.542 122.623 802.872 124.443 804.082 126.233C805.002 127.583 805.912 128.953 806.822 130.333L807.722 131.713C808.902 133.583 810.312 135.673 811.872 137.973C813.192 139.873 814.162 141.273 814.762 142.213C815.372 143.153 815.912 143.933 816.372 144.473C816.782 144.953 817.162 145.413 817.532 145.803C817.882 146.183 818.432 146.753 819.172 147.493L819.372 147.693L891.112 147.763C894.952 147.763 898.912 147.493 902.992 146.943C907.092 146.393 911.072 145.453 914.932 144.113C918.802 142.763 922.472 140.973 925.912 138.703C929.382 136.413 932.452 133.523 935.062 130.063C937.712 126.583 939.762 122.443 941.282 117.663L941.682 116.423H941.572ZM683.842 109.113C685.622 104.763 687.282 100.673 688.812 96.8931C690.472 92.7331 692.032 89.0231 693.432 85.7231C694.832 82.4131 696.002 79.6031 696.962 77.3031C697.422 76.1431 697.842 75.1531 698.202 74.3131C698.762 75.7231 699.402 77.3431 700.142 79.1931C701.262 82.0231 702.492 85.1631 703.862 88.5931C705.232 92.0131 706.632 95.5631 708.072 99.2731C709.352 102.563 710.602 105.833 711.842 109.113H683.842ZM802.302 96.7031L801.962 96.9631C800.152 98.2831 797.992 99.3431 795.432 100.153C792.782 101.033 790.042 101.613 787.162 101.893C784.532 102.153 781.732 102.293 778.732 102.323V89.6731C778.732 86.3031 778.752 82.8031 778.802 79.1931C778.852 75.5831 778.922 72.3431 778.992 69.4631C779.092 67.5831 779.142 66.0831 779.192 65.0831C779.242 64.0131 779.262 63.2631 779.312 62.7031C779.362 62.1731 779.422 61.7131 779.492 61.3831C779.522 61.2031 779.572 60.9931 779.612 60.7631C780.082 60.7131 780.662 60.6531 781.332 60.6031C782.382 60.5331 783.752 60.4831 785.482 60.4831C787.802 60.4831 790.052 60.6731 792.162 61.0731C794.262 61.4731 796.272 62.1131 798.172 62.9831C801.882 64.7431 804.692 67.1131 806.632 70.0231L806.782 70.2631C808.732 73.3331 809.722 76.8231 809.722 80.7631C809.722 82.9131 809.462 84.9731 808.902 86.9331C808.342 88.8931 807.502 90.7331 806.362 92.4131C805.332 93.9931 803.962 95.4231 802.302 96.7031ZM920.042 128.063H920.032C915.762 135.233 909.302 140.063 900.612 142.543H900.592C898.782 143.103 896.792 143.463 894.662 143.683C892.512 143.903 890.422 143.993 888.392 143.993C886.222 143.993 883.912 143.783 881.442 143.323C879.092 142.893 877.192 141.923 875.702 140.433C875.392 140.123 875.062 139.613 874.752 138.853L874.622 138.513C874.282 137.533 874.022 136.473 873.862 135.233C873.692 133.953 873.572 132.653 873.422 131.293C873.282 129.993 873.232 128.753 873.232 127.623V127.603C873.161 124.873 873.112 121.383 873.112 117.103V102.643C873.112 92.8331 873.161 84.3931 873.232 77.3031C873.302 70.6131 873.522 65.3131 873.902 61.3831C874.302 61.3131 874.802 61.2531 875.392 61.1831C876.302 61.0831 877.362 60.9831 878.482 60.8631C879.582 60.7431 880.682 60.6731 881.822 60.6231H881.842C882.962 60.5531 884.002 60.5531 884.992 60.5531C887.852 60.5531 890.242 60.6731 892.182 60.8631C894.122 61.0831 895.932 61.3431 897.542 61.6631H897.562C901.702 62.3731 905.532 63.9831 909.052 66.4431C912.592 68.9531 915.652 71.9831 918.232 75.5731C920.811 79.1631 922.832 83.1831 924.292 87.6231L924.512 88.2731H924.552C925.872 92.4931 926.522 96.8531 926.522 101.293C926.522 111.953 924.341 120.883 920.042 128.063Z" fill="black"/>
</svg>
