<svg width="359" height="185" viewBox="0 0 359 185" fill="none" xmlns="http://www.w3.org/2000/svg">
<path d="M182.933 92.2194C154.413 92.2194 125.893 92.2194 97.3781 92.2194C97.1501 92.2194 96.9176 92.1874 96.6942 92.2194C95.6774 92.361 95.4221 91.8949 95.413 90.9171C95.3263 82.5915 96.0331 74.3801 98.0757 66.2647C101.71 51.8297 108.627 39.2225 118.63 28.274C125.624 20.6247 133.772 14.4651 142.951 9.69453C150.889 5.56829 159.274 2.6621 168.101 1.23185C181.556 -0.947792 194.875 -0.285217 207.997 3.62169C221.534 7.65197 233.366 14.5839 243.584 24.3169C252.749 33.0491 259.57 43.3762 264.317 55.0786C268.954 66.5115 270.882 78.4469 270.595 90.7663C270.563 92.1645 270.554 92.1782 268.949 92.1782C242.558 92.1828 216.163 92.1874 189.773 92.1919C187.493 92.1919 185.218 92.1919 182.938 92.1919V92.2102L182.933 92.2194Z" fill="black"/>
<path d="M359 145.481C356.588 146.962 354.208 148.497 351.759 149.914C344.004 154.401 335.746 157.737 327.229 160.437C316.897 163.713 306.328 165.911 295.613 167.502C282.386 169.462 269.09 170.102 255.749 169.604C242.873 169.124 230.125 167.538 217.49 164.911C204.951 162.301 192.9 158.203 181.1 153.327C169.177 148.401 157.368 143.196 145.385 138.421C137.073 135.109 128.606 132.152 120.117 129.324C108.69 125.517 97.0225 122.593 85.195 120.313C76.5 118.636 67.7411 117.543 58.9047 116.981C48.3129 116.305 37.7348 116.428 27.1657 117.333C23.1989 117.671 19.2413 118.183 15.2836 118.608C14.9142 118.649 14.5404 118.658 14.0844 118.489C14.3033 118.352 14.5039 118.179 14.7364 118.078C23.8829 114.075 33.3849 111.26 43.1925 109.396C57.3499 106.705 71.6167 106.12 85.9382 107.226C91.7471 107.673 97.5286 108.697 103.283 109.679C111.9 111.155 120.281 113.623 128.574 116.364C138.058 119.499 147.287 123.292 156.333 127.523C168.945 133.427 181.515 139.436 194.692 144.014C204.017 147.259 213.496 149.968 223.107 152.235C231.201 154.145 239.349 155.74 247.583 156.887C256.843 158.18 266.154 158.801 275.497 159.062C284.693 159.318 293.872 159.002 303.023 158.084C313.263 157.056 323.408 155.42 333.421 152.993C341.765 150.969 349.922 148.337 357.988 145.413C358.261 145.312 358.544 145.239 358.822 145.152C358.881 145.262 358.941 145.372 359 145.477V145.481Z" fill="black"/>
<path d="M238.587 115.693C250.834 117.114 268.812 118.946 268.475 119.056C266.318 119.769 264.162 120.514 261.955 121.012C252.097 123.242 231.743 124.612 219.569 124.471C171.361 123.913 159.744 118.366 159.744 118.366C160.601 117.918 161.576 117.649 162.529 117.438C169.018 116.017 175.506 114.61 182.008 113.244C183.786 112.869 185.596 112.654 187.42 112.206C186.978 112.165 186.54 112.097 186.098 112.087C179.76 111.991 173.422 111.85 167.08 111.827C157.61 111.79 148.153 111.48 138.893 109.364C130.982 107.555 123.158 105.347 115.302 103.314C115.06 103.25 114.832 103.131 114.622 102.775C115.01 102.775 115.397 102.766 115.785 102.775C125.501 102.994 135.218 103.241 144.934 103.419C151.655 103.543 158.371 103.575 165.092 103.625C190.302 103.803 215.516 104.022 240.726 104.114C251.846 104.155 262.972 103.812 274.097 103.844C284.575 103.876 295.034 104.406 305.448 105.704C314.316 106.805 323.053 108.519 331.62 111.078C338.291 113.07 344.765 115.542 350.861 118.951C351.313 119.202 351.746 119.49 352.188 119.764C315.274 112.037 278.191 109.2 240.703 113.207C237.443 113.554 234.205 114.139 230.959 114.619C230.968 114.779 230.977 114.939 230.986 115.099C230.986 115.099 236.695 115.469 238.587 115.688V115.693Z" fill="black"/>
<path d="M0 135.488C2.61262 134.885 5.207 134.19 7.84241 133.687C22.6016 130.891 37.5296 130.155 52.5031 130.228C63.1132 130.279 73.6503 131.32 84.0506 133.5C90.3564 134.821 96.6942 136.05 102.936 137.635C114.672 140.619 126.14 144.476 137.402 148.949C149.174 153.629 160.988 158.221 172.825 162.74C177.498 164.527 182.286 166.007 187.023 167.629C187.251 167.707 187.47 167.817 187.675 168.118C187.365 168.16 187.055 168.224 186.741 168.233C176.787 168.42 166.847 168.128 156.953 166.99C146.307 165.77 135.815 163.617 125.438 160.985C111.763 157.517 98.1259 153.889 84.5202 150.147C75.4148 147.643 66.4416 144.654 57.3317 142.168C46.6669 139.262 35.8425 137.133 24.7993 136.173C18.0056 135.584 11.2301 135.607 4.43643 135.904C2.97282 135.968 1.50921 135.913 0.0455954 135.913C0.0319168 135.766 0.0136786 135.62 0 135.479V135.488Z" fill="black"/>
<path d="M231.748 177.143C227.995 178.308 224.275 179.602 220.481 180.607C210.054 183.376 199.402 184.546 188.633 184.911C174.858 185.382 161.276 184.034 147.843 181.014C140.676 179.405 133.75 177.07 127.111 173.913C126.705 173.721 126.308 173.51 125.925 173.172C161.002 179.496 196.297 178.683 231.638 176.636C231.675 176.805 231.711 176.974 231.748 177.143Z" fill="black"/>
<path d="M339.859 130.845C333.786 132.655 327.767 134.661 321.625 136.237C304.737 140.578 287.456 142.548 269.966 143.329C247.597 144.33 225.497 142.625 203.615 138.44C191.938 136.205 180.64 132.892 169.788 128.346C169.127 128.067 168.48 127.765 167.846 127.272C224.963 135.894 282.299 133.911 339.677 130.096C339.74 130.347 339.8 130.594 339.864 130.845H339.859Z" fill="black"/>
</svg>
