<svg width="502" height="125" viewBox="0 0 502 125" fill="none" xmlns="http://www.w3.org/2000/svg">
<path d="M86.0986 0V3.9248H85.6084C85.1178 3.9248 84.3818 4.04784 83.7686 4.04785C82.6649 4.17048 79.3541 4.66092 78.7402 4.90625C74.9381 6.13273 71.8714 8.46309 70.1543 11.5293C69.4185 13.001 68.9277 14.5955 68.9277 16.3125V88.1846C68.9277 91.9866 68.192 96.0342 66.5977 100.204C65.1259 104.497 62.9181 108.298 59.9746 111.732C56.5406 115.534 52.4935 118.601 47.833 120.809C43.0497 123.016 37.775 124.12 31.6426 124.12C22.3215 124.12 14.7171 121.422 8.83008 116.148C2.94298 110.997 0 103.883 0 94.9297C4.17206e-05 91.005 1.10407 87.571 3.06641 84.5049C5.02875 81.4388 7.97188 79.9668 11.8965 79.9668C15.3305 79.9668 18.1513 80.948 20.2363 82.9102C22.3213 84.7499 23.4258 87.3258 23.4258 90.5146C23.4258 92.3543 23.0572 94.1945 22.3213 96.0342C21.4629 97.8736 20.7271 99.4679 19.7461 100.939C18.8876 102.289 17.9066 103.884 16.8027 105.601C15.6991 107.44 14.9632 109.034 14.4727 110.506C15.6991 112.346 17.5386 114.063 20.1143 115.412C22.6899 116.884 26.1244 117.62 30.417 117.62C34.7094 117.62 38.1437 116.639 40.8418 114.677C43.54 112.837 45.5024 110.261 46.8516 107.072C48.078 104.006 48.9366 100.326 49.5498 95.9111C50.0404 91.6186 50.4082 86.7128 50.4082 81.3164V16.3125C50.4082 14.5955 49.9175 13.001 49.1816 11.5293C47.4646 8.46319 44.3986 6.13276 40.5967 4.90625C39.9834 4.66095 36.6712 4.04785 35.5674 4.04785C34.954 4.0478 33.7275 3.9248 33.7275 3.9248H33.2373V0H86.0986ZM482.129 96.5244V58.8721C482.129 55.6833 482.007 52.4942 482.007 49.5508C482.007 46.7301 481.639 44.5221 481.025 42.9277C480.29 40.8427 479.062 39.248 477.223 38.0215C475.26 36.7951 472.44 35.8138 468.761 35.3232L467.411 35.0781V31.0303L467.901 31.1533H501.508V35.4463H500.158C497.337 35.8142 495.007 36.5501 493.413 37.5312C491.819 38.5124 490.592 39.9843 489.733 42.0693C489.366 42.9279 488.997 44.5222 488.752 48.4463C488.629 51.7578 488.384 55.3151 488.262 59.1172C488.016 62.6739 487.893 66.8438 487.771 71.627C487.525 76.4102 487.525 81.5619 487.525 87.0811V120.563C487.525 121.299 487.28 121.913 486.79 122.403C486.422 122.771 485.808 123.14 484.827 123.14C483.723 123.14 482.619 122.526 481.516 121.422C474.525 113.327 468.147 105.968 462.383 99.2227L445.948 79.9668C440.674 73.8345 435.646 67.8249 430.617 62.0605C426.447 57.1546 422.031 52.1258 417.493 46.9746V94.9307C417.493 99.1005 417.493 102.902 417.738 106.214C417.861 109.28 418.352 111.61 419.088 113.082C419.824 114.676 421.05 115.903 422.645 116.639C424.484 117.497 426.937 118.233 430.126 118.724H431.476V122.895H398.115V118.602H399.464C401.304 118.356 403.144 117.866 404.983 117.13C406.578 116.394 407.927 115.413 408.908 113.818C409.889 112.224 410.625 109.893 410.87 106.827C411.238 103.516 411.484 99.4682 411.606 94.8076C411.729 91.2509 411.975 87.081 411.975 82.2979C412.097 77.5146 412.097 72.3629 412.097 66.8438V51.8809C412.097 50.1638 411.975 48.2014 411.975 45.8711C411.852 43.7862 411.239 42.0688 410.503 40.7197C409.644 39.3706 408.663 38.3892 407.682 37.6533C406.578 36.9175 405.351 36.4275 404.125 36.0596C402.776 35.6916 401.427 35.446 400.2 35.0781H398.851V30.9082H426.079L482.129 96.5244ZM393.578 35.0781L392.229 35.3232C390.635 35.5685 388.795 36.0586 386.955 36.6719C385.361 37.1625 384.134 38.2669 383.275 39.8613C382.662 41.0877 382.295 42.6821 382.295 44.5215C382.295 46.6064 382.172 48.569 382.172 50.5312V103.761C382.172 106.091 382.295 108.421 382.295 110.629C382.418 113.082 382.908 114.064 383.153 114.432C383.889 115.658 385.239 116.517 387.078 117.13H386.71C388.672 117.743 390.512 118.233 392.106 118.479H393.456V122.648H353.104V118.602L354.453 118.356C356.415 118.111 358.255 117.62 359.85 116.884C361.321 116.271 362.671 115.29 363.774 114.063C363.897 113.818 364.142 113.45 364.388 112.592C364.633 111.733 364.879 110.629 364.879 109.525C365.124 108.299 365.124 107.073 365.124 105.724V101.799C365.124 100.695 365.246 99.1001 365.369 97.1377V47.9561C365.369 46.607 365.246 45.2577 365.246 44.0312C365.123 42.9276 365.001 41.8239 364.756 40.8428C364.633 40.1069 364.388 39.493 364.021 39.125C363.039 37.8985 361.935 37.0404 360.463 36.5498C358.869 36.0592 357.029 35.5681 355.066 35.2002H353.718V31.0303H393.578V35.0781ZM122.891 30.0498C125.344 36.7954 127.796 43.0509 130.004 49.0605C132.334 55.1928 134.542 61.08 136.627 66.7217C138.712 72.3635 140.797 77.8834 142.76 83.1572C144.722 88.4308 146.684 93.7045 148.646 98.8555C149.505 101.431 150.364 103.517 151.1 105.111L153.798 110.875C153.92 111.12 154.289 111.612 154.779 112.348C155.27 112.961 156.006 113.819 156.864 114.555C157.6 115.291 158.704 115.904 159.931 116.518C160.912 117.008 162.261 117.253 163.609 117.376C164.959 117.131 166.431 116.885 167.657 116.395C169.374 115.904 170.6 115.045 171.459 113.941C171.704 113.696 171.95 113.329 172.195 112.348C172.441 111.489 172.686 110.385 172.686 109.281C172.808 108.055 172.931 106.706 172.931 105.356V101.432C172.931 100.328 173.053 98.7329 173.176 96.7705V47.5889C173.176 46.1171 173.053 44.768 172.931 43.4189C172.808 42.1925 172.563 40.9656 172.317 39.9844C172.072 38.881 171.705 38.3903 171.582 38.2676C170.601 37.1637 169.374 36.4275 168.147 36.0596C166.676 35.6917 164.958 35.324 162.751 34.9561L161.402 34.7109V30.6631H196.603C201.999 30.6631 207.028 30.7864 211.32 31.1543C215.735 31.5223 219.906 32.7486 223.585 34.7109C227.387 36.6733 230.576 39.4946 232.906 42.9287C235.236 46.3628 236.463 50.9007 236.463 56.0518C236.463 59.3632 235.85 62.3072 234.623 64.8828C233.397 67.4583 231.802 69.7887 229.84 71.751C227.878 73.7133 225.547 75.4302 222.972 76.7793C221.255 77.6378 219.415 78.4965 217.575 79.2324C218.311 79.7229 219.047 80.4586 219.782 81.1943C221.131 82.5434 222.481 84.2606 223.707 85.9775C225.915 89.0437 228.245 92.4784 230.698 96.0352C233.274 99.5919 235.482 102.781 237.444 105.602C240.388 109.649 243.208 112.715 245.906 114.555C248.236 116.149 251.058 117.131 254.001 117.744C255.35 117.499 256.823 117.253 258.172 116.64C259.889 115.904 261.115 115.046 261.974 114.064C262.096 113.819 262.342 113.574 262.587 112.593C262.71 111.612 262.955 110.63 263.077 109.403C263.2 108.177 263.445 106.951 263.445 105.602V101.677C263.445 100.573 263.568 98.9787 263.69 97.0166V47.834C263.69 46.4849 263.568 45.1356 263.568 43.9092C263.446 42.8054 263.322 41.7018 263.077 40.7207C262.955 39.985 262.71 39.3719 262.342 39.0039C261.238 37.7774 260.011 36.9183 258.539 36.4277C256.945 35.8146 255.105 35.447 253.021 35.0791H251.671V30.9092H299.381C302.079 30.9092 304.9 31.0311 307.599 31.2764C310.419 31.5217 313.24 31.8897 315.938 32.5029C318.759 33.1162 321.581 33.9747 324.279 35.2012C327.836 36.7956 331.147 38.7586 334.336 41.0889C337.402 43.5418 340.223 46.3624 342.554 49.6738L342.676 48.9385C345.006 52.25 346.969 56.0521 348.318 60.3447C349.667 64.6373 350.403 69.5435 350.403 75.0625C350.403 81.3174 349.544 86.959 348.072 91.7422C346.6 96.5255 344.516 100.819 341.817 104.253C339.242 107.687 336.053 110.631 332.619 112.961C329.185 115.291 325.383 117.13 321.581 118.479C317.656 119.829 313.609 120.81 309.562 121.301C305.514 121.914 301.466 122.159 297.664 122.159H229.227L228.736 121.669C227.878 120.933 227.386 120.319 227.019 119.951C226.651 119.583 226.283 119.093 225.915 118.603C225.547 117.989 224.934 117.254 224.32 116.272C223.707 115.414 222.849 113.941 221.5 112.102C219.906 109.771 218.557 107.686 217.33 105.847C216.226 104.007 214.999 102.29 213.772 100.45C212.546 98.7332 211.319 96.8933 209.848 95.0537C208.499 93.2141 206.782 91.252 204.819 88.9219C203.225 87.0822 201.508 85.3649 199.668 83.7705C197.951 82.2987 196.111 81.4402 194.271 81.0723C190.96 80.3364 190.837 80.5811 189.733 80.5811V102.78C189.856 105.356 189.979 107.687 189.979 109.526C190.102 111.121 190.47 112.47 191.083 113.451C191.451 114.187 192.31 115.046 194.395 116.272C195.989 117.253 198.442 117.744 201.508 117.989H202.979V122.159H126.57V117.866H128.042C128.165 117.866 128.778 117.744 129.514 117.621C130.372 117.498 131.231 117.253 132.212 116.885C133.07 116.517 133.806 116.026 134.419 115.413C134.91 114.922 135.155 114.432 135.155 113.696C135.155 113.328 135.032 112.47 134.542 110.508C134.174 108.913 133.561 106.828 132.702 104.498C131.844 102.045 130.986 99.3467 129.882 96.4033C128.901 93.8277 127.919 91.0064 126.815 88.1855H96.1533C95.0495 91.0064 93.945 93.5817 92.9639 96.1572C91.86 98.9781 90.6341 101.922 89.5303 104.743C87.5682 110.016 87.0773 112.469 87.0771 113.573C87.0771 114.309 87.3225 114.8 87.6904 115.168C88.3037 115.659 88.9169 116.15 89.7754 116.518C90.6339 116.885 91.615 117.131 92.7188 117.376C93.8225 117.499 94.9265 117.744 96.0303 117.866L97.3799 118.111V122.159H68.0664V117.744H69.416C71.378 117.621 72.9723 117.008 74.3213 116.272C76.161 115.169 76.5293 114.8 76.5293 114.8C76.8973 114.309 77.6333 113.45 79.2275 110.875C80.454 108.79 82.049 105.724 83.8887 101.554C85.6057 97.7517 87.5674 93.3364 89.6523 88.4307L96.2754 73.2227C98.6057 68.0714 100.814 62.7973 103.021 57.5234C105.106 52.4949 107.192 47.7112 109.031 43.2959L107.437 39.7393L108.908 39.126C110.257 38.5128 111.484 37.7774 112.588 36.9189C113.692 36.0605 114.673 35.2017 115.531 34.2207C116.267 33.2397 117.003 32.3808 117.616 31.5225C118.224 30.6717 118.953 29.4593 118.966 29.4375L119.456 28.7012H122.399L122.891 30.0498ZM298.4 36.4277C295.948 36.1824 292.636 35.9374 288.221 36.1826C287.117 36.1826 286.013 36.4277 284.909 36.4277C283.805 36.673 282.824 36.7959 281.843 36.7959H280.861C280.493 40.598 280.248 45.7492 280.248 52.127V102.167C280.248 103.271 280.371 104.498 280.371 105.847C280.494 107.196 280.616 108.545 280.738 109.771C280.861 110.875 281.107 111.979 281.475 112.838C281.843 113.819 282.211 114.309 282.456 114.555C283.928 115.904 285.645 116.885 287.853 117.253C292.636 118.111 296.806 117.989 300.854 117.621C302.938 117.376 304.9 117.008 306.617 116.518C315.08 114.065 321.458 109.281 325.628 102.29H325.383C329.675 95.1765 331.761 86.3459 331.761 75.9209C331.761 71.3829 331.148 66.8444 329.676 62.5518C328.327 58.2591 326.364 54.3341 323.788 50.7773C321.335 47.2207 318.269 44.2771 314.835 41.8242C311.523 39.4939 307.721 37.8999 303.674 37.1641C302.08 36.9188 300.363 36.673 298.4 36.4277ZM111.853 50.6553C111.607 51.1459 111.362 51.6368 111.116 52.25C110.135 54.4576 109.031 57.2785 107.56 60.5898C106.088 63.9013 104.615 67.581 102.898 71.751L98.2383 83.1572H124.485C123.382 80.2138 122.155 77.1475 121.051 74.2041C119.579 70.5247 118.23 66.8447 116.881 63.5332C115.532 60.2217 114.305 57.0328 113.201 54.2119C112.711 52.8629 112.22 51.759 111.853 50.6553ZM201.876 36.4277C198.074 35.6918 193.658 35.6922 191.205 35.9375H189.979V36.1826C189.857 36.5506 189.856 36.9186 189.856 37.4092V39.7393L189.611 44.1553C189.366 46.976 189.366 50.2872 189.366 53.8438V76.2891C192.064 76.2891 194.64 76.1662 197.093 75.9209C199.914 75.6756 202.612 75.0626 205.188 74.2041C207.763 73.4682 209.848 72.4868 211.565 71.1377C213.282 69.7886 214.754 68.3161 215.857 66.7217L215.612 66.8447C216.716 65.2504 217.575 63.4109 218.065 61.5713C218.679 59.609 218.924 57.6464 218.924 55.5615C218.924 51.7594 217.943 48.3244 216.104 45.3809C214.264 42.4374 211.442 39.9846 207.763 38.2676C205.923 37.4091 203.961 36.7957 201.876 36.4277Z" fill="black"/>
</svg>
