<svg width="929" height="428" viewBox="0 0 929 428" fill="none" xmlns="http://www.w3.org/2000/svg">
<path d="M467.879 92.2194C439.359 92.2194 410.839 92.2194 382.323 92.2194C382.095 92.2194 381.863 92.1874 381.639 92.2194C380.623 92.361 380.367 91.8949 380.358 90.9171C380.272 82.5915 380.978 74.3801 383.021 66.2647C386.655 51.8297 393.572 39.2225 403.575 28.274C410.57 20.6247 418.718 14.4651 427.896 9.69453C435.834 5.56829 444.219 2.6621 453.046 1.23185C466.502 -0.947792 479.82 -0.285217 492.942 3.62169C506.48 7.65197 518.312 14.5839 528.53 24.3169C537.694 33.0491 544.515 43.3762 549.262 55.0786C553.899 66.5115 555.828 78.4469 555.54 90.7663C555.508 92.1645 555.499 92.1782 553.894 92.1782C527.504 92.1828 501.109 92.1874 474.718 92.1919C472.438 92.1919 470.163 92.1919 467.883 92.1919V92.2102L467.879 92.2194Z" fill="black"/>
<path d="M643.945 145.481C641.533 146.962 639.153 148.497 636.705 149.914C628.949 154.401 620.692 157.737 612.174 160.437C601.843 163.713 591.274 165.911 580.559 167.502C567.331 169.462 554.036 170.102 540.694 169.604C527.818 169.124 515.07 167.538 502.435 164.911C489.897 162.301 477.846 158.203 466.046 153.327C454.123 148.401 442.313 143.196 430.331 138.421C422.019 135.109 413.552 132.152 405.062 129.324C393.636 125.517 381.968 122.593 370.14 120.313C361.445 118.636 352.686 117.543 343.85 116.981C333.258 116.305 322.68 116.428 312.111 117.333C308.144 117.671 304.187 118.183 300.229 118.608C299.86 118.649 299.486 118.658 299.03 118.489C299.249 118.352 299.449 118.179 299.682 118.078C308.828 114.075 318.33 111.26 328.138 109.396C342.295 106.705 356.562 106.12 370.884 107.226C376.692 107.673 382.474 108.697 388.228 109.679C396.846 111.155 405.226 113.623 413.52 116.364C423.004 119.499 432.232 123.292 441.278 127.523C453.89 133.427 466.461 139.436 479.638 144.014C488.962 147.259 498.441 149.968 508.053 152.235C516.146 154.145 524.294 155.74 532.528 156.887C541.789 158.18 551.099 158.801 560.442 159.062C569.638 159.318 578.817 159.002 587.968 158.084C598.209 157.056 608.354 155.42 618.366 152.993C626.71 150.969 634.867 148.337 642.933 145.413C643.207 145.312 643.489 145.239 643.767 145.152C643.827 145.262 643.886 145.372 643.945 145.477V145.481Z" fill="black"/>
<path d="M523.532 115.693C535.779 117.114 553.758 118.946 553.42 119.056C551.264 119.769 549.107 120.514 546.9 121.012C537.042 123.242 516.689 124.612 504.515 124.471C456.307 123.913 444.689 118.366 444.689 118.366C445.546 117.918 446.522 117.649 447.475 117.438C453.963 116.017 460.451 114.61 466.953 113.244C468.731 112.869 470.541 112.654 472.365 112.206C471.923 112.165 471.485 112.097 471.043 112.087C464.705 111.991 458.367 111.85 452.025 111.827C442.555 111.79 433.099 111.48 423.838 109.364C415.927 107.555 408.103 105.347 400.247 103.314C400.005 103.25 399.777 103.131 399.568 102.775C399.955 102.775 400.343 102.766 400.73 102.775C410.447 102.994 420.163 103.241 429.879 103.419C436.6 103.543 443.316 103.575 450.037 103.625C475.247 103.803 500.461 104.022 525.671 104.114C536.792 104.155 547.917 103.812 559.042 103.844C569.52 103.876 579.98 104.406 590.393 105.704C599.262 106.805 607.998 108.519 616.565 111.078C623.236 113.07 629.71 115.542 635.807 118.951C636.258 119.202 636.691 119.49 637.133 119.764C600.219 112.037 563.137 109.2 525.648 113.207C522.388 113.554 519.151 114.139 515.904 114.619C515.913 114.779 515.923 114.939 515.932 115.099C515.932 115.099 521.64 115.469 523.532 115.688V115.693Z" fill="black"/>
<path d="M284.945 135.488C287.558 134.885 290.152 134.19 292.788 133.687C307.547 130.891 322.475 130.155 337.448 130.228C348.058 130.279 358.596 131.32 368.996 133.5C375.302 134.821 381.639 136.05 387.882 137.635C399.618 140.619 411.085 144.476 422.347 148.949C434.12 153.629 445.934 158.221 457.77 162.74C462.444 164.527 467.231 166.007 471.969 167.629C472.197 167.707 472.415 167.817 472.621 168.118C472.31 168.16 472 168.224 471.686 168.233C461.732 168.42 451.793 168.128 441.898 166.99C431.252 165.77 420.76 163.617 410.383 160.985C396.709 157.517 383.071 153.889 369.466 150.147C360.36 147.643 351.387 144.654 342.277 142.168C331.612 139.262 320.788 137.133 309.745 136.173C302.951 135.584 296.175 135.607 289.382 135.904C287.918 135.968 286.455 135.913 284.991 135.913C284.977 135.766 284.959 135.62 284.945 135.479V135.488Z" fill="black"/>
<path d="M516.693 177.143C512.941 178.308 509.22 179.602 505.426 180.607C494.999 183.376 484.348 184.546 473.578 184.911C459.804 185.382 446.221 184.034 432.788 181.014C425.621 179.405 418.695 177.07 412.056 173.913C411.65 173.721 411.254 173.51 410.871 173.172C445.947 179.496 481.243 178.683 516.584 176.636C516.62 176.805 516.657 176.974 516.693 177.143Z" fill="black"/>
<path d="M624.804 130.845C618.731 132.655 612.713 134.661 606.571 136.237C589.682 140.578 572.402 142.548 554.911 143.329C532.542 144.33 510.442 142.625 488.561 138.44C476.884 136.205 465.585 132.892 454.734 128.346C454.072 128.067 453.425 127.765 452.791 127.272C509.909 135.894 567.245 133.911 624.622 130.096C624.686 130.347 624.745 130.594 624.809 130.845H624.804Z" fill="black"/>
<path d="M568.56 408.273V408.293C567.45 407.463 566.24 406.783 564.95 406.253C563.64 405.733 562.37 405.323 561.13 405.023L557.34 404.033C556.59 403.853 555.81 403.613 554.98 403.303C554.15 403.023 553.39 402.633 552.68 402.193C551.97 401.753 551.39 401.183 550.96 400.523C550.54 399.853 550.31 399.073 550.31 398.143C550.31 397.053 550.61 396.063 551.26 395.193C551.91 394.343 552.79 393.663 553.97 393.153C555.14 392.653 556.51 392.403 558.11 392.403C560.33 392.403 562.17 392.903 563.64 393.893C565.11 394.883 565.94 396.273 566.14 398.073V397.973H571.79C571.75 395.893 571.14 394.063 569.97 392.443C568.8 390.833 567.23 389.583 565.21 388.653C563.19 387.723 560.85 387.263 558.25 387.263C555.65 387.263 553.33 387.723 551.25 388.653C549.17 389.583 547.54 390.873 546.32 392.543C545.11 394.213 544.5 396.153 544.5 398.393C544.5 401.093 545.41 403.273 547.22 404.913C549.02 406.543 551.48 407.793 554.59 408.643L559.17 409.893C560.54 410.253 561.81 410.683 562.9 411.163C563.99 411.643 564.88 412.253 565.52 412.983C566.17 413.713 566.49 414.653 566.49 415.803C566.49 417.073 566.13 418.183 565.38 419.113C564.63 420.063 563.6 420.783 562.31 421.313C561.02 421.833 559.54 422.103 557.89 422.103C556.4 422.103 555 421.883 553.75 421.433C552.5 420.993 551.47 420.303 550.66 419.373C549.85 418.443 549.41 417.293 549.29 415.883H543.41C543.55 418.223 544.22 420.243 545.41 421.933C546.62 423.623 548.28 424.943 550.4 425.863C552.52 426.793 554.9 427.253 557.93 427.253C560.96 427.253 563.54 426.773 565.68 425.783C567.82 424.793 569.46 423.443 570.59 421.753C571.72 420.063 572.29 418.103 572.29 415.903C572.29 414.173 571.95 412.673 571.26 411.423C570.57 410.173 569.67 409.123 568.56 408.273Z" fill="black"/>
<path d="M83.07 280.833H83.09L83.96 280.903C90.7 281.483 95.18 283.283 97.65 286.063V286.083C99.5 288.043 100.63 290.543 101.02 293.673C101.43 296.923 101.62 300.583 101.62 304.683C101.62 308.783 101.4 312.733 100.92 316.583C100.43 320.463 99.74 322.993 98.93 324.323C96.2 328.503 92.51 331.523 87.81 333.383C83.03 335.273 77.89 336.223 72.34 336.223C64.58 336.223 57.7 334.753 51.73 331.823C45.92 328.973 40.98 325.013 36.9 319.953L36.51 319.463C32.62 314.473 29.56 308.533 27.38 301.643L26.96 300.253C24.76 292.743 23.64 284.443 23.64 275.343C23.64 267.093 24.8 259.183 27.12 251.693C29.44 244.183 32.75 237.573 37.04 231.843C41.32 226.123 46.53 221.563 52.66 218.153C58.75 214.763 65.59 213.063 73.23 213.063C80.42 213.063 86.88 214.293 92.65 216.713C98.45 219.143 103.15 222.323 106.82 226.203C109.51 229.003 112.07 232.533 114.49 236.793L114.97 237.653C117.52 242.303 119.43 247.213 120.71 252.443L120.89 253.173H124.72V212.763H121.71L121.42 213.133C119.88 215.133 118.58 216.833 117.52 218.263C117 218.963 116.6 219.463 116.31 219.783C116.28 219.823 116.24 219.853 116.22 219.883C116.11 219.823 115.97 219.753 115.8 219.663C115.26 219.363 114.5 218.913 113.5 218.293L112.68 217.813C110.69 216.683 108.06 215.453 104.78 214.153C101.02 212.663 96.4 211.283 90.95 210.053C85.45 208.783 79.14 208.173 72.01 208.173C60.15 208.173 50 209.873 41.61 213.283C33.52 216.573 26.64 220.913 20.98 226.293L20.44 226.813C16.37 230.753 12.99 234.923 10.3 239.353C7.6 243.763 5.51 248.133 4.02 252.433C2.54 256.733 1.49 260.833 0.89 264.713C0.3 268.563 0 272.013 0 275.013C0 285.123 1.66 294.273 4.94 302.483C8.22 310.663 12.95 317.603 19.14 323.313C25.33 329.023 32.89 333.313 41.85 336.243C50.8 339.163 60.92 340.623 72.19 340.623C77.91 340.623 83.63 340.033 89.35 338.843C95.04 337.663 100.26 336.203 104.96 334.473C109.64 332.753 113.64 331.053 116.91 329.393C120.12 327.763 122.26 326.543 123.19 325.743L123.52 325.453V299.223C123.52 296.523 123.57 293.843 123.69 291.143L123.72 290.653C123.87 288.273 124.31 286.633 124.96 285.613C125.87 284.203 127.37 283.093 129.57 282.383L130.23 282.173V282.153C132.28 281.533 134.18 281.123 135.93 280.903L136.77 280.803V277.243H83.07V280.833Z" fill="black"/>
<path d="M244.69 251.833L244.73 251.813V248.803H212.14V251.803L212.95 251.923C216.82 252.503 219.64 253.473 221.5 254.793C223.35 256.123 224.65 257.853 225.42 259.973V259.993C225.7 260.723 225.93 261.723 226.1 263.053C226.27 264.373 226.39 265.813 226.46 267.363C226.56 268.923 226.61 270.543 226.65 272.283C226.72 274.013 226.72 275.683 226.72 277.323V298.343C226.72 301.103 226.6 303.943 226.4 306.863C226.18 309.733 225.77 312.573 225.17 315.323C224.57 318.033 223.65 320.593 222.41 322.993C221.19 325.353 219.53 327.463 217.44 329.263C215.38 331.073 212.78 332.483 209.62 333.533C206.49 334.563 202.6 335.103 197.97 335.103C193.93 335.103 190.39 334.463 187.32 333.153C184.24 331.833 181.64 329.983 179.51 327.573C177.37 325.153 175.69 322.213 174.51 318.743L174.29 318.083C173.29 314.993 172.73 311.603 172.6 307.893L172.58 307.093C172.58 305.113 172.55 303.223 172.51 301.453L172.47 300.123C172.44 298.793 172.44 297.413 172.44 295.973V271.353C172.44 269.793 172.46 268.193 172.51 266.563C172.56 264.933 172.63 263.063 172.71 260.903C172.8 259.123 173.19 257.723 173.83 256.643C174.49 255.513 175.3 254.673 176.24 254.053C177.24 253.423 178.34 252.923 179.55 252.633C180.85 252.323 182.07 252.083 183.19 251.913L184 251.793V248.793H145.22V251.823L146.06 251.923C148.15 252.163 149.99 252.583 151.6 253.173C153.12 253.723 154.4 254.643 155.45 255.913V255.933C155.84 256.363 156.15 257.013 156.38 257.953C156.61 258.963 156.8 260.073 156.92 261.293C157.04 262.533 157.11 263.873 157.11 265.333V286.233C157.11 290.753 157.09 294.863 157.04 298.573C156.97 302.303 156.97 305.323 156.97 307.623C156.97 308.633 157.05 310.153 157.17 312.173C157.27 314.293 157.71 316.603 158.43 319.073C159.14 321.583 160.25 324.123 161.73 326.693C163.24 329.333 165.36 331.723 168.08 333.893C170.84 336.093 174.31 337.803 178.48 339.073C182.69 340.353 187.71 340.973 193.79 340.973C199.87 340.973 205.04 340.333 209.3 339.023C213.51 337.723 217 335.933 219.76 333.663C222.49 331.413 224.6 328.903 226.11 326.083C227.59 323.353 228.67 320.583 229.35 317.833C230.02 315.093 230.43 312.513 230.55 310.043C230.67 307.663 230.8 305.653 230.87 304.093V304.073C231.04 298.563 231.19 293.623 231.31 289.243C231.43 284.893 231.55 280.923 231.63 277.363V277.343C231.63 275.473 231.68 273.553 231.75 271.633C231.82 269.713 231.94 267.903 232.11 266.183C232.24 264.893 232.38 263.723 232.52 262.673L232.67 261.653C232.89 260.343 233.09 259.513 233.29 259.043C234.21 256.803 235.5 255.193 237.07 254.163L237.79 253.693C239.34 252.873 241.34 252.283 243.87 251.943L244.69 251.833Z" fill="black"/>
<path d="M927.58 336.553H927.49C923.75 335.983 920.5 334.763 917.75 332.873C914.99 330.973 912.1 327.943 909.07 323.713C907.11 320.923 904.86 317.703 902.34 314.083C899.84 310.463 897.52 307.083 895.36 303.953V303.933L894.87 303.283C893.75 301.773 892.61 300.393 891.42 299.143C890.47 298.143 889.48 297.283 888.47 296.593C890.69 295.783 892.82 294.833 894.88 293.743C897.43 292.383 899.66 290.733 901.59 288.803C903.53 286.863 905.09 284.613 906.24 282.093C907.4 279.533 907.99 276.653 907.99 273.473C907.99 268.393 906.86 264.073 904.49 260.623C902.17 257.233 899.11 254.563 895.36 252.583C891.69 250.633 887.64 249.473 883.23 249.153C878.92 248.833 874 248.663 868.44 248.663H859.77C856.22 248.663 852.66 248.683 849.11 248.733C845.57 248.803 842.4 248.803 839.61 248.803H833.59V251.803L834.41 251.923C836.61 252.233 838.44 252.623 839.9 253.063C841.24 253.473 842.47 254.253 843.62 255.473C843.91 255.783 844.21 256.303 844.46 257.123L844.57 257.493C844.85 258.553 845.03 259.723 845.15 261.053C845.27 262.403 845.34 263.823 845.39 265.333V265.353C845.46 266.843 845.46 268.313 845.46 269.813V301.103C845.46 303.573 845.44 305.983 845.39 308.323C845.34 310.683 845.32 312.813 845.27 314.793C845.2 316.793 845.2 318.373 845.2 319.523C845.2 320.833 845.18 322.153 845.08 323.543C844.98 324.963 844.89 326.273 844.76 327.473C844.64 328.683 844.45 329.763 844.22 330.683C843.99 331.633 843.72 332.203 843.44 332.523V332.543C842.49 333.703 841.16 334.593 839.41 335.203C839.18 335.283 838.96 335.363 838.73 335.433C835.62 336.443 832.27 336.583 829.13 335.673C828.73 335.563 828.39 335.443 828.15 335.333C826.84 334.713 825.74 333.983 824.87 333.193C823.97 332.343 823.26 331.563 822.72 330.793C822.15 329.983 821.81 329.433 821.66 329.163C820.67 327.043 819.81 325.123 819 323.443C818.21 321.803 817.39 319.703 816.49 317.173V317.153L815 313.253C814.51 311.953 814.01 310.643 813.51 309.323L810.54 301.403C808.56 296.073 806.53 290.563 804.42 284.893C802.31 279.213 800.11 273.293 797.81 267.153C795.51 261.013 793.06 254.533 790.51 247.683L790.28 247.063H788.07L787.8 247.563C787.51 248.103 787.05 248.793 786.43 249.713C785.85 250.573 785.12 251.493 784.24 252.433C783.37 253.373 782.36 254.283 781.21 255.163C780.07 256.023 778.81 256.773 777.38 257.403L776.5 257.793L777.95 261.003C776.01 265.523 773.96 270.343 771.79 275.533C769.56 280.863 767.34 286.123 765.06 291.353C762.81 296.593 760.6 301.683 758.45 306.623C756.3 311.593 754.36 315.993 752.63 319.853C750.75 324.043 749.16 327.163 747.86 329.263C746.53 331.433 745.65 332.683 745.16 333.173L745.1 333.233L745.05 333.293C745.05 333.293 745 333.343 744.91 333.423C744.8 333.513 744.64 333.633 744.43 333.783C744.01 334.073 743.42 334.443 742.67 334.893C742.27 335.133 741.84 335.343 741.39 335.533C739.49 336.343 737.38 336.533 735.34 336.253C734.37 336.113 733.32 335.943 732.78 335.743C731.34 335.223 730.18 334.653 729.29 334.013C728.34 333.323 727.65 332.713 727.17 332.173C726.9 331.873 726.7 331.633 726.56 331.453C726.49 331.363 726.44 331.303 726.41 331.253C726.41 331.233 726.39 331.223 726.39 331.223L726.37 331.173L726.22 330.873C725.87 330.123 725.59 329.093 725.43 327.743L725.36 327.143C725.2 325.773 725.12 324.423 725.12 323.093C725.05 318.213 725 313.613 725 309.243V284.623C725 280.913 725.05 277.103 725.12 273.143C725.19 270.263 725.32 267.343 725.49 264.393C725.64 261.463 725.97 259.373 726.41 258.103C727 256.483 728.08 255.063 729.73 253.843C731.3 252.683 733.65 251.993 736.92 251.923L737.85 251.903V248.793H709.89L709.66 249.413C709.43 250.043 708.41 252.433 706.64 256.613C704.85 260.773 702.6 265.983 699.84 272.243C697.07 278.503 693.96 285.503 690.49 293.253C687.3 300.373 684.04 307.513 680.73 314.693L651.75 248.793H623.83V251.773L624.62 251.903C625.59 252.073 626.76 252.333 628.14 252.693C629.46 253.033 630.68 253.573 631.81 254.343C632.92 255.093 633.9 256.123 634.75 257.463C635.49 258.653 635.97 260.223 636.08 262.213L636.1 262.613C636.17 265.013 636.22 267.023 636.22 268.653V284.243C636.22 289.763 636.17 294.923 636.1 299.743C636.03 304.553 635.9 308.733 635.73 312.263V312.293C635.66 316.473 635.37 319.973 634.89 322.843C634.41 325.703 633.66 328.043 632.64 329.903C631.64 331.723 630.31 333.143 628.64 334.173C628.41 334.323 628.16 334.463 627.91 334.603C625.48 335.903 622.68 336.333 619.98 335.783C619.34 335.653 618.77 335.523 618.41 335.343C617.1 334.723 616.01 333.993 615.13 333.213C614.23 332.353 613.51 331.573 612.98 330.813C612.41 330.013 612.07 329.463 611.92 329.193C610.93 327.073 610.07 325.153 609.26 323.473C608.47 321.833 607.66 319.733 606.75 317.203V317.183L605.26 313.283C603.77 309.373 602.29 305.413 600.8 301.433C598.82 296.103 596.78 290.593 594.68 284.913C592.57 279.233 590.37 273.313 588.07 267.173C585.77 261.033 583.32 254.553 580.77 247.703L580.54 247.083H578.33L578.06 247.583C577.77 248.123 577.31 248.813 576.69 249.733C576.11 250.593 575.38 251.513 574.5 252.453C573.63 253.393 572.62 254.303 571.47 255.183C570.33 256.043 569.07 256.793 567.64 257.423L566.76 257.813L568.21 261.023C566.27 265.543 564.22 270.353 562.05 275.543C559.82 280.873 557.6 286.133 555.32 291.363C553.07 296.603 550.86 301.693 548.71 306.633C546.56 311.603 544.62 316.003 542.89 319.863C541.01 324.053 539.42 327.173 538.12 329.273C536.78 331.443 535.91 332.693 535.42 333.183L535.36 333.243L535.31 333.303C535.31 333.303 535.29 333.333 535.17 333.433C535.06 333.523 534.9 333.643 534.69 333.793C534.48 333.943 534.23 334.103 533.94 334.283L532.94 334.893C531.53 335.723 529.85 336.273 527.81 336.503L526.97 336.603V339.773H555.22V336.783L554.42 336.653C553.34 336.483 552.24 336.293 551.02 336.093C549.91 335.913 548.87 335.613 547.93 335.183C546.97 334.753 546.25 334.263 545.69 333.663C545.22 333.153 544.97 332.513 544.97 331.643C544.97 330.033 545.76 327.063 547.49 322.603C548.67 319.713 549.82 316.843 550.97 314.013C552.05 311.353 553.17 308.563 554.31 305.653H585.92C587.08 308.633 588.15 311.533 589.16 314.303C589.7 315.783 590.2 317.193 590.67 318.543L592 322.383C592.8 324.813 593.43 326.853 593.89 328.513C594.35 330.193 594.54 331.313 594.54 331.903C594.54 332.813 594.24 333.513 593.67 334.043C592.99 334.713 592.19 335.213 591.26 335.593C590.3 335.983 589.38 336.233 588.49 336.393C587.52 336.563 587.02 336.623 586.87 336.623H585.92V339.753L655.39 339.703V336.703L654.57 336.583C651.3 336.113 648.77 335.393 646.9 334.453L646.54 334.263C644.69 333.253 643.32 331.843 642.43 330.093L642.26 329.743C641.43 328.013 640.9 325.853 640.67 323.273C640.43 320.473 640.31 317.123 640.31 313.273V297.443C640.31 292.923 640.33 288.613 640.38 284.533C640.43 280.513 640.45 276.293 640.5 272.183C640.55 269.213 640.56 265.903 640.57 262.283L641.03 263.323C642.14 265.873 643.56 269.063 645.3 272.853C647.04 276.643 648.97 280.963 651.12 285.833C653.28 290.703 655.58 295.913 658.05 301.473C660.52 307.023 663.07 312.823 665.66 318.833C668.26 324.853 670.88 330.923 673.52 337.013L673.77 337.583H675.84L676.04 336.903C676.17 336.483 676.56 335.503 677.22 333.973C677.88 332.443 678.6 330.753 679.34 328.873C680.07 327.053 680.82 325.253 681.56 323.473C682.32 321.703 682.88 320.433 683.28 319.633V319.613L683.3 319.593C686.03 313.453 688.52 307.933 690.79 302.833C693.04 297.773 695.29 292.803 697.52 287.943C699.75 283.093 701.98 278.093 704.26 272.983C706.02 269.033 707.91 264.793 709.93 260.263V306.123C709.93 311.053 709.86 316.253 709.69 321.673C709.62 323.293 709.45 324.873 709.21 326.453C708.95 327.993 708.6 329.253 708.16 330.223C707.44 331.713 706.03 333.103 703.74 334.363C701.5 335.593 698.69 336.303 695.24 336.473L694.33 336.513V339.723L765.01 339.753V336.763L764.21 336.633C763.13 336.463 762.03 336.273 760.81 336.073C759.7 335.893 758.66 335.593 757.72 335.163L757.37 334.993C756.58 334.603 755.97 334.163 755.48 333.643C755.01 333.133 754.76 332.493 754.76 331.623C754.76 330.013 755.55 327.043 757.29 322.583C758.46 319.693 759.62 316.823 760.77 313.993C761.85 311.333 762.97 308.543 764.11 305.633H795.72C796.87 308.613 797.95 311.513 798.95 314.283C800.02 317.233 800.95 319.943 801.79 322.363C802.59 324.793 803.22 326.833 803.68 328.493C804.14 330.173 804.33 331.293 804.33 331.883C804.33 332.793 804.03 333.493 803.46 334.023C802.78 334.693 801.98 335.193 801.05 335.573C800.09 335.963 799.17 336.213 798.28 336.373C797.31 336.543 796.81 336.603 796.66 336.603H795.71V339.733L874.43 339.753V336.663L873.52 336.623C870.24 336.483 867.79 335.843 866.05 334.843C864.18 333.743 863.07 332.763 862.53 331.883V331.863L862.51 331.843L862.38 331.643C861.75 330.623 861.37 329.303 861.3 327.643C861.25 326.203 861.18 324.583 861.12 322.753L861.06 320.853C860.99 318.143 860.94 314.823 860.94 310.873V297.913C861.66 297.953 862.3 297.983 862.83 297.983C863.56 297.983 864.68 298.133 866.24 298.453C868.19 298.833 870.1 299.783 871.93 301.333C873.83 302.943 875.6 304.693 877.21 306.543C879.19 308.833 880.89 310.903 882.32 312.743C883.75 314.593 885.09 316.413 886.3 318.203C887.52 320.013 888.74 321.843 889.94 323.693C891.12 325.563 892.53 327.653 894.09 329.953C895.41 331.853 896.38 333.253 896.98 334.193C897.59 335.133 898.13 335.913 898.59 336.453C898.99 336.933 899.38 337.393 899.75 337.783C900.1 338.163 900.65 338.733 901.39 339.473L901.59 339.673H928.39V336.673L927.58 336.553ZM556.19 301.093H556.2C557.98 296.733 559.64 292.643 561.17 288.863C562.83 284.703 564.4 280.993 565.79 277.693C567.19 274.383 568.36 271.573 569.32 269.273C569.79 268.113 570.2 267.123 570.56 266.283C571.12 267.693 571.76 269.313 572.5 271.173C573.62 274.003 574.85 277.143 576.22 280.573C577.59 283.993 578.98 287.543 580.43 291.253C581.71 294.543 582.96 297.813 584.2 301.093H556.19ZM765.96 301.083C767.74 296.733 769.4 292.643 770.93 288.863C772.59 284.703 774.16 280.993 775.55 277.693C776.95 274.383 778.12 271.573 779.08 269.273C779.55 268.113 779.96 267.123 780.32 266.283C780.88 267.693 781.52 269.313 782.26 271.163C783.38 273.993 784.61 277.133 785.98 280.563C787.35 283.983 788.74 287.533 790.19 291.243C791.47 294.533 792.72 297.803 793.96 301.083H765.96ZM884.44 288.683H884.42L884.09 288.933C882.28 290.253 880.12 291.313 877.56 292.123C874.91 293.003 872.17 293.583 869.29 293.863C866.66 294.123 863.85 294.263 860.86 294.293V281.643C860.86 278.273 860.88 274.773 860.93 271.163C860.98 267.553 861.05 264.313 861.13 261.433C861.23 259.553 861.28 258.053 861.33 257.053C861.38 255.983 861.4 255.233 861.45 254.673C861.5 254.143 861.56 253.683 861.63 253.353C861.67 253.173 861.71 252.963 861.75 252.733C862.22 252.683 862.8 252.623 863.47 252.573C864.52 252.503 865.9 252.453 867.62 252.453C869.94 252.453 872.19 252.643 874.3 253.043C876.4 253.443 878.4 254.083 880.31 254.953C884.02 256.713 886.82 259.073 888.76 261.983L888.92 262.243C890.87 265.313 891.86 268.803 891.86 272.743C891.86 274.893 891.6 276.953 891.04 278.913C890.48 280.873 889.64 282.713 888.5 284.393C887.47 285.973 886.1 287.403 884.44 288.683Z" fill="black"/>
<path d="M527.11 308.393C528.39 303.873 529.01 298.763 529.01 293.033C529.01 287.303 528.31 282.723 526.93 278.453C525.56 274.213 523.7 270.453 521.36 267.183C519.03 263.923 516.29 261.143 513.18 258.763C510.27 256.533 507.15 254.703 503.87 253.233L503.21 252.943C500.51 251.763 497.75 250.893 494.98 250.293C492.22 249.693 489.47 249.273 486.71 249.023C483.96 248.773 481.22 248.653 478.47 248.653H470.56C461.33 248.653 453.44 248.673 446.92 248.723C440.41 248.793 435.42 248.793 431.97 248.793H431.02V251.813L431.85 251.913C433.96 252.173 435.83 252.553 437.49 253.123H437.5C439.06 253.633 440.4 254.553 441.51 255.903V255.923C441.9 256.353 442.21 257.003 442.44 257.943C442.67 258.953 442.86 260.063 442.98 261.293C443.1 262.533 443.17 263.873 443.17 265.333V301.053C443.17 303.523 443.14 305.933 443.1 308.273C443.08 309.453 443.06 310.583 443.04 311.653L442.98 314.753C442.91 316.743 442.91 318.323 442.91 319.473C442.91 320.773 442.86 322.103 442.79 323.513C442.72 324.913 442.6 326.203 442.43 327.393C442.26 328.633 442.09 329.713 441.88 330.673C441.67 331.633 441.43 332.093 441.21 332.313L441.15 332.373C440.3 333.373 438.97 334.273 437.12 335.073C436.86 335.183 436.54 335.303 436.19 335.403C432.42 336.573 428.31 336.373 424.68 334.803C423.44 334.263 422.27 333.613 421.17 332.863C418.41 330.963 415.52 327.933 412.49 323.703C410.53 320.913 408.28 317.693 405.76 314.073C403.26 310.453 400.94 307.073 398.79 303.943V303.923L398.3 303.273C397.18 301.763 396.04 300.383 394.85 299.133C393.9 298.133 392.91 297.273 391.9 296.583C394.12 295.773 396.25 294.823 398.31 293.733C400.86 292.373 403.09 290.723 405.02 288.793C406.95 286.863 408.52 284.603 409.67 282.083C410.83 279.523 411.42 276.643 411.42 273.463C411.42 268.383 410.29 264.063 407.92 260.613C405.6 257.223 402.54 254.553 398.79 252.573C395.12 250.623 391.07 249.463 386.66 249.143C382.35 248.823 377.43 248.653 371.87 248.653H363.2C359.65 248.653 356.09 248.673 352.53 248.723C348.99 248.793 345.82 248.793 343.02 248.793H337V251.793L337.82 251.913C340.02 252.223 341.85 252.613 343.31 253.053C344.65 253.463 345.88 254.243 347.03 255.463C347.32 255.773 347.62 256.293 347.87 257.113L347.98 257.483C348.26 258.543 348.44 259.713 348.56 261.043C348.68 262.393 348.75 263.813 348.8 265.323V265.343C348.87 266.833 348.87 268.303 348.87 269.803V301.093C348.87 303.563 348.84 305.973 348.8 308.313C348.75 310.673 348.73 312.803 348.68 314.783C348.61 316.783 348.61 318.363 348.61 319.513C348.61 320.823 348.59 322.143 348.49 323.533C348.39 324.953 348.29 326.263 348.17 327.463C348.05 328.673 347.86 329.753 347.63 330.673C347.4 331.623 347.13 332.193 346.85 332.513V332.533C345.91 333.693 344.57 334.583 342.82 335.193C342.59 335.273 342.37 335.353 342.14 335.433C339.03 336.443 335.68 336.573 332.54 335.673C332.14 335.553 331.8 335.443 331.56 335.323C330.25 334.703 329.15 333.973 328.27 333.183C327.37 332.333 326.66 331.553 326.12 330.783C325.55 329.973 325.21 329.423 325.06 329.153C324.07 327.033 323.21 325.113 322.41 323.433C321.62 321.793 320.8 319.693 319.9 317.163V317.143L318.41 313.243C317.91 311.943 317.42 310.633 316.92 309.313L313.95 301.393C311.97 296.063 309.94 290.553 307.83 284.883C305.72 279.203 303.52 273.283 301.22 267.143C298.92 261.003 296.47 254.523 293.92 247.673L293.69 247.053H291.48L291.21 247.553C290.92 248.093 290.46 248.783 289.84 249.703C289.26 250.563 288.53 251.483 287.65 252.423C286.78 253.363 285.77 254.273 284.62 255.153C283.48 256.013 282.22 256.763 280.79 257.393L279.91 257.783L281.36 260.993C279.42 265.513 277.37 270.323 275.2 275.513C272.97 280.843 270.75 286.103 268.47 291.333C266.22 296.573 264.01 301.663 261.86 306.603C259.71 311.573 257.77 315.973 256.04 319.833C254.16 324.023 252.57 327.143 251.27 329.243C249.93 331.413 249.06 332.663 248.57 333.153L248.51 333.213L248.47 333.273C248.47 333.273 248.45 333.303 248.33 333.403C248.22 333.493 248.06 333.613 247.85 333.763C247.43 334.053 246.84 334.423 246.09 334.873C244.68 335.703 243 336.253 240.96 336.483L240.11 336.583V339.753H268.36V336.763L267.56 336.633C266.48 336.463 265.38 336.273 264.16 336.073C263.05 335.893 262.01 335.593 261.07 335.163L260.72 334.993C259.93 334.603 259.32 334.163 258.84 333.643C258.36 333.133 258.11 332.493 258.11 331.623C258.11 330.013 258.9 327.033 260.64 322.573C261.81 319.693 262.97 316.823 264.11 313.993C265.19 311.333 266.31 308.543 267.45 305.633H299.06C300.21 308.613 301.29 311.513 302.3 314.283C303.37 317.233 304.3 319.943 305.13 322.363C305.93 324.793 306.56 326.833 307.02 328.493C307.48 330.173 307.67 331.293 307.67 331.883C307.67 332.793 307.37 333.493 306.8 334.023H306.79C306.11 334.693 305.31 335.193 304.38 335.573C303.42 335.963 302.5 336.213 301.61 336.373C300.64 336.543 300.14 336.603 299.99 336.603H299.04V339.733L377.76 339.753V336.663L376.85 336.623C373.57 336.483 371.12 335.843 369.38 334.843C367.51 333.743 366.4 332.763 365.86 331.883V331.863L365.84 331.843L365.71 331.643C365.08 330.623 364.7 329.303 364.63 327.643C364.58 326.203 364.51 324.583 364.44 322.753L364.38 320.853C364.31 318.143 364.26 314.823 364.26 310.873V297.913C364.98 297.953 365.62 297.983 366.15 297.983C366.88 297.983 368 298.133 369.56 298.453C371.51 298.833 373.42 299.783 375.25 301.333C377.15 302.943 378.92 304.693 380.53 306.543C382.51 308.833 384.21 310.903 385.64 312.743C387.08 314.593 388.41 316.413 389.62 318.203C390.54 319.553 391.45 320.923 392.36 322.303L393.26 323.683C394.44 325.553 395.85 327.643 397.41 329.943C398.73 331.843 399.7 333.243 400.3 334.183C400.91 335.123 401.45 335.903 401.91 336.443C402.32 336.923 402.7 337.383 403.07 337.773C403.42 338.153 403.97 338.723 404.71 339.463L404.91 339.663L476.65 339.733C480.49 339.733 484.45 339.463 488.53 338.913C492.63 338.363 496.61 337.423 500.47 336.083C504.34 334.733 508.01 332.943 511.45 330.673C514.92 328.383 517.99 325.493 520.6 322.033C523.25 318.553 525.3 314.413 526.82 309.633L527.22 308.393H527.11ZM269.38 301.083C271.16 296.733 272.82 292.643 274.35 288.863C276.01 284.703 277.57 280.993 278.97 277.693C280.37 274.383 281.54 271.573 282.5 269.273C282.96 268.113 283.38 267.123 283.74 266.283C284.3 267.693 284.94 269.313 285.68 271.163C286.8 273.993 288.03 277.133 289.4 280.563C290.77 283.983 292.17 287.533 293.61 291.243C294.89 294.533 296.14 297.803 297.38 301.083H269.38ZM387.84 288.673L387.5 288.933C385.69 290.253 383.53 291.313 380.97 292.123C378.32 293.003 375.58 293.583 372.7 293.863C370.07 294.123 367.27 294.263 364.27 294.293V281.643C364.27 278.273 364.29 274.773 364.34 271.163C364.39 267.553 364.46 264.313 364.53 261.433C364.63 259.553 364.68 258.053 364.73 257.053C364.78 255.983 364.8 255.233 364.85 254.673C364.9 254.143 364.96 253.683 365.03 253.353C365.06 253.173 365.11 252.963 365.15 252.733C365.62 252.683 366.2 252.623 366.87 252.573C367.92 252.503 369.29 252.453 371.02 252.453C373.34 252.453 375.59 252.643 377.7 253.043C379.8 253.443 381.81 254.083 383.71 254.953C387.42 256.713 390.23 259.083 392.17 261.993L392.32 262.233C394.27 265.303 395.26 268.793 395.26 272.733C395.26 274.883 395 276.943 394.44 278.903C393.88 280.863 393.04 282.703 391.9 284.383C390.87 285.963 389.5 287.393 387.84 288.673ZM505.58 320.033H505.57C501.3 327.203 494.84 332.033 486.15 334.513H486.13C484.32 335.073 482.33 335.433 480.2 335.653C478.05 335.873 475.96 335.963 473.93 335.963C471.76 335.963 469.45 335.753 466.98 335.293C464.63 334.863 462.73 333.893 461.24 332.403C460.93 332.093 460.6 331.583 460.29 330.823L460.16 330.483C459.82 329.503 459.56 328.443 459.4 327.203C459.23 325.923 459.11 324.623 458.96 323.263C458.82 321.963 458.77 320.723 458.77 319.593V319.573C458.7 316.843 458.65 313.353 458.65 309.073V294.613C458.65 284.803 458.7 276.363 458.77 269.273C458.84 262.583 459.06 257.283 459.44 253.353C459.84 253.283 460.34 253.223 460.93 253.153C461.84 253.053 462.9 252.953 464.02 252.833C465.12 252.713 466.22 252.643 467.36 252.593H467.38C468.5 252.523 469.54 252.523 470.53 252.523C473.39 252.523 475.78 252.643 477.72 252.833C479.66 253.053 481.47 253.313 483.08 253.633H483.1C487.24 254.343 491.07 255.953 494.59 258.413C498.13 260.923 501.19 263.953 503.77 267.543C506.35 271.133 508.37 275.153 509.83 279.593L510.05 280.243H510.09C511.41 284.463 512.06 288.823 512.06 293.263C512.06 303.923 509.88 312.853 505.58 320.033Z" fill="black"/>
<path d="M606.44 394.053C605.45 392.153 603.96 390.643 601.98 389.553C599.98 388.443 597.5 387.903 594.47 387.903H580.64V426.663L580.66 426.683H586.51V413.043H594.46C597.47 413.043 599.95 412.503 601.95 411.393C603.93 410.303 605.42 408.793 606.41 406.893C607.4 404.983 607.9 402.843 607.9 400.463C607.9 398.083 607.42 395.953 606.43 394.053H606.44ZM602.01 400.473C602.01 401.923 601.72 403.233 601.18 404.383C600.64 405.533 599.77 406.433 598.58 407.103C597.39 407.773 595.84 408.093 593.94 408.093H586.51V392.943H593.86C595.79 392.943 597.37 393.263 598.56 393.913C599.75 394.553 600.61 395.443 601.18 396.573C601.73 397.703 602.01 399.013 602.01 400.463V400.473Z" fill="black"/>
<path d="M622.96 387.903L609 426.673H615.24L618.79 416.403H633.92L637.47 426.673H643.69L629.72 387.903H622.96ZM620.5 411.483L626.22 394.943H626.52L632.23 411.483H620.5Z" fill="black"/>
<path d="M367.75 396.633C366.23 393.643 364.15 391.363 361.53 389.773C358.91 388.163 355.92 387.373 352.57 387.373C349.22 387.373 346.21 388.183 343.59 389.783C340.96 391.383 338.88 393.673 337.37 396.643C335.86 399.623 335.09 403.203 335.09 407.313C335.09 411.423 335.86 414.973 337.37 417.963C338.89 420.933 340.97 423.233 343.59 424.823C346.21 426.433 349.24 427.223 352.57 427.223C355.9 427.223 358.91 426.413 361.53 424.823C364.16 423.223 366.24 420.933 367.75 417.963C369.26 414.983 370.03 411.433 370.03 407.303C370.03 403.173 369.26 399.603 367.75 396.643V396.633ZM362.71 415.283C361.7 417.443 360.31 419.093 358.55 420.203C356.79 421.313 354.8 421.873 352.57 421.873C350.34 421.873 348.35 421.313 346.59 420.203C344.83 419.093 343.44 417.443 342.43 415.283C341.4 413.103 340.9 410.463 340.9 407.293C340.9 404.123 341.42 401.463 342.43 399.303C343.44 397.143 344.83 395.493 346.59 394.383C348.33 393.273 350.34 392.713 352.57 392.713C354.8 392.713 356.79 393.273 358.55 394.383C360.31 395.493 361.7 397.143 362.71 399.303C363.74 401.483 364.24 404.143 364.24 407.293C364.24 410.443 363.72 413.123 362.71 415.283Z" fill="black"/>
<path d="M375.09 392.943L375.1 392.953H387.17V426.663H393V392.943H405.11V387.903H375.09V392.943Z" fill="black"/>
<path d="M418.92 409.793H436.12V404.773H418.92V392.943H437.39V387.903H413.06V426.683H437.61V421.643H418.92V409.793Z" fill="black"/>
<path d="M320.61 404.743H301.27V387.903H295.42V426.663H301.27V409.763H320.61V426.663H326.48V387.903H320.61V404.743Z" fill="black"/>
<path d="M452.42 387.903H446.56V426.663H470V421.623H452.42V387.903Z" fill="black"/>
<path d="M517.73 420.073C517.85 419.923 517.96 419.783 518.08 419.623C518.89 418.553 519.57 417.133 520.14 415.423C520.71 413.713 520.99 411.593 520.99 409.093H515.88C515.88 411.133 515.56 412.973 514.89 414.603C514.7 415.073 514.49 415.503 514.27 415.933L506.51 406.653L509.14 404.723C510.74 403.553 512.01 402.263 512.92 400.853C513.83 399.443 514.29 397.813 514.29 395.973C514.29 394.453 513.89 393.063 513.12 391.773C512.35 390.483 511.24 389.473 509.81 388.683C508.37 387.893 506.62 387.513 504.66 387.513C502.7 387.513 500.98 387.893 499.51 388.683C498.06 389.473 496.91 390.563 496.1 391.933C495.29 393.303 494.89 394.893 494.89 396.673C494.89 398.233 495.21 399.683 495.88 401.033C496.54 402.383 497.41 403.693 498.48 405.003C498.71 405.273 498.95 405.563 499.18 405.843C497.78 406.833 496.54 407.793 495.46 408.763C494.29 409.813 493.39 410.943 492.72 412.173C492.05 413.403 491.73 414.823 491.73 416.393C491.73 418.453 492.23 420.313 493.24 421.943C494.25 423.573 495.68 424.863 497.56 425.813C499.43 426.763 501.68 427.223 504.28 427.223L504.26 427.263C506.08 427.263 507.91 426.963 509.77 426.313C511.51 425.703 513 424.813 514.26 423.613L516.88 426.693H523.28L517.75 420.083H517.73V420.073ZM500.84 394.603C501.22 393.923 501.76 393.353 502.45 392.913C503.13 392.463 503.94 392.243 504.85 392.243C506.16 392.243 507.21 392.673 508 393.493C508.79 394.313 509.17 395.183 509.17 396.093C509.17 397.243 508.87 398.203 508.28 398.973C507.7 399.743 506.87 400.483 505.8 401.173L503.4 402.873C503.22 402.653 503.04 402.423 502.86 402.203C502.09 401.243 501.46 400.333 500.98 399.423C500.49 398.543 500.25 397.653 500.25 396.763C500.25 396.013 500.46 395.293 500.84 394.603ZM511.08 419.883C510.28 420.553 509.42 421.113 508.5 421.533C507.13 422.143 505.69 422.463 504.28 422.463C502.87 422.463 501.66 422.173 500.61 421.613C499.58 421.043 498.78 420.303 498.19 419.353C497.6 418.403 497.32 417.373 497.32 416.263C497.32 415.663 497.62 414.833 498.21 413.743C498.8 412.653 499.85 411.563 501.36 410.453L502.41 409.683L511.09 419.883H511.08Z" fill="black"/>
</svg>
