<svg width="929" height="133" viewBox="0 0 929 133" fill="none" xmlns="http://www.w3.org/2000/svg">
<path d="M83.07 72.66H83.09L83.96 72.73C90.7 73.31 95.18 75.11 97.65 77.89V77.91C99.5 79.87 100.63 82.37 101.02 85.5C101.43 88.75 101.62 92.41 101.62 96.51C101.62 100.61 101.4 104.56 100.92 108.41C100.43 112.29 99.74 114.82 98.93 116.15C96.2 120.33 92.51 123.35 87.81 125.21C83.03 127.1 77.89 128.05 72.34 128.05C64.58 128.05 57.7 126.58 51.73 123.65C45.92 120.8 40.98 116.84 36.9 111.78L36.51 111.29C32.62 106.3 29.56 100.36 27.38 93.47L26.96 92.08C24.76 84.57 23.64 76.27 23.64 67.17C23.64 58.92 24.8 51.01 27.12 43.52C29.44 36.01 32.75 29.4 37.04 23.67C41.32 17.95 46.53 13.39 52.66 9.98C58.75 6.59 65.59 4.89 73.23 4.89C80.42 4.89 86.88 6.12001 92.65 8.54001C98.45 10.97 103.15 14.15 106.82 18.03C109.51 20.83 112.07 24.36 114.49 28.62L114.97 29.48C117.52 34.13 119.43 39.04 120.71 44.27L120.89 45H124.72V4.59H121.71L121.42 4.96001C119.88 6.96001 118.58 8.66 117.52 10.09C117 10.79 116.6 11.29 116.31 11.61C116.28 11.65 116.24 11.68 116.22 11.71C116.11 11.65 115.97 11.58 115.8 11.49C115.26 11.19 114.5 10.74 113.5 10.12L112.68 9.64C110.69 8.51 108.06 7.28 104.78 5.98C101.02 4.49 96.4 3.11 90.95 1.88C85.45 0.610005 79.14 0 72.01 0C60.15 0 50 1.7 41.61 5.11C33.52 8.4 26.64 12.74 20.98 18.12L20.44 18.64C16.37 22.58 12.99 26.75 10.3 31.18C7.6 35.59 5.51 39.96 4.02 44.26C2.54 48.56 1.49 52.66 0.89 56.54C0.3 60.39 0 63.84 0 66.84C0 76.95 1.66 86.1 4.94 94.31C8.22 102.49 12.95 109.43 19.14 115.14C25.33 120.85 32.89 125.14 41.85 128.07C50.8 130.99 60.92 132.45 72.19 132.45C77.91 132.45 83.63 131.86 89.35 130.67C95.04 129.49 100.26 128.03 104.96 126.3C109.64 124.58 113.64 122.88 116.91 121.22C120.12 119.59 122.26 118.37 123.19 117.57L123.52 117.28V91.05C123.52 88.35 123.57 85.67 123.69 82.97L123.72 82.48C123.87 80.1 124.31 78.46 124.96 77.44C125.87 76.03 127.37 74.92 129.57 74.21L130.23 74V73.98C132.28 73.36 134.18 72.95 135.93 72.73L136.77 72.63V69.07H83.07V72.66Z" fill="white"/>
<path d="M244.69 43.66L244.73 43.64V40.63H212.14V43.63L212.95 43.75C216.82 44.33 219.64 45.3 221.5 46.62C223.35 47.95 224.65 49.68 225.42 51.8V51.82C225.7 52.55 225.93 53.55 226.1 54.88C226.27 56.2 226.39 57.64 226.46 59.19C226.56 60.75 226.61 62.37 226.65 64.11C226.72 65.84 226.72 67.51 226.72 69.15V90.17C226.72 92.93 226.6 95.77 226.4 98.69C226.18 101.56 225.77 104.4 225.17 107.15C224.57 109.86 223.65 112.42 222.41 114.82C221.19 117.18 219.53 119.29 217.44 121.09C215.38 122.9 212.78 124.31 209.62 125.36C206.49 126.39 202.6 126.93 197.97 126.93C193.93 126.93 190.39 126.29 187.32 124.98C184.24 123.66 181.64 121.81 179.51 119.4C177.37 116.98 175.69 114.04 174.51 110.57L174.29 109.91C173.29 106.82 172.73 103.43 172.6 99.72L172.58 98.92C172.58 96.94 172.55 95.05 172.51 93.28L172.47 91.95C172.44 90.62 172.44 89.24 172.44 87.8V63.18C172.44 61.62 172.46 60.02 172.51 58.39C172.56 56.76 172.63 54.89 172.71 52.73C172.8 50.95 173.19 49.55 173.83 48.47C174.49 47.34 175.3 46.5 176.24 45.88C177.24 45.25 178.34 44.75 179.55 44.46C180.85 44.15 182.07 43.91 183.19 43.74L184 43.62V40.62H145.22V43.65L146.06 43.75C148.15 43.99 149.99 44.41 151.6 45C153.12 45.55 154.4 46.47 155.45 47.74V47.76C155.84 48.19 156.15 48.84 156.38 49.78C156.61 50.79 156.8 51.9 156.92 53.12C157.04 54.36 157.11 55.7 157.11 57.16V78.06C157.11 82.58 157.09 86.69 157.04 90.4C156.97 94.13 156.97 97.15 156.97 99.45C156.97 100.46 157.05 101.98 157.17 104C157.27 106.12 157.71 108.43 158.43 110.9C159.14 113.41 160.25 115.95 161.73 118.52C163.24 121.16 165.36 123.55 168.08 125.72C170.84 127.92 174.31 129.63 178.48 130.9C182.69 132.18 187.71 132.8 193.79 132.8C199.87 132.8 205.04 132.16 209.3 130.85C213.51 129.55 217 127.76 219.76 125.49C222.49 123.24 224.6 120.73 226.11 117.91C227.59 115.18 228.67 112.41 229.35 109.66C230.02 106.92 230.43 104.34 230.55 101.87C230.67 99.49 230.8 97.48 230.87 95.92V95.9C231.04 90.39 231.19 85.45 231.31 81.07C231.43 76.72 231.55 72.75 231.63 69.19V69.17C231.63 67.3 231.68 65.38 231.75 63.46C231.82 61.54 231.94 59.73 232.11 58.01C232.24 56.72 232.38 55.55 232.52 54.5L232.67 53.48C232.89 52.17 233.09 51.34 233.29 50.87C234.21 48.63 235.5 47.02 237.07 45.99L237.79 45.52C239.34 44.7 241.34 44.11 243.87 43.77L244.69 43.66Z" fill="white"/>
<path d="M927.58 128.38H927.49C923.75 127.81 920.5 126.59 917.75 124.7C914.99 122.8 912.1 119.77 909.07 115.54C907.11 112.75 904.86 109.53 902.34 105.91C899.84 102.29 897.52 98.91 895.36 95.78V95.76L894.87 95.11C893.75 93.6 892.61 92.22 891.42 90.97C890.47 89.97 889.48 89.11 888.47 88.42C890.69 87.61 892.82 86.66 894.88 85.57C897.43 84.21 899.66 82.56 901.59 80.63C903.53 78.69 905.09 76.44 906.24 73.92C907.4 71.36 907.99 68.48 907.99 65.3C907.99 60.22 906.86 55.9 904.49 52.45C902.17 49.06 899.11 46.39 895.36 44.41C891.69 42.46 887.64 41.3 883.23 40.98C878.92 40.66 874 40.49 868.44 40.49H859.77C856.22 40.49 852.66 40.51 849.11 40.56C845.57 40.63 842.4 40.63 839.61 40.63H833.59V43.63L834.41 43.75C836.61 44.06 838.44 44.45 839.9 44.89C841.24 45.3 842.47 46.08 843.62 47.3C843.91 47.61 844.21 48.13 844.46 48.95L844.57 49.32C844.85 50.38 845.03 51.55 845.15 52.88C845.27 54.23 845.34 55.65 845.39 57.16V57.18C845.46 58.67 845.46 60.14 845.46 61.64V92.93C845.46 95.4 845.44 97.81 845.39 100.15C845.34 102.51 845.32 104.64 845.27 106.62C845.2 108.62 845.2 110.2 845.2 111.35C845.2 112.66 845.18 113.98 845.08 115.37C844.98 116.79 844.89 118.1 844.76 119.3C844.64 120.51 844.45 121.59 844.22 122.51C843.99 123.46 843.72 124.03 843.44 124.35V124.37C842.49 125.53 841.16 126.42 839.41 127.03C839.18 127.11 838.96 127.19 838.73 127.26C835.62 128.27 832.27 128.41 829.13 127.5C828.73 127.39 828.39 127.27 828.15 127.16C826.84 126.54 825.74 125.81 824.87 125.02C823.97 124.17 823.26 123.39 822.72 122.62C822.15 121.81 821.81 121.26 821.66 120.99C820.67 118.87 819.81 116.95 819 115.27C818.21 113.63 817.39 111.53 816.49 109V108.98L815 105.08C814.51 103.78 814.01 102.47 813.51 101.15L810.54 93.23C808.56 87.9 806.53 82.39 804.42 76.72C802.31 71.04 800.11 65.12 797.81 58.98C795.51 52.84 793.06 46.36 790.51 39.51L790.28 38.89H788.07L787.8 39.39C787.51 39.93 787.05 40.62 786.43 41.54C785.85 42.4 785.12 43.32 784.24 44.26C783.37 45.2 782.36 46.11 781.21 46.99C780.07 47.85 778.81 48.6 777.38 49.23L776.5 49.62L777.95 52.83C776.01 57.35 773.96 62.17 771.79 67.36C769.56 72.69 767.34 77.95 765.06 83.18C762.81 88.42 760.6 93.51 758.45 98.45C756.3 103.42 754.36 107.82 752.63 111.68C750.75 115.87 749.16 118.99 747.86 121.09C746.53 123.26 745.65 124.51 745.16 125L745.1 125.06L745.05 125.12C745.05 125.12 745 125.17 744.91 125.25C744.8 125.34 744.64 125.46 744.43 125.61C744.01 125.9 743.42 126.27 742.67 126.72C742.27 126.96 741.84 127.17 741.39 127.36C739.49 128.17 737.38 128.36 735.34 128.08C734.37 127.94 733.32 127.77 732.78 127.57C731.34 127.05 730.18 126.48 729.29 125.84C728.34 125.15 727.65 124.54 727.17 124C726.9 123.7 726.7 123.46 726.56 123.28C726.49 123.19 726.44 123.13 726.41 123.08C726.41 123.06 726.39 123.05 726.39 123.05L726.37 123L726.22 122.7C725.87 121.95 725.59 120.92 725.43 119.57L725.36 118.97C725.2 117.6 725.12 116.25 725.12 114.92C725.05 110.04 725 105.44 725 101.07V76.45C725 72.74 725.05 68.93 725.12 64.97C725.19 62.09 725.32 59.17 725.49 56.22C725.64 53.29 725.97 51.2 726.41 49.93C727 48.31 728.08 46.89 729.73 45.67C731.3 44.51 733.65 43.82 736.92 43.75L737.85 43.73V40.62H709.89L709.66 41.24C709.43 41.87 708.41 44.26 706.64 48.44C704.85 52.6 702.6 57.81 699.84 64.07C697.07 70.33 693.96 77.33 690.49 85.08C687.3 92.2 684.04 99.34 680.73 106.52L651.75 40.62H623.83V43.6L624.62 43.73C625.59 43.9 626.76 44.16 628.14 44.52C629.46 44.86 630.68 45.4 631.81 46.17C632.92 46.92 633.9 47.95 634.75 49.29C635.49 50.48 635.97 52.05 636.08 54.04L636.1 54.44C636.17 56.84 636.22 58.85 636.22 60.48V76.07C636.22 81.59 636.17 86.75 636.1 91.57C636.03 96.38 635.9 100.56 635.73 104.09V104.12C635.66 108.3 635.37 111.8 634.89 114.67C634.41 117.53 633.66 119.87 632.64 121.73C631.64 123.55 630.31 124.97 628.64 126C628.41 126.15 628.16 126.29 627.91 126.43C625.48 127.73 622.68 128.16 619.98 127.61C619.34 127.48 618.77 127.35 618.41 127.17C617.1 126.55 616.01 125.82 615.13 125.04C614.23 124.18 613.51 123.4 612.98 122.64C612.41 121.84 612.07 121.29 611.92 121.02C610.93 118.9 610.07 116.98 609.26 115.3C608.47 113.66 607.66 111.56 606.75 109.03V109.01L605.26 105.11C603.77 101.2 602.29 97.24 600.8 93.26C598.82 87.93 596.78 82.42 594.68 76.74C592.57 71.06 590.37 65.14 588.07 59C585.77 52.86 583.32 46.38 580.77 39.53L580.54 38.91H578.33L578.06 39.41C577.77 39.95 577.31 40.64 576.69 41.56C576.11 42.42 575.38 43.34 574.5 44.28C573.63 45.22 572.62 46.13 571.47 47.01C570.33 47.87 569.07 48.62 567.64 49.25L566.76 49.64L568.21 52.85C566.27 57.37 564.22 62.18 562.05 67.37C559.82 72.7 557.6 77.96 555.32 83.19C553.07 88.43 550.86 93.52 548.71 98.46C546.56 103.43 544.62 107.83 542.89 111.69C541.01 115.88 539.42 119 538.12 121.1C536.78 123.27 535.91 124.52 535.42 125.01L535.36 125.07L535.31 125.13C535.31 125.13 535.29 125.16 535.17 125.26C535.06 125.35 534.9 125.47 534.69 125.62C534.48 125.77 534.23 125.93 533.94 126.11L532.94 126.72C531.53 127.55 529.85 128.1 527.81 128.33L526.97 128.43V131.6H555.22V128.61L554.42 128.48C553.34 128.31 552.24 128.12 551.02 127.92C549.91 127.74 548.87 127.44 547.93 127.01C546.97 126.58 546.25 126.09 545.69 125.49C545.22 124.98 544.97 124.34 544.97 123.47C544.97 121.86 545.76 118.89 547.49 114.43C548.67 111.54 549.82 108.67 550.97 105.84C552.05 103.18 553.17 100.39 554.31 97.48H585.92C587.08 100.46 588.15 103.36 589.16 106.13C589.7 107.61 590.2 109.02 590.67 110.37L592 114.21C592.8 116.64 593.43 118.68 593.89 120.34C594.35 122.02 594.54 123.14 594.54 123.73C594.54 124.64 594.24 125.34 593.67 125.87C592.99 126.54 592.19 127.04 591.26 127.42C590.3 127.81 589.38 128.06 588.49 128.22C587.52 128.39 587.02 128.45 586.87 128.45H585.92V131.58L655.39 131.53V128.53L654.57 128.41C651.3 127.94 648.77 127.22 646.9 126.28L646.54 126.09C644.69 125.08 643.32 123.67 642.43 121.92L642.26 121.57C641.43 119.84 640.9 117.68 640.67 115.1C640.43 112.3 640.31 108.95 640.31 105.1V89.27C640.31 84.75 640.33 80.44 640.38 76.36C640.43 72.34 640.45 68.12 640.5 64.01C640.55 61.04 640.56 57.73 640.57 54.11L641.03 55.15C642.14 57.7 643.56 60.89 645.3 64.68C647.04 68.47 648.97 72.79 651.12 77.66C653.28 82.53 655.58 87.74 658.05 93.3C660.52 98.85 663.07 104.65 665.66 110.66C668.26 116.68 670.88 122.75 673.52 128.84L673.77 129.41H675.84L676.04 128.73C676.17 128.31 676.56 127.33 677.22 125.8C677.88 124.27 678.6 122.58 679.34 120.7C680.07 118.88 680.82 117.08 681.56 115.3C682.32 113.53 682.88 112.26 683.28 111.46V111.44L683.3 111.42C686.03 105.28 688.52 99.76 690.79 94.66C693.04 89.6 695.29 84.63 697.52 79.77C699.75 74.92 701.98 69.92 704.26 64.81C706.02 60.86 707.91 56.62 709.93 52.09V97.95C709.93 102.88 709.86 108.08 709.69 113.5C709.62 115.12 709.45 116.7 709.21 118.28C708.95 119.82 708.6 121.08 708.16 122.05C707.44 123.54 706.03 124.93 703.74 126.19C701.5 127.42 698.69 128.13 695.24 128.3L694.33 128.34V131.55L765.01 131.58V128.59L764.21 128.46C763.13 128.29 762.03 128.1 760.81 127.9C759.7 127.72 758.66 127.42 757.72 126.99L757.37 126.82C756.58 126.43 755.97 125.99 755.48 125.47C755.01 124.96 754.76 124.32 754.76 123.45C754.76 121.84 755.55 118.87 757.29 114.41C758.46 111.52 759.62 108.65 760.77 105.82C761.85 103.16 762.97 100.37 764.11 97.46H795.72C796.87 100.44 797.95 103.34 798.95 106.11C800.02 109.06 800.95 111.77 801.79 114.19C802.59 116.62 803.22 118.66 803.68 120.32C804.14 122 804.33 123.12 804.33 123.71C804.33 124.62 804.03 125.32 803.46 125.85C802.78 126.52 801.98 127.02 801.05 127.4C800.09 127.79 799.17 128.04 798.28 128.2C797.31 128.37 796.81 128.43 796.66 128.43H795.71V131.56L874.43 131.58V128.49L873.52 128.45C870.24 128.31 867.79 127.67 866.05 126.67C864.18 125.57 863.07 124.59 862.53 123.71V123.69L862.51 123.67L862.38 123.47C861.75 122.45 861.37 121.13 861.3 119.47C861.25 118.03 861.18 116.41 861.12 114.58L861.06 112.68C860.99 109.97 860.94 106.65 860.94 102.7V89.74C861.66 89.78 862.3 89.81 862.83 89.81C863.56 89.81 864.68 89.96 866.24 90.28C868.19 90.66 870.1 91.61 871.93 93.16C873.83 94.77 875.6 96.52 877.21 98.37C879.19 100.66 880.89 102.73 882.32 104.57C883.75 106.42 885.09 108.24 886.3 110.03C887.52 111.84 888.74 113.67 889.94 115.52C891.12 117.39 892.53 119.48 894.09 121.78C895.41 123.68 896.38 125.08 896.98 126.02C897.59 126.96 898.13 127.74 898.59 128.28C898.99 128.76 899.38 129.22 899.75 129.61C900.1 129.99 900.65 130.56 901.39 131.3L901.59 131.5H928.39V128.5L927.58 128.38ZM556.19 92.92H556.2C557.98 88.56 559.64 84.47 561.17 80.69C562.83 76.53 564.4 72.82 565.79 69.52C567.19 66.21 568.36 63.4 569.32 61.1C569.79 59.94 570.2 58.95 570.56 58.11C571.12 59.52 571.76 61.14 572.5 63C573.62 65.83 574.85 68.97 576.22 72.4C577.59 75.82 578.98 79.37 580.43 83.08C581.71 86.37 582.96 89.64 584.2 92.92H556.19ZM765.96 92.91C767.74 88.56 769.4 84.47 770.93 80.69C772.59 76.53 774.16 72.82 775.55 69.52C776.95 66.21 778.12 63.4 779.08 61.1C779.55 59.94 779.96 58.95 780.32 58.11C780.88 59.52 781.52 61.14 782.26 62.99C783.38 65.82 784.61 68.96 785.98 72.39C787.35 75.81 788.74 79.36 790.19 83.07C791.47 86.36 792.72 89.63 793.96 92.91H765.96ZM884.44 80.51H884.42L884.09 80.76C882.28 82.08 880.12 83.14 877.56 83.95C874.91 84.83 872.17 85.41 869.29 85.69C866.66 85.95 863.85 86.09 860.86 86.12V73.47C860.86 70.1 860.88 66.6 860.93 62.99C860.98 59.38 861.05 56.14 861.13 53.26C861.23 51.38 861.28 49.88 861.33 48.88C861.38 47.81 861.4 47.06 861.45 46.5C861.5 45.97 861.56 45.51 861.63 45.18C861.67 45 861.71 44.79 861.75 44.56C862.22 44.51 862.8 44.45 863.47 44.4C864.52 44.33 865.9 44.28 867.62 44.28C869.94 44.28 872.19 44.47 874.3 44.87C876.4 45.27 878.4 45.91 880.31 46.78C884.02 48.54 886.82 50.9 888.76 53.81L888.92 54.07C890.87 57.14 891.86 60.63 891.86 64.57C891.86 66.72 891.6 68.78 891.04 70.74C890.48 72.7 889.64 74.54 888.5 76.22C887.47 77.8 886.1 79.23 884.44 80.51Z" fill="white"/>
<path d="M527.11 100.22C528.39 95.7 529.01 90.59 529.01 84.86C529.01 79.13 528.31 74.55 526.93 70.28C525.56 66.04 523.7 62.28 521.36 59.01C519.03 55.75 516.29 52.97 513.18 50.59C510.27 48.36 507.15 46.53 503.87 45.06L503.21 44.77C500.51 43.59 497.75 42.72 494.98 42.12C492.22 41.52 489.47 41.1 486.71 40.85C483.96 40.6 481.22 40.48 478.47 40.48H470.56C461.33 40.48 453.44 40.5 446.92 40.55C440.41 40.62 435.42 40.62 431.97 40.62H431.02V43.64L431.85 43.74C433.96 44 435.83 44.38 437.49 44.95H437.5C439.06 45.46 440.4 46.38 441.51 47.73V47.75C441.9 48.18 442.21 48.83 442.44 49.77C442.67 50.78 442.86 51.89 442.98 53.12C443.1 54.36 443.17 55.7 443.17 57.16V92.88C443.17 95.35 443.14 97.76 443.1 100.1C443.08 101.28 443.06 102.41 443.04 103.48L442.98 106.58C442.91 108.57 442.91 110.15 442.91 111.3C442.91 112.6 442.86 113.93 442.79 115.34C442.72 116.74 442.6 118.03 442.43 119.22C442.26 120.46 442.09 121.54 441.88 122.5C441.67 123.46 441.43 123.92 441.21 124.14L441.15 124.2C440.3 125.2 438.97 126.1 437.12 126.9C436.86 127.01 436.54 127.13 436.19 127.23C432.42 128.4 428.31 128.2 424.68 126.63C423.44 126.09 422.27 125.44 421.17 124.69C418.41 122.79 415.52 119.76 412.49 115.53C410.53 112.74 408.28 109.52 405.76 105.9C403.26 102.28 400.94 98.9 398.79 95.77V95.75L398.3 95.1C397.18 93.59 396.04 92.21 394.85 90.96C393.9 89.96 392.91 89.1 391.9 88.41C394.12 87.6 396.25 86.65 398.31 85.56C400.86 84.2 403.09 82.55 405.02 80.62C406.95 78.69 408.52 76.43 409.67 73.91C410.83 71.35 411.42 68.47 411.42 65.29C411.42 60.21 410.29 55.89 407.92 52.44C405.6 49.05 402.54 46.38 398.79 44.4C395.12 42.45 391.07 41.29 386.66 40.97C382.35 40.65 377.43 40.48 371.87 40.48H363.2C359.65 40.48 356.09 40.5 352.53 40.55C348.99 40.62 345.82 40.62 343.02 40.62H337V43.62L337.82 43.74C340.02 44.05 341.85 44.44 343.31 44.88C344.65 45.29 345.88 46.07 347.03 47.29C347.32 47.6 347.62 48.12 347.87 48.94L347.98 49.31C348.26 50.37 348.44 51.54 348.56 52.87C348.68 54.22 348.75 55.64 348.8 57.15V57.17C348.87 58.66 348.87 60.13 348.87 61.63V92.92C348.87 95.39 348.84 97.8 348.8 100.14C348.75 102.5 348.73 104.63 348.68 106.61C348.61 108.61 348.61 110.19 348.61 111.34C348.61 112.65 348.59 113.97 348.49 115.36C348.39 116.78 348.29 118.09 348.17 119.29C348.05 120.5 347.86 121.58 347.63 122.5C347.4 123.45 347.13 124.02 346.85 124.34V124.36C345.91 125.52 344.57 126.41 342.82 127.02C342.59 127.1 342.37 127.18 342.14 127.26C339.03 128.27 335.68 128.4 332.54 127.5C332.14 127.38 331.8 127.27 331.56 127.15C330.25 126.53 329.15 125.8 328.27 125.01C327.37 124.16 326.66 123.38 326.12 122.61C325.55 121.8 325.21 121.25 325.06 120.98C324.07 118.86 323.21 116.94 322.41 115.26C321.62 113.62 320.8 111.52 319.9 108.99V108.97L318.41 105.07C317.91 103.77 317.42 102.46 316.92 101.14L313.95 93.22C311.97 87.89 309.94 82.38 307.83 76.71C305.72 71.03 303.52 65.11 301.22 58.97C298.92 52.83 296.47 46.35 293.92 39.5L293.69 38.88H291.48L291.21 39.38C290.92 39.92 290.46 40.61 289.84 41.53C289.26 42.39 288.53 43.31 287.65 44.25C286.78 45.19 285.77 46.1 284.62 46.98C283.48 47.84 282.22 48.59 280.79 49.22L279.91 49.61L281.36 52.82C279.42 57.34 277.37 62.15 275.2 67.34C272.97 72.67 270.75 77.93 268.47 83.16C266.22 88.4 264.01 93.49 261.86 98.43C259.71 103.4 257.77 107.8 256.04 111.66C254.16 115.85 252.57 118.97 251.27 121.07C249.93 123.24 249.06 124.49 248.57 124.98L248.51 125.04L248.47 125.1C248.47 125.1 248.45 125.13 248.33 125.23C248.22 125.32 248.06 125.44 247.85 125.59C247.43 125.88 246.84 126.25 246.09 126.7C244.68 127.53 243 128.08 240.96 128.31L240.11 128.41V131.58H268.36V128.59L267.56 128.46C266.48 128.29 265.38 128.1 264.16 127.9C263.05 127.72 262.01 127.42 261.07 126.99L260.72 126.82C259.93 126.43 259.32 125.99 258.84 125.47C258.36 124.96 258.11 124.32 258.11 123.45C258.11 121.84 258.9 118.86 260.64 114.4C261.81 111.52 262.97 108.65 264.11 105.82C265.19 103.16 266.31 100.37 267.45 97.46H299.06C300.21 100.44 301.29 103.34 302.3 106.11C303.37 109.06 304.3 111.77 305.13 114.19C305.93 116.62 306.56 118.66 307.02 120.32C307.48 122 307.67 123.12 307.67 123.71C307.67 124.62 307.37 125.32 306.8 125.85H306.79C306.11 126.52 305.31 127.02 304.38 127.4C303.42 127.79 302.5 128.04 301.61 128.2C300.64 128.37 300.14 128.43 299.99 128.43H299.04V131.56L377.76 131.58V128.49L376.85 128.45C373.57 128.31 371.12 127.67 369.38 126.67C367.51 125.57 366.4 124.59 365.86 123.71V123.69L365.84 123.67L365.71 123.47C365.08 122.45 364.7 121.13 364.63 119.47C364.58 118.03 364.51 116.41 364.44 114.58L364.38 112.68C364.31 109.97 364.26 106.65 364.26 102.7V89.74C364.98 89.78 365.62 89.81 366.15 89.81C366.88 89.81 368 89.96 369.56 90.28C371.51 90.66 373.42 91.61 375.25 93.16C377.15 94.77 378.92 96.52 380.53 98.37C382.51 100.66 384.21 102.73 385.64 104.57C387.08 106.42 388.41 108.24 389.62 110.03C390.54 111.38 391.45 112.75 392.36 114.13L393.26 115.51C394.44 117.38 395.85 119.47 397.41 121.77C398.73 123.67 399.7 125.07 400.3 126.01C400.91 126.95 401.45 127.73 401.91 128.27C402.32 128.75 402.7 129.21 403.07 129.6C403.42 129.98 403.97 130.55 404.71 131.29L404.91 131.49L476.65 131.56C480.49 131.56 484.45 131.29 488.53 130.74C492.63 130.19 496.61 129.25 500.47 127.91C504.34 126.56 508.01 124.77 511.45 122.5C514.92 120.21 517.99 117.32 520.6 113.86C523.25 110.38 525.3 106.24 526.82 101.46L527.22 100.22H527.11ZM269.38 92.91C271.16 88.56 272.82 84.47 274.35 80.69C276.01 76.53 277.57 72.82 278.97 69.52C280.37 66.21 281.54 63.4 282.5 61.1C282.96 59.94 283.38 58.95 283.74 58.11C284.3 59.52 284.94 61.14 285.68 62.99C286.8 65.82 288.03 68.96 289.4 72.39C290.77 75.81 292.17 79.36 293.61 83.07C294.89 86.36 296.14 89.63 297.38 92.91H269.38ZM387.84 80.5L387.5 80.76C385.69 82.08 383.53 83.14 380.97 83.95C378.32 84.83 375.58 85.41 372.7 85.69C370.07 85.95 367.27 86.09 364.27 86.12V73.47C364.27 70.1 364.29 66.6 364.34 62.99C364.39 59.38 364.46 56.14 364.53 53.26C364.63 51.38 364.68 49.88 364.73 48.88C364.78 47.81 364.8 47.06 364.85 46.5C364.9 45.97 364.96 45.51 365.03 45.18C365.06 45 365.11 44.79 365.15 44.56C365.62 44.51 366.2 44.45 366.87 44.4C367.92 44.33 369.29 44.28 371.02 44.28C373.34 44.28 375.59 44.47 377.7 44.87C379.8 45.27 381.81 45.91 383.71 46.78C387.42 48.54 390.23 50.91 392.17 53.82L392.32 54.06C394.27 57.13 395.26 60.62 395.26 64.56C395.26 66.71 395 68.77 394.44 70.73C393.88 72.69 393.04 74.53 391.9 76.21C390.87 77.79 389.5 79.22 387.84 80.5ZM505.58 111.86H505.57C501.3 119.03 494.84 123.86 486.15 126.34H486.13C484.32 126.9 482.33 127.26 480.2 127.48C478.05 127.7 475.96 127.79 473.93 127.79C471.76 127.79 469.45 127.58 466.98 127.12C464.63 126.69 462.73 125.72 461.24 124.23C460.93 123.92 460.6 123.41 460.29 122.65L460.16 122.31C459.82 121.33 459.56 120.27 459.4 119.03C459.23 117.75 459.11 116.45 458.96 115.09C458.82 113.79 458.77 112.55 458.77 111.42V111.4C458.7 108.67 458.65 105.18 458.65 100.9V86.44C458.65 76.63 458.7 68.19 458.77 61.1C458.84 54.41 459.06 49.11 459.44 45.18C459.84 45.11 460.34 45.05 460.93 44.98C461.84 44.88 462.9 44.78 464.02 44.66C465.12 44.54 466.22 44.47 467.36 44.42H467.38C468.5 44.35 469.54 44.35 470.53 44.35C473.39 44.35 475.78 44.47 477.72 44.66C479.66 44.88 481.47 45.14 483.08 45.46H483.1C487.24 46.17 491.07 47.78 494.59 50.24C498.13 52.75 501.19 55.78 503.77 59.37C506.35 62.96 508.37 66.98 509.83 71.42L510.05 72.07H510.09C511.41 76.29 512.06 80.65 512.06 85.09C512.06 95.75 509.88 104.68 505.58 111.86Z" fill="white"/>
</svg>
