<svg width="519" height="657" viewBox="0 0 519 657" fill="none" xmlns="http://www.w3.org/2000/svg">
<path d="M264.073 312.211H140.562C140.235 312.211 139.893 312.17 139.579 312.211C138.119 312.416 137.75 311.747 137.736 310.327C137.613 298.313 138.637 286.449 141.573 274.736C146.815 253.903 156.808 235.704 171.239 219.895C181.341 208.851 193.096 199.963 206.352 193.069C217.806 187.116 229.916 182.911 242.653 180.85C262.08 177.71 281.302 178.666 300.238 184.304C319.774 190.12 336.853 200.127 351.611 214.175C364.84 226.776 374.683 241.684 381.536 258.585C388.226 275.091 391.011 292.32 390.601 310.095C390.56 312.115 390.547 312.129 388.226 312.129C350.136 312.129 312.033 312.129 273.93 312.143H264.06V312.17L264.073 312.211Z" fill="white"/>
<path d="M518.222 389.086C514.74 391.229 511.3 393.441 507.764 395.489C496.569 401.96 484.651 406.779 472.35 410.684C457.442 415.407 442.179 418.588 426.711 420.882C407.612 423.708 388.431 424.636 369.168 423.913C350.587 423.216 332.184 420.936 313.945 417.141C295.842 413.373 278.449 407.462 261.411 400.417C244.196 393.305 227.158 385.796 209.861 378.902C197.86 374.123 185.642 369.85 173.382 365.768C156.89 360.28 140.044 356.048 122.965 352.758C110.419 350.341 97.7766 348.758 85.0119 347.952C69.7215 346.983 54.4584 347.16 39.1953 348.457C33.475 348.949 27.7548 349.686 22.0482 350.3C21.5158 350.355 20.9697 350.369 20.3144 350.123C20.6284 349.918 20.9151 349.672 21.2564 349.536C34.458 343.761 48.1784 339.693 62.3357 337.003C82.7729 333.112 103.36 332.279 124.043 333.877C132.426 334.518 140.767 336.006 149.081 337.413C161.518 339.542 173.614 343.106 185.587 347.065C199.28 351.584 212.605 357.058 225.656 363.174C243.868 371.693 262.012 380.376 281.029 386.984C294.49 391.666 308.17 395.584 322.054 398.847C333.74 401.605 345.495 403.912 357.386 405.564C370.751 407.434 384.199 408.322 397.673 408.704C410.943 409.073 424.199 408.622 437.401 407.298C452.186 405.81 466.835 403.448 481.279 399.953C493.32 397.032 505.102 393.236 516.747 389.004C517.143 388.854 517.553 388.758 517.949 388.622C518.03 388.786 518.126 388.936 518.208 389.086H518.222ZM344.403 346.082C341.672 345.768 333.426 345.235 333.426 345.235C333.413 345.003 333.399 344.771 333.385 344.539C338.068 343.843 342.737 342.996 347.447 342.505C401.564 336.716 455.094 340.812 508.378 351.966C507.737 351.57 507.109 351.16 506.467 350.792C497.661 345.877 488.323 342.3 478.699 339.42C466.33 335.72 453.715 333.249 440.923 331.665C425.892 329.795 410.793 329.03 395.666 328.976C379.611 328.935 363.543 329.426 347.488 329.358C311.091 329.221 274.695 328.907 238.312 328.648C228.605 328.58 218.912 328.525 209.219 328.348C195.198 328.088 181.164 327.733 167.143 327.419C166.583 327.419 166.024 327.419 165.464 327.419C165.764 327.938 166.092 328.102 166.447 328.197C177.792 331.133 189.082 334.314 200.495 336.935C213.861 339.993 227.513 340.443 241.179 340.484C250.339 340.512 259.486 340.716 268.633 340.867C269.275 340.867 269.903 340.976 270.544 341.044C267.91 341.686 265.302 342 262.735 342.546C253.343 344.512 243.977 346.546 234.612 348.607C233.233 348.908 231.827 349.304 230.585 349.945C230.585 349.945 247.349 357.959 316.948 358.751C334.518 358.956 363.898 356.976 378.137 353.754C381.318 353.031 384.431 351.966 387.543 350.928C388.035 350.764 362.082 348.13 344.403 346.068V346.082ZM0 374.656C0.0136521 374.86 0.0409564 375.065 0.0682607 375.284C2.18434 375.284 4.30042 375.366 6.40285 375.284C16.2051 374.861 25.9937 374.82 35.7959 375.666C51.7416 377.059 67.3597 380.13 82.7593 384.321C95.9063 387.912 108.862 392.226 122.009 395.844C141.655 401.25 161.341 406.479 181.068 411.489C196.045 415.284 211.199 418.397 226.557 420.158C240.837 421.797 255.186 422.22 269.561 421.947C270.012 421.933 270.463 421.838 270.913 421.783C270.613 421.346 270.299 421.182 269.971 421.073C263.131 418.725 256.223 416.595 249.479 414.015C232.387 407.489 215.335 400.868 198.338 394.11C182.079 387.653 165.532 382.082 148.59 377.782C139.579 375.488 130.433 373.714 121.327 371.816C106.309 368.676 91.1007 367.161 75.783 367.092C54.1717 366.983 32.615 368.048 11.3176 372.089C7.50868 372.813 3.76799 373.823 0 374.683V374.656ZM334.382 434.056C283.364 437.005 232.414 438.179 181.778 429.059C182.324 429.551 182.898 429.851 183.485 430.124C193.069 434.684 203.062 438.056 213.41 440.377C232.796 444.732 252.401 446.684 272.292 446.002C287.842 445.469 303.214 443.79 318.259 439.79C323.733 438.343 329.112 436.473 334.518 434.793C334.464 434.548 334.409 434.302 334.355 434.056H334.382ZM490.603 367.952C490.508 367.584 490.426 367.229 490.33 366.874C407.503 372.376 324.743 375.243 242.285 362.792C243.199 363.502 244.128 363.939 245.083 364.348C260.742 370.915 277.057 375.693 293.917 378.915C325.508 384.963 357.399 387.42 389.7 385.973C414.943 384.84 439.899 382.001 464.268 375.734C473.129 373.454 481.825 370.56 490.59 367.952H490.603Z" fill="white"/>
<path d="M122.446 493.224L126.692 498.467L113.231 509.361L125.231 524.187L138.692 513.293L142.938 518.535L110.951 544.42L106.705 539.177L120.576 527.955L108.575 513.129L94.7049 524.351L90.4591 519.109L122.446 493.224Z" fill="white"/>
<path d="M154.665 568.379C151.389 569.84 148.003 570.345 144.494 569.895C140.999 569.444 137.723 568.024 134.665 565.649C131.607 563.26 129.45 560.42 128.166 557.143C126.883 553.853 126.555 550.44 127.183 546.918C127.811 543.382 129.354 540.051 131.811 536.897C134.269 533.757 137.136 531.45 140.412 529.989C143.689 528.529 147.075 528.023 150.583 528.474C154.078 528.924 157.355 530.344 160.413 532.72C163.471 535.109 165.628 537.935 166.911 541.225C168.194 544.515 168.522 547.915 167.894 551.45C167.266 554.986 165.723 558.331 163.266 561.471C160.809 564.611 157.942 566.918 154.665 568.379ZM133.818 548.256C133.272 550.741 133.381 553.089 134.16 555.3C134.938 557.526 136.317 559.41 138.324 560.98C140.33 562.55 142.501 563.437 144.836 563.655C147.17 563.874 149.477 563.41 151.757 562.29C154.024 561.157 156.044 559.464 157.805 557.225C159.566 554.973 160.713 552.611 161.259 550.126C161.805 547.642 161.696 545.293 160.918 543.082C160.14 540.87 158.761 538.972 156.754 537.402C154.747 535.832 152.576 534.945 150.242 534.727C147.907 534.508 145.6 534.972 143.32 536.105C141.04 537.239 139.033 538.931 137.272 541.17C135.511 543.423 134.364 545.785 133.818 548.27V548.256Z" fill="white"/>
<path d="M174.16 543.724L202.857 558.127L200.168 563.478L188.837 557.785L173.096 589.158L167.061 586.127L182.802 554.755L171.471 549.062L174.16 543.71V543.724Z" fill="white"/>
<path d="M205.164 558.687L230.953 566.086L229.301 571.847L209.997 566.305L206.857 577.254L222.776 581.813L221.178 587.397L205.26 582.837L201.97 594.291L221.943 600.025L220.291 605.786L193.833 598.196L205.164 558.7V558.687Z" fill="white"/>
<path d="M230.148 607.384L234.612 566.537L241.329 567.274L237.506 602.169L255.077 604.094L254.421 610.046L230.148 607.384Z" fill="white"/>
<path d="M318.491 598.086L319.419 603.411L314.614 604.243C313.112 604.503 311.76 604.557 310.559 604.38C309.358 604.202 308.252 603.725 307.228 602.905L305.357 601.445C302.654 605.09 299.2 607.288 295.009 608.025C291.077 608.708 287.692 608.353 284.838 606.946C281.985 605.54 280.265 603.137 279.678 599.738C279.282 597.499 279.596 595.247 280.62 592.994C281.63 590.728 283.569 588.653 286.422 586.769C284.729 585.28 283.528 583.929 282.79 582.728C282.067 581.526 281.548 580.052 281.248 578.318C280.92 576.434 281.139 574.632 281.917 572.925C282.695 571.219 283.91 569.772 285.576 568.598C287.241 567.41 289.207 566.618 291.473 566.222C293.398 565.881 295.214 565.976 296.92 566.495C298.627 567.014 300.047 567.888 301.194 569.116C302.34 570.345 303.064 571.833 303.364 573.567C303.76 575.847 303.405 578.018 302.299 580.093C301.194 582.168 299.023 584.229 295.801 586.263L304.607 593.008L309.003 582.7L315.242 581.608L308.73 596.216L310.928 597.922C311.528 598.414 312.102 598.714 312.634 598.823C313.166 598.933 313.808 598.919 314.532 598.782L318.464 598.1L318.491 598.086ZM301.385 598.387L290.094 589.69L289.958 589.595C288.21 590.933 287.036 592.243 286.436 593.513C285.849 594.782 285.685 596.23 285.971 597.854C286.313 599.82 287.255 601.24 288.797 602.1C290.34 602.96 292.21 603.206 294.408 602.823C297.112 602.359 299.432 600.871 301.385 598.387ZM288.333 573.13C287.5 574.263 287.214 575.574 287.46 577.035C287.678 578.263 288.101 579.328 288.756 580.202C289.412 581.076 290.49 582.127 292.006 583.328C296.074 580.707 297.849 577.854 297.303 574.782C297.071 573.43 296.456 572.407 295.487 571.697C294.504 571 293.33 570.768 291.937 571C290.354 571.273 289.152 571.983 288.32 573.116L288.333 573.13Z" fill="white"/>
<path d="M346.164 578.864C347.447 580.925 349.222 582.209 351.474 582.7C353.727 583.192 356.13 582.782 358.669 581.472C360.894 580.325 362.451 578.919 363.324 577.253C364.198 575.587 364.198 573.908 363.324 572.202C362.696 570.987 361.823 570.209 360.703 569.881C359.584 569.553 358.287 569.526 356.799 569.813C355.311 570.099 353.304 570.632 350.751 571.41C348.171 572.215 345.863 572.707 343.829 572.898C341.795 573.089 339.884 572.761 338.109 571.929C336.334 571.082 334.86 569.54 333.686 567.273C332.607 565.185 332.198 563.041 332.443 560.843C332.689 558.645 333.563 556.584 335.064 554.659C336.566 552.747 338.587 551.123 341.112 549.812C343.72 548.461 346.3 547.751 348.853 547.669C351.406 547.587 353.713 548.092 355.775 549.184C357.836 550.276 359.488 551.887 360.717 554.031L354.819 557.075C353.645 555.3 352.048 554.208 350.027 553.799C348.007 553.389 345.904 553.744 343.72 554.877C341.604 555.969 340.143 557.307 339.351 558.891C338.559 560.475 338.587 562.085 339.46 563.765C340.075 564.952 340.935 565.69 342.041 566.004C343.147 566.318 344.416 566.318 345.85 566.017C347.283 565.717 349.263 565.171 351.816 564.393C354.396 563.587 356.717 563.096 358.778 562.905C360.84 562.727 362.765 563.027 364.539 563.833C366.314 564.638 367.789 566.14 368.935 568.365C370.055 570.523 370.464 572.748 370.205 575.041C369.946 577.335 369.017 579.492 367.461 581.513C365.905 583.533 363.816 585.212 361.208 586.55C358.328 588.038 355.515 588.83 352.785 588.912C350.055 588.994 347.597 588.434 345.399 587.205C343.201 585.977 341.467 584.175 340.198 581.799L346.15 578.864H346.164Z" fill="white"/>
<path d="M370.901 530.836C373.113 529.089 375.393 527.955 377.741 527.464C380.103 526.972 382.356 527.136 384.499 527.942C386.642 528.761 388.54 530.194 390.165 532.256C391.789 534.304 392.772 536.474 393.073 538.754C393.387 541.034 393.032 543.259 392.008 545.444C390.984 547.628 389.373 549.594 387.175 551.341L379.775 557.212L389.045 568.885L383.762 573.076L358.219 540.884L370.915 530.809L370.901 530.836ZM376.13 552.625L383.066 547.109C384.963 545.608 386.069 543.887 386.369 541.976C386.67 540.065 386.151 538.249 384.786 536.529C383.393 534.781 381.755 533.839 379.844 533.703C377.932 533.566 376.035 534.249 374.137 535.764L367.147 541.307L376.13 552.625Z" fill="white"/>
<path d="M408.704 553.485L388.144 514.726L393.482 508.706L434.397 524.488L429.606 529.894L419.435 526.058L408.267 538.672L413.332 548.256L408.704 553.485ZM405.209 533.443L413.892 523.641L396.131 516.692L405.209 533.443Z" fill="white"/>
<path d="M96.193 247.554C95.4694 245.165 94.7186 243.103 93.9813 241.411C93.2168 239.69 92.6844 238.612 92.3158 238.148L92.1656 237.943L78.9776 237.192C77.6261 237.11 76.2745 237.015 74.9366 236.878C73.6806 236.755 72.7796 236.496 72.2335 236.1C71.5372 235.595 71.0594 234.817 70.7727 233.724C70.4724 232.564 70.2812 231.486 70.2266 230.516L70.1993 230.038L68.288 229.929L66.759 256.974L68.6839 257.083L68.7522 256.592C69.2164 253.343 70.213 251.104 71.7147 249.916C72.7386 249.056 74.0356 248.564 75.5783 248.455C76.3837 248.401 77.2438 248.373 78.1449 248.373C79.0459 248.373 80.0698 248.401 81.1074 248.455C83.1415 248.564 85.1348 248.796 87.0461 249.138C88.9027 249.465 90.1724 249.875 90.8414 250.339C92.8482 251.8 94.268 253.752 95.0599 256.141C95.8653 258.571 96.2066 261.193 96.0428 263.95C95.8244 267.8 94.8824 271.227 93.2578 274.121C91.6195 277.029 89.3942 279.459 86.6501 281.384C83.8788 283.309 80.5613 284.729 76.766 285.616C73.8171 286.313 70.5952 286.654 67.2095 286.654C66.2265 286.654 65.2163 286.627 64.206 286.572C60.0831 286.34 56.1376 285.521 52.4652 284.155C48.7928 282.79 45.5572 280.934 42.8131 278.626C40.0827 276.333 37.9257 273.589 36.4103 270.435C34.8949 267.309 34.2396 263.8 34.4444 260.018C34.6492 256.442 35.441 253.22 36.8062 250.407C38.1714 247.609 39.9052 245.315 41.953 243.595C43.5367 242.243 45.5436 240.974 47.919 239.841C50.3082 238.707 52.8475 237.875 55.4823 237.383L55.9055 237.301L56.0284 235.267L35.6185 234.107L35.5229 235.718L35.7277 235.895C36.697 236.728 37.5161 237.424 38.1851 237.998C38.581 238.339 38.7994 238.544 38.9223 238.667C38.8131 238.858 38.5673 239.226 38.0758 239.936C37.3796 240.919 36.6014 242.366 35.7413 244.196C34.8949 246.025 34.0621 248.332 33.2839 251.022C32.5058 253.725 32.0006 256.906 31.7959 260.483C31.4546 266.435 32.0279 271.623 33.4887 275.896C34.9495 280.169 37.0383 283.882 39.6868 286.913C41.5435 289.057 43.564 290.886 45.7074 292.36C47.8371 293.835 49.9942 295.009 52.0966 295.883C54.199 296.756 56.2468 297.398 58.1718 297.808C60.0831 298.217 61.8169 298.463 63.3186 298.545C64.1787 298.599 65.0252 298.613 65.8716 298.613C69.9536 298.613 73.7898 298.012 77.2711 296.852C81.476 295.432 85.1348 293.234 88.1519 290.313C91.169 287.391 93.5718 283.678 95.292 279.268C96.9985 274.886 98.036 269.807 98.35 264.169C98.5139 261.315 98.3773 258.394 97.9405 255.5C97.5172 252.633 96.9166 249.957 96.193 247.54V247.554Z" fill="white"/>
<path d="M112.657 181.819C111.306 180.058 109.818 178.543 108.221 177.3C106.637 176.072 105.053 175.034 103.415 174.201L99.6879 172.29C96.1247 170.556 92.9165 169.013 90.0905 167.662C87.2645 166.297 84.6979 165.068 82.3907 163.976C81.162 163.43 79.9196 162.843 78.6773 162.215C77.4486 161.6 76.2882 160.986 75.2096 160.372C74.1448 159.771 73.2028 159.198 72.3973 158.679C71.4553 158.064 71.0321 157.696 70.8273 157.477C69.6396 156.221 68.916 154.87 68.6976 153.491C68.4791 152.085 68.6703 150.337 69.271 148.303L69.4075 147.853L67.66 147.074L58.2264 168.153L59.9602 168.931L60.2196 168.536C61.7077 166.201 63.1958 164.59 64.6429 163.73C65.8852 163.006 67.2231 162.638 68.6157 162.638C68.8341 162.638 69.0389 162.638 69.2846 162.665C69.8716 162.692 70.6225 162.843 71.5099 163.116C72.4246 163.402 73.4212 163.744 74.4588 164.153C75.51 164.563 76.6022 165 77.7353 165.477C78.8821 165.955 79.9879 166.433 81.0664 166.925L94.8414 173.082C96.6435 173.887 98.5002 174.802 100.343 175.785C102.173 176.768 103.92 177.874 105.545 179.075C107.156 180.263 108.589 181.642 109.791 183.157C110.992 184.659 111.893 186.393 112.466 188.304C113.04 190.215 113.217 192.372 112.971 194.734C112.726 197.109 111.92 199.84 110.569 202.857C109.395 205.478 107.907 207.635 106.132 209.287C104.371 210.925 102.35 212.113 100.138 212.809C98.4729 213.328 96.6708 213.601 94.7868 213.601C94.1452 213.601 93.4899 213.574 92.8345 213.519C90.186 213.287 87.4146 212.564 84.616 211.362C83.319 210.775 82.0767 210.243 80.9026 209.751C79.7285 209.26 78.5271 208.741 77.2848 208.181L61.1616 200.973C60.1377 200.523 59.1001 200.031 58.0352 199.526C56.9704 199.021 55.7417 198.42 54.3765 197.737C53.2433 197.178 52.3969 196.495 51.8645 195.731C51.3184 194.952 50.9771 194.147 50.8542 193.328C50.7177 192.481 50.7314 191.608 50.8952 190.707C51.059 189.778 51.2638 188.905 51.4822 188.113L51.6187 187.662L49.8849 186.884L38.6356 212.018L40.383 212.796L40.6288 212.373C41.3933 211.089 42.2261 209.983 43.0862 209.082C43.9189 208.236 44.9155 207.635 46.0896 207.321C46.3081 207.253 46.5675 207.226 46.8541 207.226C47.1408 207.226 47.4275 207.253 47.7415 207.321C48.4651 207.458 49.2569 207.663 50.1034 207.949C50.9634 208.236 51.8781 208.605 52.8201 209.028L66.5132 215.158C69.4757 216.482 72.1789 217.711 74.5953 218.816C77.0117 219.936 78.9776 220.823 80.493 221.506C81.1483 221.793 82.1722 222.202 83.5374 222.721C84.93 223.24 86.5546 223.636 88.3839 223.895C89.3942 224.032 90.4591 224.113 91.5512 224.113C92.4386 224.113 93.3806 224.059 94.3226 223.963C96.4524 223.745 98.6504 223.062 100.848 221.929C103.046 220.796 105.203 219.021 107.251 216.673C109.285 214.339 111.197 211.158 112.958 207.239C114.733 203.267 115.825 199.676 116.207 196.563C116.589 193.437 116.439 190.611 115.756 188.181C115.088 185.751 114.05 183.621 112.685 181.846L112.657 181.819Z" fill="white"/>
<path d="M288.456 73.3938C288.237 69.5303 287.541 66.049 286.381 63.0728C285.22 60.1103 283.732 57.4754 281.958 55.2638C280.169 53.0521 278.094 51.1408 275.787 49.5845C273.48 48.0418 271.008 46.7722 268.442 45.8438C266.476 45.1203 264.469 44.5878 262.476 44.2738C260.483 43.9735 258.476 43.7823 256.51 43.7141C255.759 43.6868 255.022 43.6731 254.271 43.6731C253.056 43.6731 251.814 43.7141 250.599 43.7823L244.933 44.0963C238.312 44.465 232.673 44.8063 228.004 45.0929C223.335 45.3933 219.772 45.5981 217.287 45.7482L216.741 45.7756L216.85 47.6869L217.342 47.7142C218.844 47.7961 220.223 48.0145 221.451 48.3422C222.612 48.6562 223.636 49.2842 224.509 50.2262C224.823 50.5538 225.083 51.0453 225.274 51.6869C225.479 52.3968 225.656 53.1887 225.793 54.0761C225.929 54.9634 226.025 55.9464 226.093 56.984L227.54 82.5817C227.636 84.3565 227.718 86.0767 227.786 87.7559L227.963 92.4113C228.018 93.8311 228.059 94.9642 228.113 95.797C228.168 96.739 228.195 97.6946 228.195 98.6913C228.195 99.6879 228.154 100.63 228.086 101.504C228.018 102.377 227.936 103.169 227.827 103.879C227.718 104.63 227.526 104.985 227.349 105.176C226.803 105.9 225.943 106.555 224.851 107.142L224.755 106.937L224.305 107.074C222.516 107.633 220.755 107.906 219.076 107.906C218.311 107.906 217.547 107.852 216.81 107.729C214.407 107.36 211.54 106.268 208.304 104.493C206.147 103.306 203.703 101.927 200.946 100.37C198.188 98.8141 195.635 97.3533 193.26 95.9881C191.922 95.2509 190.57 94.6229 189.246 94.1178C188.222 93.7219 187.239 93.4761 186.297 93.3533C187.539 92.0836 188.7 90.7321 189.724 89.3259C190.939 87.674 191.867 85.8992 192.509 84.0835C193.15 82.2541 193.451 80.3155 193.41 78.3496C193.369 76.3563 192.85 74.3222 191.867 72.288C190.283 69.0115 188.195 66.5951 185.655 65.1479C183.13 63.7008 180.331 62.9226 177.328 62.8134C177.041 62.8134 176.768 62.7998 176.481 62.7998C173.819 62.7998 171.129 63.3322 168.481 64.3561C165.6 65.4892 162.337 66.9364 158.774 68.6429L153.177 71.346C150.883 72.4518 148.603 73.5713 146.324 74.7044C144.044 75.8376 142.009 76.8342 140.194 77.7079L136.426 79.5236L137.258 81.2438L137.709 81.1073C139.211 80.6431 140.535 80.3018 141.641 80.1243C141.928 80.0834 142.214 80.0561 142.515 80.0561C143.265 80.0561 144.057 80.2063 144.876 80.5339C145.259 80.6704 145.682 81.0117 146.146 81.5578C146.665 82.1722 147.17 82.8821 147.648 83.6875C148.139 84.493 148.644 85.4077 149.136 86.377C149.641 87.3463 150.119 88.302 150.583 89.2576L160.344 109.476C161.109 111.074 161.846 112.63 162.556 114.159L164.495 118.391C165.082 119.688 165.559 120.712 165.928 121.463C166.338 122.309 166.733 123.183 167.102 124.112C167.484 125.04 167.826 125.914 168.126 126.746C168.426 127.552 168.645 128.316 168.781 128.999C168.918 129.627 168.931 130.132 168.836 130.514C168.577 131.593 167.976 132.617 167.034 133.559C166.993 133.6 166.966 133.627 166.925 133.654L166.46 133.204L166.078 133.572C165.15 134.46 164.194 135.088 163.225 135.47C162.242 135.852 161.314 136.071 160.453 136.125C160.139 136.153 159.839 136.153 159.552 136.153C159.034 136.153 158.556 136.125 158.119 136.057C157.273 135.921 156.904 135.839 156.767 135.798L152.467 134.31C151.238 133.886 149.709 133.272 147.948 132.467C144.276 130.91 140.576 129.327 136.835 127.702C133.095 126.077 129.245 124.398 125.245 122.664C121.258 120.931 117.094 119.129 112.767 117.272C108.439 115.415 103.879 113.449 99.0598 111.36L98.7185 111.21L97.7492 112.221L97.8448 112.521C97.9813 112.971 98.1178 113.572 98.2816 114.323C98.4318 115.06 98.541 115.907 98.6093 116.849C98.6639 117.777 98.6366 118.76 98.5137 119.797C98.3909 120.821 98.1451 121.873 97.7629 122.924L97.5717 123.443L99.8926 124.262C101.271 127.525 102.773 131.006 104.37 134.719C106.009 138.515 107.633 142.296 109.203 146.064L113.818 157.081C115.306 160.645 116.63 163.839 117.777 166.665C118.992 169.71 119.838 172.112 120.289 173.833C120.835 175.949 120.958 176.836 120.971 177.287C120.971 177.341 120.999 177.71 120.617 179.375C120.343 180.536 119.756 181.71 118.869 182.87L118.569 183.253L120.016 184.645L133.873 170.228L132.508 168.904L132.139 169.191C131.525 169.669 130.869 170.16 130.173 170.665C129.518 171.157 128.821 171.553 128.112 171.839C127.456 172.112 126.815 172.249 126.173 172.249C125.627 172.249 125.135 172.031 124.685 171.594C123.797 170.747 122.637 168.768 121.231 165.751C120.316 163.716 119.402 161.696 118.5 159.689C117.654 157.778 116.753 155.784 115.797 153.709L131.634 137.231C133.777 138.132 135.839 139.033 137.805 139.893C139.866 140.808 141.736 141.668 143.402 142.446C145.054 143.225 146.446 143.921 147.525 144.508C148.576 145.095 149.286 145.559 149.641 145.887C150.132 146.351 150.365 146.883 150.365 147.511C150.365 148.208 150.214 148.904 149.955 149.586C149.668 150.283 149.341 150.911 148.986 151.457C148.494 152.194 148.33 152.385 148.276 152.44L147.894 152.836L149.327 154.201L164.89 137.996L190.775 125.504L189.928 123.743L189.451 123.948C187.553 124.753 185.901 125.163 184.522 125.163C184.345 125.163 184.167 125.163 183.99 125.135C182.515 125.013 181.423 124.74 180.727 124.289C179.894 123.798 179.184 122.992 178.584 121.886C177.942 120.685 177.177 119.251 176.304 117.572C175.416 115.866 174.338 113.709 173.109 111.156L169 102.65C169.546 102.432 169.996 102.227 170.365 102.05C170.856 101.818 171.648 101.558 172.74 101.285C173.396 101.108 174.092 101.026 174.802 101.026C175.621 101.026 176.495 101.149 177.382 101.381C179.116 101.831 180.822 102.418 182.433 103.115C184.413 103.975 186.174 104.794 187.676 105.531C189.178 106.268 190.611 107.046 191.963 107.811C193.328 108.589 194.679 109.395 196.031 110.227C197.383 111.06 198.925 111.975 200.673 112.985C202.106 113.791 203.171 114.405 203.867 114.828C204.591 115.265 205.164 115.579 205.601 115.77C206.024 115.961 206.407 116.125 206.734 116.275C207.062 116.412 207.594 116.617 208.332 116.862L208.55 116.931L221.615 110.623L253.001 108.848C255.745 108.698 258.585 108.33 261.452 107.784C264.346 107.237 267.172 106.391 269.862 105.285C272.551 104.179 275.118 102.719 277.466 100.971C279.841 99.21 281.917 97.012 283.637 94.4454C285.357 91.8788 286.681 88.8208 287.569 85.3531C288.456 81.8855 288.77 77.8717 288.524 73.4075L288.456 73.3938ZM249.384 106.569C248.223 106.569 246.994 106.487 245.738 106.336C244.046 106.132 242.585 105.504 241.438 104.466C241.124 104.193 240.824 103.715 240.551 103.074C240.264 102.391 240.032 101.599 239.868 100.739C239.704 99.838 239.54 98.9097 239.404 97.9404C239.267 96.9847 239.172 96.0973 239.117 95.2782C238.953 93.3669 238.776 90.8413 238.598 87.7695L238.011 77.4076C237.602 70.2402 237.301 64.2879 237.069 59.2502C236.851 54.431 236.796 50.5402 236.905 47.7005C237.233 47.6186 237.615 47.5367 238.08 47.4684C238.762 47.3729 239.499 47.25 240.291 47.1135C241.056 46.9906 241.861 46.8814 242.68 46.7995C243.499 46.7176 244.264 46.6629 244.96 46.622C246.257 46.5537 247.431 46.5128 248.469 46.5128C249.07 46.5128 249.629 46.5128 250.134 46.5537C251.527 46.622 252.838 46.7449 254.025 46.9087C257.029 47.25 259.882 48.2602 262.503 49.8985C265.138 51.5368 267.486 53.6255 269.479 56.0829C271.473 58.554 273.097 61.38 274.326 64.5063C275.541 67.619 276.265 70.9091 276.456 74.2539C276.879 81.8582 275.678 88.4248 272.879 93.7765C270.094 99.0872 265.589 102.869 259.472 104.999C258.175 105.476 256.756 105.831 255.24 106.063C253.711 106.295 252.196 106.459 250.735 106.541C250.285 106.569 249.834 106.582 249.356 106.582L249.384 106.569ZM176.222 70.8272C178.461 72.2061 180.208 74.1857 181.45 76.7523C182.119 78.1448 182.597 79.5783 182.857 81.039C183.116 82.4862 183.143 83.9606 182.925 85.4077C182.72 86.8548 182.229 88.3156 181.478 89.7491C180.727 91.1826 179.635 92.5751 178.229 93.8857C176.795 95.2782 175.17 96.5342 173.409 97.6127C171.771 98.6093 169.942 99.6059 167.976 100.575L163.976 92.2747C162.925 90.0904 161.846 87.8241 160.74 85.4623C159.634 83.1142 158.665 80.9844 157.819 79.1004L156.563 76.2062C156.276 75.5372 156.044 75.0048 155.894 74.6225C155.757 74.2676 155.648 73.9672 155.593 73.7215C155.552 73.5577 155.511 73.3665 155.457 73.1754C155.757 72.9843 156.153 72.7522 156.617 72.4791C157.273 72.0969 158.16 71.6327 159.266 71.1139C160.767 70.3904 162.297 69.817 163.798 69.4074C165.286 69.0115 166.815 68.7931 168.317 68.7521L168.372 68.206V68.7521C171.375 68.7521 174.037 69.4484 176.249 70.8136L176.222 70.8272ZM114.5 150.774L110.555 141.941C109.244 139.006 108.084 136.344 107.074 133.982C106.063 131.62 105.19 129.613 104.466 127.975C104.043 127.019 103.688 126.2 103.415 125.545C104.493 125.982 105.763 126.501 107.21 127.101C109.231 127.934 111.47 128.862 113.927 129.859C116.371 130.856 118.91 131.907 121.545 132.999C123.934 133.996 126.323 135.006 128.699 136.016L114.5 150.801V150.774Z" fill="white"/>
<path d="M494.972 253.889L494.549 247.691C494.371 245.151 494.18 242.612 493.975 240.073C493.77 237.533 493.607 235.267 493.47 233.26L493.183 229.083L491.286 229.219L491.245 229.683C491.122 231.253 490.931 232.605 490.685 233.697C490.453 234.707 489.934 235.663 489.102 236.55C488.842 236.851 488.364 237.124 487.668 237.356C486.917 237.602 486.057 237.806 485.129 237.957C484.187 238.107 483.163 238.243 482.071 238.339C480.992 238.448 479.914 238.53 478.862 238.598L456.459 240.141C454.698 240.264 452.964 240.359 451.285 240.455L446.63 240.687C445.21 240.755 444.077 240.824 443.258 240.878C442.316 240.946 441.36 240.974 440.363 240.987H439.572C438.862 240.987 438.179 240.987 437.537 240.96C436.677 240.933 435.899 240.865 435.203 240.728C434.561 240.619 434.097 240.441 433.783 240.223C432.868 239.581 432.145 238.639 431.626 237.411C431.626 237.383 431.599 237.342 431.585 237.315L432.24 237.015L432.049 236.523C431.571 235.335 431.339 234.202 431.353 233.178C431.367 232.127 431.517 231.171 431.776 230.352C432.049 229.52 432.363 228.796 432.705 228.209C433.141 227.472 433.36 227.171 433.442 227.049L436.418 223.608C437.264 222.625 438.397 221.438 439.804 220.1C442.616 217.274 445.456 214.42 448.35 211.553C451.244 208.686 454.234 205.724 457.319 202.666C460.418 199.608 463.627 196.413 466.958 193.082C470.289 189.751 473.811 186.242 477.524 182.543L477.798 182.27L477.224 180.986L476.91 180.959C476.446 180.918 475.832 180.822 475.081 180.7C474.344 180.577 473.511 180.358 472.623 180.072C471.736 179.785 470.835 179.389 469.92 178.897C469.019 178.406 468.132 177.778 467.299 177.041L466.889 176.672L465.279 178.515C461.743 178.583 457.947 178.679 453.906 178.802C449.77 178.925 445.66 179.02 441.565 179.089L429.619 179.293C425.756 179.362 422.302 179.403 419.257 179.416H419.025C415.858 179.416 413.387 179.307 411.667 179.089C409.496 178.816 408.622 178.597 408.199 178.447C408.172 178.447 408.035 178.392 407.653 178.174L407.994 177.792L407.626 177.423C406.656 176.467 405.905 175.512 405.4 174.57C404.895 173.614 404.54 172.74 404.363 171.935C404.185 171.129 404.09 170.447 404.103 169.914C404.117 169.177 404.144 169.013 404.158 168.959C404.308 168.303 404.704 167.525 405.332 166.624C405.974 165.696 406.67 164.808 407.421 163.989C409.714 161.354 411.912 158.883 414.001 156.563L425.824 143.457C427.599 141.477 429.469 139.456 431.408 137.395C432.827 135.907 434.302 134.405 435.817 132.903C437.292 131.443 438.479 130.46 439.367 129.982C440.281 129.504 441.319 129.258 442.452 129.258C442.712 129.258 442.985 129.258 443.271 129.299C444.732 129.436 446.357 130.269 448.09 131.77L448.5 132.112L449.811 130.651L435.094 117.367L434.752 117.545C434.315 117.763 432.609 118.569 429.687 119.934C426.739 121.299 423.025 122.992 418.547 124.999C414.069 127.006 409.045 129.245 403.475 131.716C398.342 133.982 393.045 136.289 387.693 138.583L404.008 89.3394L389.304 76.0696L388.035 77.4757L388.321 77.8443C388.758 78.3904 389.263 79.1003 389.823 79.9604C390.356 80.7795 390.751 81.6806 390.997 82.6499C391.243 83.6055 391.257 84.6568 391.065 85.7762C390.874 86.8821 390.274 88.0425 389.277 89.2302C388.171 90.5408 387.229 91.633 386.437 92.5067L378.942 100.807C376.348 103.674 373.823 106.446 371.42 109.012C369.086 111.511 366.983 113.695 365.195 115.524C363.161 117.695 361.29 119.456 359.652 120.753C358.041 122.036 356.485 122.937 355.024 123.456C354.082 123.784 353.14 123.961 352.211 123.961C351.734 123.961 351.256 123.92 350.778 123.825C349.345 123.552 347.734 122.896 345.986 121.859L345.604 121.627L345.317 121.954C345.263 121.872 345.194 121.791 345.153 121.722C344.73 120.958 344.416 120.234 344.211 119.593C343.966 118.773 343.884 118.405 343.87 118.255L343.365 113.736C343.215 112.439 343.119 110.814 343.078 108.862C342.914 104.876 342.751 100.848 342.614 96.7799C342.478 92.7115 342.327 88.5067 342.191 84.1516C342.054 79.7966 341.89 75.2777 341.713 70.5677C341.536 65.8578 341.344 60.8884 341.153 55.6596V55.2774L339.802 54.8405L339.57 55.0453C339.228 55.3593 338.737 55.7415 338.136 56.2057C337.535 56.6699 336.812 57.134 335.993 57.5846C335.174 58.0351 334.273 58.431 333.29 58.7723C332.32 59.1 331.255 59.332 330.15 59.4413L329.604 59.4959L329.863 61.9396C327.515 64.5881 325.016 67.4278 322.354 70.4722C319.637 73.5849 316.907 76.6703 314.177 79.7147L306.217 88.6159C303.637 91.4965 301.316 94.0631 299.268 96.302C297.057 98.7048 295.241 100.507 293.876 101.64C292.197 103.046 291.459 103.538 291.05 103.742C291.009 103.77 290.695 103.947 289.016 104.316C288.483 104.439 287.91 104.493 287.323 104.493C286.627 104.493 285.876 104.411 285.098 104.248L284.62 104.152L283.992 106.063L302.968 112.371L303.569 110.569L303.146 110.35C302.449 109.995 301.726 109.613 300.961 109.203C300.238 108.821 299.583 108.357 299.023 107.852C298.477 107.36 298.081 106.828 297.821 106.268C297.589 105.777 297.576 105.231 297.767 104.643C298.149 103.483 299.432 101.585 301.562 99.0188C302.996 97.3123 304.429 95.6331 305.862 93.9539C307.214 92.3566 308.634 90.691 310.095 88.9435L331.788 96.1655C331.897 98.5 331.965 100.739 332.02 102.882C332.075 105.149 332.116 107.196 332.116 109.026C332.116 110.855 332.088 112.398 332.02 113.64C331.952 114.842 331.829 115.688 331.679 116.139C331.46 116.78 331.092 117.217 330.518 117.49C329.877 117.79 329.194 117.954 328.47 118.009C328.238 118.023 327.993 118.036 327.774 118.036C327.283 118.036 326.819 118.009 326.368 117.941C325.467 117.804 325.235 117.736 325.18 117.722L324.661 117.545L324.033 119.429L349.659 127.961V127.907L362.328 139.32L363.611 137.9L363.311 137.531C361.713 135.62 360.635 133.9 360.116 132.412C359.611 130.965 359.543 129.518 359.925 128.125C360.307 126.692 361.099 125.176 362.287 123.606C363.502 121.995 365.058 120.139 366.901 118.091L374.505 109.654C376.676 107.237 378.765 104.957 380.744 102.8L386.751 96.2747C388.321 94.5682 390.055 92.6569 391.98 90.5408C391.844 90.964 391.68 91.4419 391.502 91.9607C390.861 93.8583 390.096 96.2338 389.195 99.1007C388.294 101.954 387.243 105.19 386.055 108.807C384.854 112.425 383.584 116.316 382.233 120.466C380.881 124.617 379.447 128.917 377.932 133.368C376.417 137.818 373.263 147.17 373.263 147.17L374.219 148.03L374.56 147.839C374.874 147.661 375.57 147.334 376.635 146.842C377.727 146.351 378.915 145.777 380.212 145.149C381.495 144.521 382.765 143.907 384.007 143.32C385.236 142.747 386.164 142.323 386.792 142.078C391.175 140.139 395.188 138.351 398.834 136.74C402.479 135.129 406.056 133.559 409.578 132.043C413.1 130.528 416.704 128.944 420.363 127.306C423.366 125.968 426.602 124.521 430.083 122.978L407.612 147.893C405.264 150.501 402.697 153.245 400.008 156.057C399.189 156.877 398.315 157.668 397.441 158.392C396.581 159.088 395.775 159.607 395.052 159.921C394.438 160.18 393.714 160.303 392.922 160.303C392.226 160.303 391.448 160.208 390.629 160.017C388.813 159.593 386.929 158.583 385.031 157.027L384.635 156.699L383.27 158.214L401.769 174.897L401.714 174.925L409.974 193.137L411.708 192.345L411.585 191.894C411.38 191.143 411.161 190.352 410.943 189.519C410.738 188.727 410.629 187.935 410.615 187.171C410.615 186.447 410.725 185.792 410.957 185.218C411.161 184.713 411.544 184.331 412.117 184.072C413.237 183.567 415.489 183.212 418.834 183.034C421.059 182.939 423.271 182.843 425.469 182.747C427.558 182.665 429.742 182.57 432.022 182.447L441.456 203.267C439.817 204.932 438.234 206.502 436.691 208.004C435.066 209.574 433.592 210.994 432.254 212.25C430.93 213.492 429.769 214.516 428.814 215.308C427.885 216.072 427.189 216.564 426.752 216.755C426.411 216.905 426.083 216.987 425.769 216.987C425.496 216.987 425.237 216.932 424.977 216.823C424.322 216.564 423.735 216.168 423.216 215.676C422.67 215.158 422.206 214.611 421.851 214.079C421.346 213.328 421.223 213.11 421.209 213.069L420.977 212.577L419.175 213.396L428.363 233.656L430.343 262.517L432.295 262.38V261.862C432.24 259.541 432.554 257.684 433.21 256.36C433.865 255.035 434.534 254.121 435.216 253.643C435.981 253.056 436.991 252.687 438.247 252.551C439.599 252.401 441.21 252.223 443.094 252.046C445.019 251.854 447.422 251.663 450.247 251.472L459.667 250.831C459.667 251.418 459.695 251.909 459.722 252.332C459.763 252.878 459.708 253.711 459.545 254.817C459.367 256.264 458.753 257.711 457.743 259.09C456.678 260.537 455.504 261.889 454.261 263.145C452.719 264.66 451.312 265.984 450.056 267.104C448.814 268.21 447.558 269.261 446.343 270.23C445.101 271.2 443.858 272.155 442.589 273.097C441.319 274.053 439.885 275.145 438.302 276.387C437.019 277.425 436.049 278.176 435.408 278.667C434.739 279.172 434.234 279.582 433.892 279.923C433.551 280.251 433.251 280.538 433.005 280.797C432.745 281.056 432.377 281.48 431.872 282.053L431.722 282.217L433.018 301.139L434.916 301.002L434.957 300.538C435.176 297.835 435.899 295.405 437.128 293.33C438.37 291.227 440.432 288.975 443.299 286.64C445.21 285.084 447.394 283.323 449.865 281.343C452.336 279.364 454.643 277.534 456.787 275.841C457.975 274.872 459.053 273.848 460.022 272.811C460.76 272.005 461.374 271.186 461.825 270.367C462.534 272.005 463.367 273.575 464.296 275.049C465.388 276.797 466.671 278.312 468.132 279.582C469.593 280.852 471.272 281.862 473.115 282.558C474.644 283.132 476.323 283.418 478.112 283.418C478.507 283.418 478.903 283.405 479.313 283.377C482.944 283.132 485.962 282.08 488.255 280.265C490.535 278.463 492.31 276.155 493.511 273.398C494.712 270.708 495.341 267.746 495.368 264.606C495.395 261.52 495.272 257.943 494.999 253.998L494.972 253.889ZM490.385 248.455L490.48 249.001C490.863 249.001 491.177 249.015 491.436 249.056C491.6 249.083 491.791 249.11 491.996 249.124C492.064 249.479 492.132 249.93 492.214 250.462C492.323 251.227 492.419 252.223 492.501 253.424C492.61 255.09 492.583 256.715 492.392 258.271C492.214 259.8 491.846 261.302 491.313 262.708C490.194 265.52 488.555 267.746 486.453 269.316C484.351 270.886 481.839 271.773 479.013 271.964C478.617 271.991 478.221 272.005 477.825 272.005C476.705 272.005 475.6 271.896 474.521 271.664C473.088 271.363 471.709 270.845 470.439 270.107C469.169 269.37 467.995 268.374 466.944 267.145C465.893 265.903 465.005 264.374 464.309 262.585C463.545 260.728 462.985 258.763 462.644 256.728C462.33 254.844 462.084 252.769 461.92 250.571L471.108 249.943C473.524 249.779 476.036 249.616 478.63 249.465C481.224 249.315 483.559 249.206 485.62 249.124L488.774 249.042C489.443 249.029 489.989 249.015 490.385 249.015V248.455ZM462.78 181.341C461.975 182.188 461.019 183.171 459.927 184.29C458.398 185.86 456.719 187.594 454.876 189.505C453.046 191.403 451.135 193.382 449.128 195.417C447.312 197.273 445.497 199.103 443.681 200.932L435.216 182.27L444.882 181.887C448.104 181.764 450.998 181.669 453.565 181.601C456.132 181.546 458.316 181.478 460.118 181.409C461.169 181.369 462.043 181.341 462.767 181.328L462.78 181.341ZM328.498 67.6325C329.18 66.8407 329.767 66.1718 330.245 65.6393C330.313 66.7998 330.395 68.165 330.477 69.735C330.587 71.9193 330.723 74.3357 330.873 76.9843C331.023 79.6191 331.174 82.3632 331.31 85.2165C331.433 87.8104 331.556 90.3907 331.665 92.9709L312.224 86.4998L318.518 79.1413C320.607 76.6976 322.504 74.4996 324.211 72.5746C325.917 70.6497 327.351 68.9978 328.525 67.6462L328.498 67.6325Z" fill="white"/>
<path d="M264.182 126.91C179.689 126.91 110.937 195.649 110.937 280.155V326.382C112.302 326.423 113.668 326.45 115.033 326.518V280.169C115.033 197.929 181.942 131.019 264.182 131.019C346.423 131.019 413.332 197.929 413.332 280.169V322.586C414.711 322.641 416.063 322.723 417.428 322.791V280.169C417.428 195.676 348.689 126.924 264.182 126.924V126.91Z" fill="white"/>
<path d="M16.6828 344.362C17.0514 344.102 17.6931 343.652 18.5668 343.269C18.5941 343.269 18.6214 343.242 18.6487 343.228V249.629C18.6624 114.241 128.794 4.09564 264.182 4.09564C399.571 4.09564 509.716 114.241 509.716 249.629V344.785C509.716 344.785 509.784 344.812 509.812 344.839C510.371 345.153 510.931 345.508 511.491 345.863L513.812 347.433V249.643C513.812 111.975 401.823 0 264.182 0C126.542 0 14.5667 111.975 14.5667 249.629V345.699L16.6964 344.362H16.6828Z" fill="white"/>
<path d="M511.191 401.4C510.713 401.687 510.208 401.946 509.716 402.219V406.424C509.716 541.813 399.571 651.958 264.182 651.958C128.794 651.958 18.6623 541.813 18.6623 406.424V381.796C17.3244 381.796 15.9592 381.81 14.5667 381.837V406.424C14.5667 544.065 126.542 656.054 264.196 656.054C401.851 656.054 513.825 544.079 513.825 406.424V399.83C512.952 400.349 512.092 400.882 511.204 401.4H511.191Z" fill="white"/>
<path d="M264.182 529.143C329.672 529.143 385.7 487.832 407.585 429.919C406.083 430.042 404.581 430.152 403.079 430.247C381.304 485.688 327.255 525.047 264.182 525.047C190.693 525.047 129.463 471.627 117.258 401.578C115.797 401.168 114.35 400.745 112.903 400.322C124.63 473.251 188.004 529.143 264.182 529.143Z" fill="white"/>
</svg>
