<svg width="909" height="185" viewBox="0 0 909 185" fill="none" xmlns="http://www.w3.org/2000/svg">
<path d="M125.926 173.172C161.002 179.496 196.298 178.683 231.639 176.636C231.675 176.805 231.712 176.975 231.748 177.144C227.996 178.309 224.275 179.601 220.481 180.607C210.054 183.376 199.402 184.546 188.633 184.911C174.858 185.382 161.275 184.034 147.843 181.014C140.675 179.405 133.75 177.07 127.111 173.912C126.706 173.72 126.309 173.51 125.926 173.172ZM43.1924 109.397C57.3498 106.705 71.617 106.12 85.9385 107.226C91.7471 107.673 97.5283 108.697 103.282 109.68C111.9 111.156 120.281 113.623 128.574 116.364C138.058 119.499 147.287 123.292 156.333 127.524C168.945 133.427 181.515 139.436 194.692 144.015C204.017 147.259 213.496 149.969 223.107 152.235C231.201 154.145 239.349 155.74 247.583 156.887C256.843 158.18 266.154 158.801 275.496 159.062C284.693 159.318 293.871 159.003 303.022 158.084C313.263 157.056 323.408 155.42 333.421 152.993C341.765 150.969 349.922 148.338 357.987 145.413C358.261 145.313 358.544 145.239 358.822 145.152C358.881 145.262 358.941 145.372 359 145.477V145.482C356.588 146.962 354.208 148.498 351.76 149.914C344.004 154.401 335.747 157.737 327.229 160.438C316.898 163.714 306.328 165.912 295.613 167.502C282.386 169.462 269.09 170.102 255.749 169.604C242.873 169.124 230.125 167.539 217.49 164.911C204.952 162.302 192.901 158.203 181.101 153.327C169.178 148.401 157.368 143.197 145.386 138.422C137.074 135.109 128.606 132.152 120.116 129.323C108.69 125.517 97.0225 122.593 85.1953 120.313C76.5003 118.636 67.7407 117.544 58.9043 116.982C48.3127 116.305 37.7348 116.428 27.166 117.333C23.1992 117.671 19.2409 118.184 15.2832 118.609C14.914 118.65 14.5398 118.658 14.084 118.489C14.3028 118.352 14.5038 118.179 14.7363 118.078C23.8827 114.075 33.3849 111.261 43.1924 109.397ZM52.5029 130.229C63.113 130.279 73.6505 131.32 84.0508 133.5C90.3566 134.821 96.6946 136.05 102.937 137.636C114.673 140.62 126.14 144.476 137.401 148.949C149.174 153.628 160.989 158.221 172.825 162.74C177.499 164.527 182.286 166.008 187.023 167.63C187.251 167.708 187.47 167.817 187.675 168.118C187.365 168.159 187.055 168.223 186.74 168.233C176.787 168.42 166.847 168.128 156.953 166.99C146.307 165.77 135.815 163.617 125.438 160.985C111.764 157.517 98.1261 153.889 84.5205 150.147C75.4152 147.643 66.4419 144.654 57.332 142.168C46.6674 139.262 35.8429 137.133 24.7998 136.173C18.0061 135.583 11.2302 135.606 4.43652 135.903C2.97301 135.967 1.50941 135.913 0.0458984 135.913C0.0324659 135.77 0.0135908 135.626 0 135.486C2.61251 134.883 5.20746 134.19 7.84277 133.688C22.6018 130.891 37.5296 130.156 52.5029 130.229ZM493.184 31.921H492.692C492.201 31.921 491.464 32.0441 490.851 32.0441C489.746 32.1666 486.432 32.6564 485.817 32.9015C482.012 34.1267 478.942 36.4546 477.224 39.5177C476.487 40.988 475.996 42.5816 475.996 44.297V116.099C475.996 119.897 475.259 123.941 473.663 128.107C472.19 132.395 469.98 136.194 467.033 139.625C463.596 143.423 459.545 146.486 454.88 148.692C450.092 150.897 444.812 152 438.674 152C429.344 152 421.732 149.305 415.839 144.036C409.946 138.89 407 131.783 407 122.838C407 118.917 408.105 115.486 410.069 112.423C412.034 109.36 414.98 107.89 418.908 107.89C422.346 107.89 425.17 108.87 427.257 110.83C429.344 112.668 430.448 115.241 430.448 118.427C430.448 120.265 430.08 122.103 429.344 123.941C428.484 125.778 427.748 127.372 426.766 128.842C425.906 130.19 424.924 131.783 423.819 133.498C422.714 135.336 421.977 136.929 421.486 138.4C422.714 140.237 424.556 141.953 427.134 143.301C429.712 144.771 433.149 145.506 437.446 145.506C441.743 145.506 445.181 144.526 447.882 142.566C450.583 140.728 452.547 138.155 453.897 134.969C455.125 131.906 455.985 128.23 456.599 123.818C457.09 119.53 457.458 114.629 457.458 109.237V44.297C457.458 42.5816 456.966 40.988 456.229 39.5177C454.511 36.4547 451.441 34.1267 447.636 32.9015C447.021 32.6563 443.707 32.0441 442.603 32.0441C441.989 32.044 440.761 31.921 440.761 31.921H440.271V28.0001H493.184V31.921ZM889.603 124.432V86.8146C889.603 83.629 889.48 80.4435 889.479 77.503C889.479 74.6849 889.111 72.4787 888.497 70.8858C887.76 68.8029 886.533 67.2097 884.691 65.9845C882.727 64.7593 879.904 63.7793 876.221 63.2892L874.87 63.0441V59.0011L875.361 59.1232H909V63.4112H907.649C904.826 63.7788 902.492 64.514 900.896 65.4942C899.301 66.4745 898.073 67.9455 897.214 70.0284C896.846 70.8861 896.477 72.479 896.231 76.3995C896.109 79.7078 895.863 83.2613 895.74 87.0597C895.495 90.613 895.373 94.7791 895.25 99.5577C895.004 104.336 895.004 109.483 895.004 114.996V148.447C895.004 149.182 894.759 149.795 894.268 150.285C893.899 150.653 893.285 151.021 892.303 151.021C891.198 151.02 890.093 150.407 888.988 149.305C881.991 141.218 875.607 133.866 869.837 127.127L853.386 107.89C848.107 101.763 843.073 95.759 838.039 90.0001C833.865 85.0992 829.446 80.0758 824.903 74.9298V122.839C824.903 127.005 824.903 130.803 825.148 134.111C825.271 137.174 825.762 139.502 826.499 140.973C827.236 142.566 828.464 143.791 830.06 144.526C831.901 145.384 834.356 146.119 837.548 146.609H838.898V150.775H805.506V146.486H806.856C808.698 146.241 810.539 145.752 812.381 145.017C813.977 144.282 815.327 143.301 816.31 141.708C817.292 140.115 818.028 137.787 818.273 134.724C818.642 131.415 818.888 127.372 819.011 122.716C819.134 119.163 819.379 114.997 819.379 110.218C819.502 105.439 819.501 100.293 819.501 94.7794V79.8302C819.501 78.1149 819.379 76.1541 819.379 73.8263C819.256 71.7436 818.642 70.0285 817.905 68.6808C817.046 67.3331 816.064 66.3524 815.082 65.6173C813.977 64.8821 812.749 64.3921 811.521 64.0245C810.171 63.6569 808.82 63.4116 807.593 63.0441H806.242V58.878H833.497L889.603 124.432ZM800.965 63.0441L799.614 63.2892C798.018 63.5342 796.176 64.0242 794.335 64.6368C792.739 65.1269 791.512 66.2297 790.652 67.8224C790.039 69.0476 789.67 70.6407 789.67 72.4786C789.67 74.5616 789.547 76.5221 789.547 78.4825V131.66C789.547 133.988 789.67 136.317 789.67 138.523C789.793 140.973 790.284 141.953 790.529 142.32C791.266 143.546 792.616 144.404 794.458 145.017H794.09C796.054 145.629 797.895 146.119 799.491 146.364H800.842V150.53H760.451V146.486L761.802 146.241C763.766 145.996 765.607 145.507 767.203 144.772C768.676 144.159 770.027 143.178 771.132 141.953C771.255 141.708 771.501 141.34 771.746 140.483C771.992 139.625 772.236 138.522 772.236 137.419C772.482 136.194 772.482 134.969 772.482 133.621V129.7C772.482 128.598 772.605 127.004 772.728 125.044V75.9093C772.728 74.5616 772.605 73.2136 772.605 71.9884C772.483 70.8857 772.36 69.783 772.114 68.8028C771.991 68.0677 771.745 67.4546 771.377 67.087C770.395 65.8621 769.29 65.0048 767.817 64.5148C766.221 64.0246 764.379 63.5337 762.415 63.1661H761.064V59.0001H800.965V63.0441ZM530.011 58.0216C532.466 64.7607 534.922 71.0099 537.132 77.0138C539.464 83.14 541.674 89.0212 543.761 94.6573C545.848 100.294 547.935 105.808 549.899 111.076C551.864 116.345 553.829 121.615 555.793 126.761C556.652 129.334 557.512 131.416 558.248 133.009L560.949 138.769C561.072 139.014 561.44 139.504 561.931 140.238C562.422 140.851 563.158 141.709 564.018 142.444C564.754 143.18 565.859 143.792 567.087 144.404C568.069 144.895 569.42 145.14 570.771 145.263C572.121 145.018 573.594 144.772 574.821 144.282C576.54 143.792 577.768 142.934 578.627 141.831C578.872 141.586 579.119 141.219 579.364 140.238C579.61 139.381 579.855 138.278 579.855 137.175C579.978 135.95 580.101 134.602 580.101 133.254V129.333C580.101 128.23 580.224 126.638 580.347 124.678V75.5431C580.347 74.0727 580.223 72.7249 580.101 71.3771C579.978 70.1519 579.733 68.9266 579.487 67.9464C579.242 66.8436 578.873 66.3531 578.75 66.2306C577.768 65.1279 576.54 64.3931 575.312 64.0255C573.839 63.6579 572.121 63.2905 569.911 62.923L568.561 62.6778V58.6339H603.795C609.197 58.6339 614.23 58.7565 618.527 59.1241C622.947 59.4917 627.121 60.7174 630.804 62.6778C634.61 64.6383 637.802 67.456 640.135 70.8868C642.467 74.3176 643.694 78.8511 643.694 83.9972C643.694 87.3053 643.081 90.2464 641.854 92.8194C640.626 95.3926 639.03 97.7213 637.065 99.6817C635.101 101.642 632.768 103.357 630.19 104.705C628.472 105.563 626.63 106.42 624.788 107.155C625.525 107.645 626.261 108.381 626.998 109.116C628.348 110.464 629.699 112.179 630.927 113.895C633.137 116.958 635.469 120.389 637.925 123.942C640.503 127.496 642.713 130.681 644.677 133.499C647.623 137.543 650.448 140.606 653.148 142.444C655.481 144.037 658.305 145.017 661.251 145.63C662.601 145.385 664.074 145.14 665.425 144.527C667.143 143.792 668.371 142.934 669.23 141.954C669.353 141.709 669.599 141.464 669.845 140.484C669.968 139.503 670.213 138.523 670.336 137.298C670.459 136.073 670.704 134.847 670.704 133.499V129.578C670.704 128.475 670.826 126.882 670.949 124.922V75.7882C670.949 74.4404 670.826 73.0925 670.826 71.8673C670.703 70.7647 670.581 69.6619 670.336 68.6817C670.213 67.9466 669.967 67.3335 669.599 66.9659C668.494 65.7407 667.266 64.8828 665.793 64.3927C664.197 63.7801 662.356 63.4126 660.269 63.045H658.918V58.879H706.675C709.376 58.879 712.2 59.0012 714.9 59.2462C717.724 59.4913 720.548 59.8591 723.249 60.4718C726.072 61.0844 728.896 61.942 731.597 63.1671C735.157 64.76 738.472 66.7209 741.664 69.0489C744.733 71.4995 747.557 74.3178 749.89 77.6261L750.013 76.8907C752.345 80.199 754.31 83.9977 755.66 88.2862C757.011 92.5746 757.747 97.4758 757.747 102.989C757.747 109.238 756.887 114.875 755.414 119.653C753.941 124.432 751.854 128.721 749.153 132.151C746.575 135.582 743.383 138.524 739.945 140.852C736.508 143.18 732.702 145.018 728.896 146.365C724.968 147.713 720.916 148.694 716.865 149.184C712.814 149.796 708.762 150.041 704.956 150.041H636.451L635.96 149.551C635.101 148.816 634.609 148.203 634.241 147.835C633.873 147.468 633.505 146.977 633.137 146.487C632.768 145.875 632.155 145.139 631.541 144.159C630.927 143.302 630.067 141.831 628.717 139.993C627.121 137.665 625.771 135.582 624.543 133.744C623.438 131.906 622.21 130.191 620.982 128.354C619.755 126.638 618.527 124.8 617.054 122.962C615.703 121.124 613.985 119.163 612.021 116.835C610.425 114.997 608.706 113.282 606.864 111.69C605.146 110.219 603.304 109.361 601.463 108.993C598.148 108.258 598.025 108.503 596.92 108.503V130.682C597.043 133.255 597.165 135.582 597.165 137.42C597.288 139.013 597.657 140.361 598.271 141.341C598.639 142.076 599.498 142.934 601.585 144.159C603.181 145.14 605.637 145.63 608.706 145.875H610.179V150.041H533.694V145.752H535.167C535.29 145.752 535.904 145.629 536.641 145.507C537.5 145.384 538.36 145.14 539.342 144.773C540.201 144.405 540.938 143.914 541.552 143.302C542.043 142.812 542.288 142.321 542.288 141.586C542.288 141.218 542.165 140.36 541.674 138.4C541.306 136.808 540.692 134.725 539.833 132.397C538.974 129.946 538.114 127.25 537.009 124.31C536.027 121.737 535.044 118.919 533.939 116.101H503.247C502.142 118.919 501.038 121.492 500.056 124.065C498.951 126.883 497.723 129.824 496.618 132.642C494.654 137.91 494.163 140.361 494.163 141.464C494.163 142.199 494.408 142.689 494.776 143.057C495.39 143.547 496.004 144.037 496.863 144.404C497.723 144.772 498.705 145.018 499.81 145.263C500.914 145.385 502.02 145.63 503.125 145.752L504.476 145.997V150.041H475.134V145.63H476.484C478.448 145.507 480.044 144.894 481.395 144.159C483.211 143.072 483.594 142.7 483.604 142.69C483.973 142.199 484.71 141.342 486.306 138.769C487.533 136.686 489.129 133.622 490.971 129.456C492.689 125.658 494.654 121.247 496.741 116.346L503.37 101.151C505.703 96.0053 507.913 90.7366 510.123 85.4679C512.21 80.4442 514.297 75.665 516.139 71.254L514.542 67.7013L516.016 67.089C517.366 66.4764 518.593 65.7406 519.698 64.8829C520.803 64.0253 521.785 63.1677 522.645 62.1876C523.381 61.2074 524.119 60.349 524.732 59.4913C525.346 58.6336 526.082 57.4083 526.082 57.4083L526.573 56.6739H529.52L530.011 58.0216ZM705.693 64.3927C703.238 64.1476 699.923 63.9025 695.503 64.1476C694.398 64.1476 693.293 64.3927 692.188 64.3927C691.084 64.6377 690.101 64.7608 689.119 64.7608H688.137C687.768 68.5592 687.523 73.7051 687.523 80.0763V130.068C687.523 131.171 687.645 132.397 687.646 133.744C687.768 135.092 687.892 136.44 688.015 137.665C688.137 138.768 688.383 139.871 688.751 140.729C689.119 141.709 689.488 142.199 689.733 142.444C691.207 143.792 692.925 144.772 695.135 145.14C699.923 145.997 704.097 145.875 708.148 145.507C710.235 145.262 712.199 144.894 713.918 144.404C722.389 141.954 728.773 137.175 732.947 130.192H732.702C736.999 123.085 739.086 114.263 739.086 103.848C739.086 99.3142 738.472 94.7799 736.999 90.4913C735.649 86.2029 733.685 82.2819 731.106 78.7286C728.651 75.1753 725.581 72.2349 722.144 69.7843C718.829 67.4563 715.023 65.8632 710.972 65.128C709.376 64.883 707.657 64.6377 705.693 64.3927ZM167.846 127.272C224.963 135.894 282.299 133.911 339.677 130.096C339.741 130.347 339.799 130.594 339.863 130.845H339.859C333.786 132.654 327.767 134.661 321.625 136.237C304.737 140.578 287.456 142.548 269.966 143.329C247.597 144.33 225.496 142.625 203.615 138.44C191.938 136.205 180.64 132.892 169.788 128.346C169.127 128.067 168.479 127.765 167.846 127.272ZM115.785 102.775C125.501 102.994 135.218 103.241 144.935 103.419C151.655 103.542 158.371 103.575 165.092 103.625C190.301 103.803 215.516 104.022 240.726 104.113C251.846 104.155 262.971 103.812 274.097 103.844C284.574 103.876 295.034 104.406 305.448 105.704C314.317 106.805 323.053 108.518 331.62 111.077C338.291 113.07 344.765 115.542 350.861 118.951C351.313 119.203 351.746 119.491 352.188 119.765C315.275 112.038 278.192 109.2 240.703 113.207C237.443 113.554 234.205 114.139 230.959 114.619C230.968 114.779 230.977 114.939 230.986 115.099C230.986 115.099 236.695 115.469 238.587 115.689V115.692C250.834 117.114 268.812 118.946 268.475 119.056C266.318 119.769 264.162 120.514 261.955 121.012C252.097 123.242 231.743 124.612 219.569 124.471C171.361 123.913 159.743 118.366 159.743 118.366C160.6 117.919 161.576 117.649 162.529 117.439C169.018 116.017 175.506 114.61 182.008 113.243C183.786 112.869 185.596 112.654 187.42 112.206C186.978 112.165 186.54 112.097 186.098 112.088C179.76 111.992 173.422 111.85 167.08 111.827C157.61 111.791 148.153 111.48 138.893 109.364C130.982 107.555 123.158 105.348 115.302 103.315C115.06 103.251 114.832 103.131 114.622 102.775C115.01 102.775 115.398 102.765 115.785 102.775ZM518.962 78.6066C518.716 79.0966 518.471 79.5868 518.226 80.1993C517.243 82.4049 516.138 85.2231 514.665 88.5314C513.192 91.8396 511.719 95.5158 510 99.6817L505.335 111.076H531.607C530.503 108.136 529.275 105.073 528.17 102.132C526.697 98.4561 525.346 94.7801 523.995 91.4718C522.645 88.1635 521.417 84.9774 520.312 82.1593C519.821 80.8117 519.33 79.7092 518.962 78.6066ZM609.074 64.3927C605.269 63.6575 600.849 63.6574 598.394 63.9024H597.165V64.1476C597.042 64.5152 597.043 64.883 597.043 65.3732V67.7013L596.797 72.1124C596.551 74.9305 596.552 78.2388 596.552 81.7921V104.215C599.253 104.215 601.831 104.093 604.286 103.848C607.11 103.603 609.811 102.99 612.389 102.132C614.967 101.397 617.054 100.416 618.772 99.0685C620.491 97.7206 621.964 96.2502 623.069 94.6573L622.824 94.7804C623.929 93.1876 624.788 91.3496 625.279 89.5118C625.893 87.5515 626.139 85.5907 626.139 83.5079C626.139 79.7095 625.157 76.2777 623.315 73.337C621.474 70.3964 618.65 67.9459 614.967 66.2306C613.125 65.3729 611.161 64.7603 609.074 64.3927ZM168.102 1.23155C181.557 -0.948 194.875 -0.284685 207.997 3.62218C221.534 7.65241 233.366 14.5837 243.584 24.3165C252.749 33.0488 259.57 43.3768 264.316 55.0792C268.953 66.5119 270.882 78.4475 270.595 90.7667C270.563 92.1646 270.554 92.1788 268.949 92.1788L189.772 92.1925H182.938V92.2101L182.934 92.2198H97.3779C97.15 92.2198 96.9177 92.1879 96.6943 92.2198C95.6776 92.3615 95.4222 91.895 95.4131 90.9171C95.3265 82.5915 96.0335 74.3801 98.0762 66.2648C101.71 51.83 108.626 39.2229 118.63 28.2745C125.624 20.6252 133.773 14.465 142.951 9.69444C150.889 5.56832 159.274 2.66177 168.102 1.23155Z" fill="white"/>
</svg>
