<svg width="613" height="497" viewBox="0 0 613 497" fill="none" xmlns="http://www.w3.org/2000/svg">
<path d="M109.75 254.82C107.5 253.54 105.78 251.8 104.6 249.6C103.42 247.39 102.86 244.89 102.95 242.08C103.03 239.24 103.68 236.75 104.9 234.61C106.12 232.47 107.8 230.81 109.95 229.63C112.1 228.44 114.6 227.87 117.44 227.92C118.21 227.94 118.99 228.02 119.8 228.16L119.15 250.4H119.5C122.08 250.33 124.14 249.59 125.68 248.17C127.22 246.75 128.03 244.84 128.1 242.42C128.16 240.5 127.75 238.87 126.89 237.54C126.03 236.21 124.77 235.31 123.14 234.83L123.32 228.61C126.3 229.24 128.72 230.76 130.57 233.18C132.42 235.6 133.29 238.57 133.19 242.11C133.1 245.18 132.4 247.84 131.08 250.09C129.77 252.34 127.96 254.05 125.65 255.24C123.35 256.42 120.7 256.97 117.7 256.88C114.67 256.79 112.03 256.11 109.78 254.83L109.75 254.82ZM115.06 234.19C112.9 234.4 111.2 235.2 109.94 236.61C108.69 238.01 108.03 239.81 107.97 242C107.91 244.04 108.48 245.81 109.69 247.33C110.9 248.85 112.53 249.75 114.6 250.04L115.07 234.2L115.06 234.19Z" fill="white"/>
<path d="M125.93 214.03C127.46 214.25 128.84 213.82 130.08 212.73C131.32 211.65 132.17 210.07 132.63 208.01C133.04 206.17 133.02 204.6 132.58 203.31C132.14 202.01 131.34 201.24 130.17 200.98C129.19 200.77 128.41 200.87 127.8 201.28C127.2 201.7 126.69 202.32 126.29 203.16C125.89 204 125.37 205.31 124.74 207.1C123.89 209.55 123.03 211.53 122.16 213.05C121.29 214.57 120.2 215.71 118.87 216.46C117.54 217.21 115.94 217.38 114.07 216.96C112.31 216.57 110.85 215.73 109.7 214.43C108.55 213.13 107.79 211.53 107.43 209.62C107.06 207.71 107.13 205.65 107.61 203.43C108.41 199.79 109.87 197.01 111.98 195.1C114.09 193.19 116.63 192.46 119.6 192.92L118.3 198.83C116.95 198.69 115.73 199.11 114.63 200.09C113.53 201.07 112.78 202.44 112.4 204.2C112.01 205.96 112.03 207.46 112.47 208.7C112.91 209.94 113.71 210.68 114.87 210.94C115.73 211.13 116.44 211 116.99 210.55C117.54 210.1 117.99 209.48 118.34 208.69C118.69 207.9 119.18 206.61 119.81 204.82C120.62 202.4 121.48 200.41 122.4 198.84C123.32 197.27 124.48 196.11 125.88 195.36C127.29 194.61 129 194.45 131.03 194.9C132.83 195.3 134.3 196.17 135.44 197.52C136.58 198.87 137.31 200.55 137.64 202.55C137.97 204.55 137.88 206.69 137.37 208.98C136.52 212.84 134.96 215.78 132.69 217.77C130.42 219.77 127.74 220.47 124.65 219.86L125.94 214.01L125.93 214.03Z" fill="white"/>
<path d="M120.78 178.79L118.92 183.57L113.82 181.59L115.68 176.81L108 173.82L110.28 167.97L117.96 170.96L120.53 164.35L125.63 166.33L123.06 172.94L137.4 178.52C138.47 178.94 139.32 179.02 139.93 178.76C140.55 178.5 141.05 177.86 141.46 176.82L143.17 172.42L148.27 174.41L146.1 180C145.08 182.61 143.73 184.28 142.05 185.01C140.37 185.74 138.25 185.6 135.71 184.62L120.78 178.81V178.79Z" fill="white"/>
<path d="M146.07 164.68C145.77 163.68 145.89 162.67 146.42 161.64C146.95 160.61 147.72 159.94 148.73 159.59C149.73 159.25 150.74 159.34 151.77 159.88C152.79 160.41 153.45 161.19 153.74 162.21C154.03 163.23 153.91 164.25 153.38 165.27C152.85 166.29 152.08 166.97 151.09 167.29C150.1 167.62 149.09 167.51 148.07 166.98C147.05 166.45 146.39 165.68 146.09 164.68H146.07Z" fill="white"/>
<path d="M507.59 159.46L476.97 174.33L474.63 169.52L495.32 159.47C494.85 159.16 494.4 158.58 493.99 157.74L491.55 152.71L495.66 150.71L498 155.52C498.35 156.25 498.88 156.68 499.59 156.8C500.3 156.92 501.08 156.78 501.92 156.37L505.29 154.73L507.58 159.45L507.59 159.46Z" fill="white"/>
<path d="M510.19 196.23C508.44 197.35 506.46 198.27 504.24 199C499 200.72 494.55 200.94 490.87 199.67C487.19 198.4 484.7 195.75 483.37 191.71C482.36 188.63 482.35 185.84 483.33 183.33C484.32 180.82 486.16 178.9 488.86 177.58L490.53 182.66C489.14 183.52 488.18 184.63 487.65 185.98C487.12 187.33 487.14 188.87 487.7 190.59C488.51 193.05 490.13 194.63 492.58 195.33C495.03 196.03 497.94 195.82 501.33 194.71L502.58 194.3C501.93 194.2 501.56 194.14 501.44 194.11C499.81 193.83 498.37 193.1 497.12 191.94C495.87 190.78 494.94 189.26 494.32 187.38C493.61 185.22 493.43 183.18 493.77 181.24C494.11 179.3 494.94 177.61 496.28 176.17C497.61 174.73 499.38 173.65 501.56 172.93C503.65 172.24 505.68 172.11 507.65 172.54C509.62 172.97 511.36 173.91 512.87 175.36C514.38 176.81 515.52 178.67 516.26 180.95C516.97 183.11 517.15 185.16 516.82 187.11C516.49 189.06 515.7 190.84 514.45 192.44C513.34 193.83 511.91 195.08 510.16 196.2L510.19 196.23ZM499.07 181.36C498.22 182.93 498.12 184.69 498.75 186.63C499.4 188.6 500.54 190 502.17 190.83C503.8 191.66 505.63 191.74 507.63 191.09C509.57 190.45 510.96 189.33 511.8 187.73C512.64 186.13 512.74 184.35 512.1 182.41C511.45 180.44 510.32 179.05 508.69 178.26C507.06 177.46 505.27 177.39 503.29 178.03C501.32 178.68 499.91 179.79 499.06 181.36H499.07Z" fill="white"/>
<path d="M507.07 229.87C505.83 231.46 504.06 232.43 501.75 232.78C499.92 233.05 498.22 232.8 496.65 232.02C495.07 231.24 493.76 229.97 492.69 228.21C491.62 226.45 490.9 224.27 490.51 221.68C490.12 219.08 490.18 216.79 490.69 214.8C491.2 212.81 492.09 211.21 493.37 210C494.65 208.79 496.2 208.05 498.03 207.78C500.31 207.44 502.27 207.84 503.91 208.97C505.55 210.1 506.76 211.69 507.52 213.74C507.67 211.88 508.32 210.26 509.48 208.88C510.63 207.5 512.19 206.66 514.15 206.37C515.91 206.11 517.54 206.34 519.02 207.07C520.51 207.8 521.75 208.98 522.77 210.62C523.78 212.25 524.46 214.24 524.81 216.58C525.16 218.92 525.08 221.02 524.59 222.88C524.1 224.74 523.25 226.23 522.04 227.36C520.83 228.49 519.34 229.19 517.58 229.45C515.69 229.73 513.96 229.37 512.4 228.35C510.84 227.34 509.73 225.94 509.07 224.17C508.97 226.38 508.31 228.28 507.07 229.88V229.87ZM496.86 225.98C498.12 227.17 499.58 227.64 501.25 227.39C502.88 227.15 504.15 226.26 505.06 224.73C505.96 223.2 506.26 221.41 505.96 219.36C505.65 217.28 504.84 215.63 503.53 214.44C502.22 213.24 500.75 212.76 499.11 213.01C497.44 213.26 496.18 214.14 495.33 215.66C494.47 217.18 494.2 218.98 494.51 221.07C494.82 223.15 495.6 224.79 496.86 225.98ZM518.67 212.8C517.55 211.75 516.25 211.34 514.77 211.56C513.26 211.78 512.13 212.56 511.38 213.88C510.63 215.2 510.39 216.8 510.67 218.66C510.95 220.52 511.64 221.96 512.77 222.99C513.89 224.02 515.19 224.42 516.66 224.2C518.13 223.98 519.26 223.22 520.03 221.9C520.8 220.59 521.05 219 520.77 217.14C520.49 215.28 519.79 213.83 518.67 212.78V212.8Z" fill="white"/>
<path d="M526.99 237.35L526.59 261.81L522.99 261.75L492.81 245.31L492.91 239.48L521.97 255.81L522.27 237.29L526.99 237.37V237.35Z" fill="white"/>
<path d="M312.74 127.59C246.23 127.59 192.13 181.7 192.13 248.2C192.13 314.7 246.24 368.81 312.74 368.81C379.24 368.81 433.35 314.7 433.35 248.2C433.35 181.7 379.24 127.59 312.74 127.59ZM369.28 171.71H368.63C367.99 171.71 367.02 171.87 366.21 171.87C364.76 172.03 360.41 172.68 359.6 173C354.61 174.61 350.58 177.68 348.32 181.71C347.35 183.65 346.71 185.74 346.71 188V282.56C346.71 287.56 345.74 292.89 343.65 298.37C341.72 304.02 338.82 309.02 334.95 313.54C330.44 318.54 325.12 322.58 319 325.48C312.72 328.38 305.79 329.84 297.73 329.84C285.49 329.84 275.5 326.29 267.77 319.35C260.04 312.57 256.17 303.21 256.17 291.43C256.17 286.27 257.62 281.75 260.2 277.71C262.78 273.68 266.64 271.74 271.8 271.74C276.31 271.74 280.02 273.03 282.75 275.61C285.49 278.03 286.94 281.42 286.94 285.62C286.94 288.04 286.46 290.46 285.49 292.88C284.36 295.3 283.4 297.4 282.11 299.33C280.98 301.11 279.69 303.2 278.24 305.46C276.79 307.88 275.82 309.98 275.18 311.92C276.79 314.34 279.21 316.6 282.59 318.37C285.97 320.31 290.48 321.27 296.12 321.27C301.76 321.27 306.27 319.98 309.81 317.4C313.35 314.98 315.93 311.59 317.7 307.4C319.31 303.37 320.44 298.52 321.24 292.72C321.88 287.07 322.37 280.62 322.37 273.52V188C322.37 185.74 321.73 183.64 320.76 181.71C318.5 177.68 314.48 174.61 309.48 173C308.67 172.68 304.33 171.87 302.88 171.87C302.08 171.87 300.48 171.71 300.46 171.71H299.82V166.55H369.25V171.71H369.28Z" fill="white"/>
<path d="M167.35 248.21C167.35 168.04 232.57 102.81 312.73 102.81C392.89 102.81 458.13 168.03 458.13 248.21C458.13 254.59 457.71 260.88 456.91 267.05C459.68 267.03 462.46 267.01 465.23 267.01C465.99 260.85 466.38 254.57 466.38 248.21C466.38 163.49 397.45 94.56 312.73 94.56C228.01 94.56 159.09 163.49 159.09 248.21C159.09 257.14 159.86 265.89 161.33 274.41C164.23 274.83 167.12 275.29 169.97 275.77C168.25 266.84 167.34 257.63 167.34 248.21H167.35Z" fill="white"/>
<path d="M506.07 393.95C505.01 394.11 503.93 394.25 502.87 394.39C458.96 451.36 390.07 488.14 312.73 488.14C217.02 488.14 134.22 431.8 95.75 350.54C95.66 350.51 95.57 350.49 95.47 350.46C92.09 349.54 88.76 348.7 85.47 347.9C123.94 435.25 211.32 496.39 312.73 496.39C395.76 496.39 469.4 455.4 514.48 392.61C511.72 393.07 508.92 393.52 506.07 393.94V393.95Z" fill="white"/>
<path d="M72.03 276.65C72.83 276.5 73.64 276.37 74.44 276.22C73.37 267.03 72.8 257.68 72.8 248.21C72.8 115.9 180.43 8.26 312.73 8.26C445.03 8.26 552.68 115.9 552.68 248.21C552.68 257.32 552.15 266.31 551.16 275.15C553.89 275.76 556.58 276.41 559.25 277.09C560.35 267.61 560.94 257.97 560.94 248.2C560.94 111.35 449.59 0 312.73 0C175.87 0 64.54 111.35 64.54 248.21C64.54 258.23 65.15 268.11 66.31 277.82C68.21 277.41 70.11 277.02 72.03 276.65Z" fill="white"/>
<path d="M24.05 301.19C24.42 300.96 24.77 300.66 25.16 300.49C40.78 293.66 57 288.85 73.75 285.67C97.92 281.08 122.28 280.08 146.73 281.97C156.65 282.73 166.52 284.48 176.34 286.16C179.64 286.73 182.92 287.39 186.18 288.11C189.58 298.75 194.3 308.82 200.14 318.11C182.21 312.39 163.95 307.88 145.45 304.32C130.6 301.46 115.65 299.59 100.56 298.63C82.48 297.48 64.41 297.69 46.37 299.23C39.6 299.81 32.84 300.68 26.08 301.41C25.45 301.48 24.81 301.5 24.03 301.21L24.05 301.19ZM460.93 343.6C490.79 342.27 520.3 338.9 549.13 331.49C559.62 328.8 569.89 325.37 580.26 322.28C580.15 321.85 580.05 321.43 579.94 321C526.46 324.56 473 327.17 419.61 326.43C415.27 332.28 410.46 337.77 405.23 342.83C423.69 344.16 442.25 344.43 460.92 343.6H460.93ZM438.69 289.93C493.28 286.91 547.4 292.08 601.32 303.36C600.56 302.89 599.83 302.4 599.05 301.97C588.64 296.15 577.59 291.93 566.2 288.53C551.57 284.16 536.66 281.24 521.51 279.36C503.73 277.14 485.87 276.24 467.98 276.18C459.46 276.16 450.94 276.26 442.43 276.38C441.42 280.99 440.17 285.51 438.69 289.93ZM458.39 302.16C458.73 302.05 448.12 300.91 435.07 299.49C433.82 302.43 432.46 305.32 431.01 308.15C437.27 307.38 442.88 306.49 447.26 305.49C451.03 304.64 454.71 303.37 458.39 302.15V302.16ZM612.64 346.71C612.17 346.86 611.68 346.98 611.22 347.15C597.45 352.14 583.52 356.64 569.28 360.09C552.18 364.23 534.86 367.03 517.38 368.78C501.76 370.35 486.09 370.89 470.38 370.45C454.43 370.01 438.53 368.94 422.72 366.74C409.73 364.93 396.87 362.46 384.09 359.53C373.56 366.24 362.01 371.5 349.74 375.05C356.85 377.11 364.04 378.93 371.33 380.44C392.9 384.93 414.67 387.63 436.65 388.45C459.43 389.3 482.13 388.21 504.71 384.86C523 382.15 541.05 378.39 558.69 372.8C573.23 368.19 587.33 362.49 600.57 354.83C604.75 352.41 608.81 349.79 612.93 347.26C612.83 347.07 612.73 346.89 612.63 346.7L612.64 346.71ZM0 330.21C0 330.21 0 330.2 0 330.19V330.21ZM215 394.55C215.65 395.13 216.33 395.49 217.02 395.81C228.36 401.2 240.18 405.19 252.42 407.93C275.35 413.09 298.55 415.39 322.06 414.59C340.45 413.97 358.63 411.97 376.44 407.24C382.92 405.52 389.27 403.32 395.68 401.33C395.62 401.04 395.56 400.75 395.49 400.46C335.15 403.96 274.89 405.34 215 394.55ZM318.84 386.12C319.38 386.1 319.91 385.99 320.44 385.92C320.09 385.4 319.72 385.22 319.33 385.08C314.29 383.36 309.23 381.71 304.2 379.99C276.25 378.21 250.63 367.79 230 351.39C212.25 344.52 194.2 338.56 175.76 333.87C165.1 331.16 154.28 329.06 143.52 326.81C125.76 323.09 107.77 321.31 89.66 321.22C64.09 321.1 38.61 322.35 13.41 327.13C8.91 327.99 4.48 329.17 0.02 330.2C0.04 330.44 0.07 330.68 0.1 330.93C2.6 330.93 5.1 331.02 7.6 330.91C19.2 330.4 30.77 330.36 42.37 331.37C61.22 333.01 79.71 336.64 97.91 341.61C113.46 345.85 128.78 350.96 144.33 355.23C167.56 361.62 190.85 367.81 214.19 373.74C231.91 378.23 249.82 381.91 268 383.99C284.89 385.93 301.86 386.43 318.86 386.11L318.84 386.12Z" fill="white"/>
<path d="M266.38 81.6401C266.2 81.7201 266.01 81.7701 265.82 81.8301C265.18 82.0001 263.69 82.3901 263.16 82.3901C260.53 82.3901 258.65 80.9101 258.31 80.6301L258.09 80.4301C256.2 78.7601 254.84 77.5501 252.78 75.3601C248.15 70.5501 228.73 50.2701 222.86 44.1001L222.55 43.7801L221.31 44.3101L221.24 44.6301C220.7 47.0701 219.23 50.7501 216.87 53.1001L216.39 53.5701L218.37 55.3901C218.48 68.7501 218.55 82.3901 218.37 91.8301C218.25 97.2601 217.73 99.9401 217.42 100.72C217.31 101.04 216.01 103.06 213.97 104.23L213.47 104.51L214.26 106.36L229.75 99.7001L228.98 97.9201L228.43 98.0801C227.42 98.3801 225.93 98.7901 224.67 98.7901C223.03 98.7901 222.55 98.1301 222.34 97.6301C222.06 96.9801 221.72 95.2201 221.62 92.2201C221.52 89.8401 221.48 87.5801 221.43 85.1901C221.41 84.0901 221.38 82.9601 221.36 81.7901L237.65 74.7901C243.78 81.1301 247.59 85.4601 248.13 86.7001C248.98 88.6701 245.81 90.4601 244.74 91.0701L244.24 91.3501L245.01 93.1301C259.43 86.9301 274.66 82.8101 290.24 80.8801L291.34 80.7401L291.1 78.7701L290.48 78.8201C290.09 78.8501 289.72 78.8701 289.36 78.8701C286.41 78.8701 284.47 77.8101 283.71 76.9001C282.84 75.8701 282.59 74.1001 282.24 71.6601L282.1 70.6801C281.66 67.6601 281.12 63.3701 280.39 57.4901C280.41 57.4901 280.43 57.4901 280.45 57.4901C280.71 57.4701 280.96 57.4501 281.28 57.4501C281.47 57.4501 281.68 57.4501 281.94 57.4801C284.33 57.6701 287.02 59.8701 288.84 61.5001C292.72 65.0101 294.76 67.4201 297.34 70.4801C298.21 71.5101 299.14 72.6101 300.21 73.8401L300.54 74.2201C302.407 76.3535 303.727 77.7301 304.5 78.3501L305.32 79.0101C315.92 77.7001 326.66 78.0801 337.14 80.1401L347.47 82.1701C350.61 82.7901 353.67 83.1001 356.55 83.1001C366.54 83.1001 379.2 79.3101 382.74 61.2401C385.41 47.6501 378.65 39.6501 372.51 35.3301C367.28 31.7201 361.02 30.5001 355.5 29.4301L354.27 29.1901C347.68 27.9001 341.89 26.7901 337.52 25.9501C334.89 25.4501 332.78 25.0401 331.32 24.7601L330.69 24.6401L330.32 26.5401L330.87 26.7101C333.29 27.4801 335.09 28.3401 336.03 30.0701C336.73 31.3501 335.99 35.1101 335.4 38.1301L332.69 51.9301C331.59 57.5501 330.24 64.0201 329.67 66.5401C328.52 71.7601 327.72 73.3001 327.25 73.6701C326.25 74.4701 324.21 74.9901 322.04 74.9901C321.72 74.9901 321.41 74.9801 321.1 74.9601L320.53 74.9201V74.9401C316.56 74.6301 313.73 72.9801 310.12 68.9801C308.59 67.3101 306.72 65.2101 304.86 63.1001C303.45 61.5101 302.03 59.9201 300.76 58.5001C299.15 56.7501 297.68 55.4901 296.36 54.7201C300.79 52.4901 306.91 47.8901 305.91 39.8501C305.24 34.4501 302.15 30.5901 296.99 28.6801C294.98 27.9201 292.77 27.5701 290.04 27.5701C287.31 27.5701 284.5 27.9001 281.02 28.3301C277.65 28.7501 270.32 29.6901 265.23 30.3401C262.55 30.6801 259.34 31.0901 259.34 31.0901L259.58 33.0001H260.14C262.61 33.0401 264.34 33.1601 265.81 34.3601C266.99 35.3401 267.59 40.1501 267.87 42.4601L269.6 56.4201C270.3 62.1101 271.04 68.6801 271.29 71.2401V71.3501C271.43 72.6201 271.58 74.1101 271.62 75.4501C271.69 77.4101 270.72 79.2701 269.03 80.2801C268.21 80.7701 267.27 81.2901 266.38 81.6501V81.6401ZM340.07 76.2401C339.73 75.7001 339.29 73.9901 340.19 68.7001L343 54.4001C345.14 43.4901 346.71 35.5101 348 30.9401C349.38 30.9701 351.91 31.2301 353.95 31.6301C357.05 32.2401 358.86 32.9101 360.36 33.5401C368.64 36.9001 373.43 48.1501 371.27 59.1501C368.82 71.6101 362.34 79.0201 353.01 80.0001C352.5 80.0501 351.95 80.0801 351.37 80.0801C349.48 80.0801 347.61 79.7901 346.38 79.5501C344.16 79.1101 341.44 78.3401 340.08 76.2401H340.07ZM221.33 78.7601C221.12 69.4901 221.04 61.9401 221.05 57.9301C224.46 61.3601 230.19 67.1601 235.57 72.6501L221.33 78.7701V78.7601ZM277.57 31.3001C278.19 31.1501 279.18 30.9401 280.59 30.7701C281.38 30.6701 282.16 30.6201 282.9 30.6201C284.57 30.6201 286.08 30.8701 287.5 31.3701C291.63 32.8601 294.22 36.2401 294.79 40.8701C295.48 46.4101 293.32 50.6901 288.73 52.9301C285.97 54.2701 283.36 54.8401 280.13 55.2701L280.08 54.8801C279.68 51.7201 278.46 42.1201 277.93 36.2901C277.55 32.6901 277.53 32.0901 277.58 31.3101L277.57 31.3001Z" fill="white"/>
<path d="M390.82 94.1301C390.62 93.1101 391.95 90.1901 392.92 88.0501L399.65 73.2001C402.06 67.8701 403.81 64.0201 405.9 59.5801C406.08 59.2301 406.25 58.8501 406.43 58.4601C407.21 56.8101 408.09 54.9301 409.17 54.0801C409.91 53.5101 410.81 53.2301 411.92 53.2301C413.13 53.2301 414.35 53.5601 415.4 53.8601L415.93 54.0201L416.72 52.2701L394.33 42.1301L393.53 43.8901L394.02 44.1801C396.39 45.6001 397.67 46.9601 398.14 48.5701C398.53 49.9701 396.95 53.4601 395.68 56.2701L389.88 69.0801C387.81 73.6501 384.81 80.1001 383.59 82.6101L383.28 83.2501C382.17 85.5701 380.78 88.4601 379.79 88.9201C379 89.2801 378.06 89.4701 377.02 89.4701C375.98 89.4701 374.78 89.2801 373.49 88.9201L372.96 88.7701L372.17 90.5101L394.82 100.77L395.63 98.9801L395.1 98.7001C393.29 97.7201 391.13 95.6901 390.81 94.1201L390.82 94.1301Z" fill="white"/>
<path d="M461.57 85.5101L460.35 86.9901L460.73 87.4001C463.6 90.5301 464.5 93.1801 463.57 95.7401C462.88 97.6601 460.44 100.61 458.09 103.47L444.47 120L443.43 70.5501L430.51 59.9101L429.29 61.3901L429.66 61.8001C431.85 64.2301 433.73 67.2801 431.15 71.3901C428.69 74.5401 427.54 75.9201 425.8 78.0201C425.12 78.8401 424.35 79.7601 423.38 80.9501C419.1 86.1401 415.24 90.5801 412.75 93.3901C408.99 97.7201 406.41 100.35 404.35 101.01C403.9 101.16 403.42 101.24 402.91 101.24C401.47 101.24 399.81 100.65 397.98 99.4901L397.5 99.1901L396.27 100.68L411.18 112.97L412.41 111.48L412.02 111.07C409.33 108.2 408.43 106.21 408.89 104.18C409.34 102.23 412.2 98.5701 414.94 95.2401L432.84 73.5201C433.09 83.4601 433.24 92.0601 433.42 101.93C433.58 110.63 433.74 119.63 433.99 130.92C434 131.58 434.1 132.52 434.8 133.09C435.12 133.35 435.49 133.49 435.87 133.49C436.4 133.49 436.93 133.22 437.32 132.74C439.12 130.56 441.33 127.84 443.53 125.14C445.71 122.47 447.87 119.82 449.6 117.72C453.49 112.99 457.2 108.81 459.91 105.75L460.28 105.33C462.97 102.28 466.01 98.8201 467.33 98.1601C468.26 97.6701 469.17 97.4401 470.11 97.4401C471.52 97.4401 473.04 97.9701 474.89 99.1001L475.37 99.3901L476.59 97.9101L461.57 85.5301V85.5101Z" fill="white"/>
<path d="M206.66 102.35L187.78 71.8101C187.42 71.2301 187.21 70.5501 187.14 69.7701C187.07 68.2001 187.69 66.5601 188.91 65.1201C189.07 64.9201 190.2 63.9501 190.64 63.6001C190.79 63.5001 190.96 63.3801 191.11 63.2701C191.21 63.1901 191.31 63.1201 191.39 63.0701L192.15 62.6101L190.44 59.8501L166.92 74.3901L168.63 77.1501L169.35 76.7001C169.46 76.6501 169.95 76.4001 170.2 76.2501C170.62 75.9901 172.08 75.4301 172.37 75.3701C173.01 75.2101 173.65 75.1301 174.28 75.1301C175.38 75.1301 176.42 75.3901 177.27 75.8501C177.97 76.2801 178.48 76.7701 178.84 77.3501L195.92 104.97C197.16 106.98 198.28 109.06 199.35 111.32C200.26 113.37 200.83 115.11 201.09 116.61C201.35 118.26 201.18 119.72 200.58 121.08C200 122.51 198.89 123.71 197.19 124.76C195.47 125.82 193.92 126.38 192.53 126.43C192.33 126.44 192.13 126.45 191.94 126.45C191.04 126.45 190.21 126.3 189.45 126C189.32 125.33 189.25 124.6 189.23 123.77C189.24 123.16 189.24 122.59 189.25 122.05V121.03C189.29 120.12 189.19 119.25 189.07 118.25V118.14C188.87 117.09 188.51 116.13 187.99 115.28C187.07 113.79 185.76 112.86 184.22 112.59C183.85 112.51 183.47 112.48 183.09 112.48C181.89 112.48 180.66 112.86 179.44 113.61C177.57 114.76 176.61 116.37 176.58 118.39C176.55 120.4 177.07 122.28 178.11 123.97C180.56 127.94 183.85 130.29 187.86 130.97C188.77 131.13 189.69 131.21 190.6 131.21C193.75 131.21 196.94 130.23 200.08 128.28C202.73 126.64 204.76 124.73 206.28 122.43C207.7 120.24 208.66 117.79 209.14 115.14C209.51 112.79 209.43 110.54 208.92 108.28C208.5 106.08 207.74 104.08 206.67 102.34L206.66 102.35Z" fill="white"/>
</svg>
