<svg width="502" height="342" viewBox="0 0 502 342" fill="none" xmlns="http://www.w3.org/2000/svg">
<path d="M86.0986 217V220.925H85.6084C85.1178 220.925 84.3818 221.047 83.7686 221.047C82.665 221.17 79.3545 221.66 78.7402 221.906C74.9382 223.132 71.8714 225.463 70.1543 228.529C69.4185 230 68.9278 231.595 68.9277 233.312V305.184C68.9277 308.986 68.192 313.034 66.5977 317.204C65.1259 321.496 62.9182 325.299 59.9746 328.733C56.5405 332.535 52.4935 335.601 47.833 337.809C43.0497 340.017 37.775 341.121 31.6426 341.121C22.3215 341.12 14.7171 338.422 8.83008 333.148C2.9432 327.997 5.15621e-05 320.883 0 311.93C0 308.005 1.10403 304.571 3.06641 301.504C5.02875 298.439 7.97204 296.967 11.8965 296.967C15.3306 296.967 18.1513 297.948 20.2363 299.911C22.3213 301.75 23.4257 304.325 23.4258 307.514C23.4258 309.354 23.0572 311.194 22.3213 313.034C21.4628 314.873 20.7273 316.468 19.7461 317.94C18.8876 319.289 17.9065 320.883 16.8027 322.6C15.6989 324.44 14.9632 326.035 14.4727 327.506C15.6991 329.346 17.5388 331.064 20.1143 332.413C22.6898 333.884 26.1245 334.62 30.417 334.62C34.7095 334.62 38.1436 333.639 40.8418 331.676C43.54 329.837 45.5025 327.261 46.8516 324.072C48.078 321.006 48.9366 317.326 49.5498 312.911C50.0404 308.618 50.4082 303.712 50.4082 298.316V233.312C50.4081 231.595 49.9175 230 49.1816 228.529C47.4646 225.463 44.3986 223.132 40.5967 221.906C39.9834 221.66 36.6712 221.047 35.5674 221.047C34.954 221.047 33.7275 220.925 33.7275 220.925H33.2373V217H86.0986ZM482.129 313.525V275.872C482.129 272.683 482.007 269.494 482.007 266.55C482.007 263.729 481.639 261.522 481.025 259.927C480.289 257.842 479.062 256.248 477.223 255.022C475.26 253.796 472.44 252.814 468.761 252.324L467.411 252.078V248.031L467.901 248.153H501.508V252.446H500.158C497.338 252.814 495.007 253.55 493.413 254.531C491.819 255.512 490.592 256.984 489.733 259.069C489.365 259.927 488.997 261.522 488.752 265.447C488.629 268.758 488.384 272.315 488.262 276.117C488.016 279.673 487.893 283.844 487.771 288.627C487.525 293.411 487.525 298.562 487.525 304.081V337.564C487.525 338.3 487.281 338.913 486.79 339.404C486.422 339.772 485.808 340.139 484.827 340.139C483.723 340.139 482.619 339.526 481.516 338.422C474.525 330.328 468.147 322.969 462.383 316.223L445.948 296.967C440.675 290.835 435.646 284.825 430.617 279.061C426.447 274.155 422.031 269.126 417.493 263.975V311.93C417.493 316.1 417.493 319.903 417.738 323.214C417.861 326.28 418.352 328.611 419.088 330.082C419.824 331.677 421.05 332.903 422.645 333.639C424.484 334.498 426.937 335.234 430.126 335.724H431.476V339.894H398.115V335.601H399.464C401.304 335.356 403.144 334.865 404.983 334.129C406.578 333.393 407.927 332.412 408.908 330.818C409.889 329.224 410.625 326.893 410.87 323.828C411.238 320.516 411.484 316.469 411.606 311.808C411.729 308.251 411.975 304.081 411.975 299.297C412.097 294.514 412.097 289.363 412.097 283.844V268.88C412.097 267.163 411.975 265.201 411.975 262.871C411.852 260.786 411.239 259.069 410.503 257.72C409.644 256.371 408.663 255.39 407.682 254.654C406.578 253.918 405.351 253.427 404.125 253.059C402.776 252.691 401.427 252.446 400.2 252.078H398.851V247.908H426.079L482.129 313.525ZM393.578 252.078L392.229 252.323C390.635 252.568 388.795 253.059 386.955 253.672C385.361 254.163 384.134 255.266 383.275 256.861C382.662 258.087 382.295 259.682 382.295 261.522C382.295 263.607 382.172 265.569 382.172 267.532V320.761C382.172 323.091 382.295 325.422 382.295 327.629C382.418 330.082 382.908 331.063 383.153 331.431C383.889 332.658 385.238 333.516 387.078 334.129H386.71C388.672 334.743 390.512 335.234 392.106 335.479H393.456V339.649H353.104V335.601L354.453 335.356C356.415 335.111 358.255 334.62 359.85 333.884C361.321 333.271 362.671 332.289 363.774 331.063C363.897 330.818 364.142 330.45 364.388 329.591C364.633 328.733 364.879 327.629 364.879 326.525C365.124 325.299 365.124 324.072 365.124 322.723V318.798C365.124 317.695 365.247 316.1 365.369 314.138V264.956C365.369 263.607 365.246 262.257 365.246 261.031C365.123 259.927 365.001 258.823 364.756 257.842C364.633 257.107 364.388 256.493 364.021 256.125C363.039 254.899 361.935 254.04 360.463 253.549C358.869 253.059 357.029 252.569 355.066 252.201H353.718V248.031H393.578V252.078ZM122.891 247.05C125.344 253.796 127.796 260.051 130.004 266.061C132.334 272.193 134.542 278.08 136.627 283.722C138.712 289.364 140.797 294.883 142.76 300.157C144.722 305.431 146.684 310.705 148.646 315.856C149.505 318.431 150.364 320.516 151.1 322.111L153.798 327.875C153.921 328.121 154.289 328.611 154.779 329.347C155.27 329.96 156.006 330.819 156.864 331.555C157.6 332.291 158.704 332.904 159.931 333.517C160.912 334.008 162.26 334.253 163.609 334.375C164.959 334.13 166.431 333.886 167.657 333.395C169.374 332.904 170.6 332.046 171.459 330.942C171.704 330.697 171.95 330.328 172.195 329.347C172.441 328.489 172.686 327.385 172.686 326.281C172.808 325.054 172.931 323.705 172.931 322.356V318.431C172.931 317.327 173.053 315.733 173.176 313.771V264.589C173.176 263.118 173.053 261.768 172.931 260.419C172.808 259.193 172.563 257.966 172.317 256.985C172.072 255.882 171.705 255.391 171.582 255.268C170.601 254.164 169.374 253.428 168.147 253.06C166.676 252.692 164.959 252.324 162.751 251.957L161.402 251.711V247.664H196.603C201.999 247.664 207.028 247.786 211.32 248.154C215.735 248.522 219.906 249.749 223.585 251.711C227.387 253.674 230.576 256.494 232.906 259.928C235.236 263.362 236.463 267.9 236.463 273.051C236.463 276.363 235.85 279.307 234.623 281.882C233.397 284.458 231.802 286.788 229.84 288.75C227.878 290.713 225.547 292.43 222.972 293.779C221.255 294.637 219.415 295.496 217.575 296.232C218.311 296.722 219.046 297.459 219.782 298.195C221.131 299.544 222.481 301.261 223.707 302.978C225.915 306.044 228.245 309.478 230.698 313.035C233.274 316.591 235.482 319.781 237.444 322.602C240.388 326.649 243.208 329.715 245.906 331.555C248.236 333.149 251.058 334.13 254.001 334.744C255.35 334.498 256.823 334.253 258.172 333.64C259.889 332.904 261.115 332.045 261.974 331.064C262.096 330.819 262.342 330.573 262.587 329.592C262.71 328.611 262.955 327.63 263.077 326.404C263.2 325.177 263.445 323.951 263.445 322.602V318.677C263.445 317.573 263.568 315.978 263.69 314.016V264.834C263.69 263.485 263.568 262.136 263.568 260.91C263.446 259.806 263.322 258.701 263.077 257.72C262.954 256.985 262.71 256.371 262.342 256.003C261.238 254.777 260.011 253.919 258.539 253.428C256.945 252.815 255.105 252.447 253.021 252.079H251.671V247.909H299.381C302.079 247.909 304.9 248.032 307.599 248.277C310.419 248.522 313.24 248.89 315.938 249.503C318.759 250.117 321.581 250.975 324.279 252.202C327.836 253.796 331.147 255.758 334.336 258.088C337.402 260.541 340.223 263.363 342.554 266.674L342.676 265.938C345.006 269.249 346.969 273.052 348.318 277.344C349.667 281.637 350.403 286.543 350.403 292.062C350.403 298.317 349.544 303.959 348.072 308.743C346.6 313.526 344.516 317.818 341.817 321.252C339.242 324.686 336.053 327.63 332.619 329.96C329.185 332.291 325.383 334.131 321.581 335.48C317.656 336.829 313.609 337.81 309.562 338.3C305.514 338.914 301.466 339.159 297.664 339.159H229.227L228.736 338.668C227.878 337.933 227.386 337.32 227.019 336.952C226.651 336.584 226.283 336.093 225.915 335.602C225.547 334.989 224.933 334.253 224.32 333.272C223.707 332.413 222.849 330.942 221.5 329.102C219.906 326.772 218.556 324.687 217.33 322.847C216.226 321.007 214.999 319.29 213.772 317.451C212.546 315.734 211.319 313.894 209.848 312.054C208.499 310.214 206.782 308.252 204.819 305.921C203.225 304.082 201.508 302.364 199.668 300.77C197.951 299.298 196.111 298.44 194.271 298.072C190.96 297.336 190.837 297.582 189.733 297.582V319.781C189.856 322.356 189.979 324.686 189.979 326.526C190.102 328.12 190.47 329.469 191.083 330.451C191.451 331.187 192.31 332.045 194.395 333.272C195.989 334.253 198.442 334.743 201.508 334.989H202.979V339.159H126.57V334.867H128.042C128.165 334.866 128.778 334.744 129.514 334.622C130.372 334.499 131.231 334.253 132.212 333.885C133.07 333.517 133.806 333.027 134.419 332.414C134.909 331.923 135.155 331.432 135.155 330.697C135.155 330.329 135.033 329.47 134.542 327.507C134.174 325.913 133.561 323.828 132.702 321.498C131.844 319.045 130.986 316.346 129.882 313.403C128.901 310.827 127.919 308.007 126.815 305.186H96.1533C95.0495 308.007 93.945 310.582 92.9639 313.158C91.8601 315.978 90.634 318.922 89.5303 321.743C87.5679 327.016 87.0772 329.47 87.0771 330.574C87.0771 331.31 87.3225 331.8 87.6904 332.168C88.3036 332.659 88.917 333.149 89.7754 333.517C90.6338 333.885 91.615 334.13 92.7188 334.375C93.8225 334.498 94.9265 334.744 96.0303 334.867L97.3799 335.112V339.159H68.0664V334.744H69.416C71.3781 334.621 72.9723 334.008 74.3213 333.272C76.1431 332.179 76.5221 331.807 76.5293 331.8C76.8972 331.31 77.6331 330.451 79.2275 327.875C80.454 325.79 82.0489 322.724 83.8887 318.554C85.6057 314.752 87.5674 310.337 89.6523 305.431L96.2754 290.222C98.6056 285.071 100.814 279.798 103.021 274.524C105.106 269.495 107.192 264.712 109.031 260.296L107.437 256.74L108.908 256.126C110.257 255.513 111.484 254.777 112.588 253.918C113.692 253.06 114.673 252.201 115.531 251.22C116.267 250.239 117.003 249.38 117.616 248.522C118.229 247.663 118.966 246.437 118.966 246.437L119.456 245.702H122.399L122.891 247.05ZM298.4 253.428C295.947 253.183 292.636 252.938 288.221 253.183C287.117 253.183 286.013 253.428 284.909 253.428C283.805 253.673 282.824 253.796 281.843 253.796H280.861C280.493 257.598 280.248 262.75 280.248 269.127V319.167C280.248 320.271 280.371 321.498 280.371 322.847C280.494 324.196 280.616 325.546 280.738 326.772C280.861 327.876 281.107 328.979 281.475 329.837C281.843 330.819 282.211 331.31 282.456 331.555C283.928 332.904 285.645 333.885 287.853 334.253C292.636 335.112 296.806 334.989 300.854 334.622C302.938 334.376 304.9 334.008 306.617 333.517C315.08 331.064 321.458 326.281 325.628 319.291H325.383C329.676 312.177 331.761 303.345 331.761 292.92C331.761 288.383 331.147 283.845 329.676 279.552C328.327 275.26 326.364 271.335 323.788 267.778C321.335 264.221 318.269 261.278 314.835 258.825C311.523 256.494 307.721 254.899 303.674 254.164C302.08 253.918 300.363 253.673 298.4 253.428ZM111.853 267.655C111.607 268.145 111.361 268.636 111.116 269.249C110.135 271.457 109.031 274.278 107.56 277.589C106.088 280.901 104.616 284.58 102.898 288.75L98.2383 300.157H124.485C123.382 297.213 122.155 294.147 121.051 291.204C119.579 287.524 118.23 283.845 116.881 280.534C115.532 277.222 114.305 274.033 113.201 271.212C112.711 269.863 112.22 268.759 111.853 267.655ZM201.876 253.428C198.074 252.692 193.658 252.692 191.205 252.937H189.979V253.183C189.857 253.551 189.856 253.919 189.856 254.41V256.74L189.611 261.155C189.366 263.976 189.366 267.287 189.366 270.844V293.289C192.064 293.289 194.64 293.166 197.093 292.92C199.914 292.675 202.612 292.062 205.188 291.204C207.763 290.468 209.848 289.486 211.565 288.137C213.282 286.788 214.754 285.316 215.857 283.722L215.612 283.845C216.716 282.251 217.575 280.411 218.065 278.571C218.679 276.608 218.924 274.646 218.924 272.561C218.924 268.759 217.943 265.325 216.104 262.381C214.264 259.438 211.442 256.985 207.763 255.268C205.923 254.41 203.961 253.796 201.876 253.428ZM197.62 173.172C232.697 179.496 267.992 178.683 303.333 176.636C303.369 176.805 303.406 176.974 303.442 177.143C299.69 178.308 295.969 179.602 292.176 180.607C281.748 183.376 271.097 184.546 260.327 184.912C246.553 185.382 232.97 184.034 219.538 181.014C212.37 179.406 205.444 177.07 198.806 173.913C198.4 173.721 198.003 173.51 197.62 173.172ZM114.888 109.396C129.045 106.705 143.311 106.12 157.633 107.226C163.442 107.674 169.223 108.697 174.978 109.679C183.595 111.155 191.976 113.623 200.27 116.365C209.753 119.499 218.981 123.292 228.027 127.523C240.639 133.427 253.211 139.436 266.388 144.014C275.712 147.258 285.191 149.968 294.803 152.235C302.896 154.145 311.044 155.74 319.278 156.887C328.539 158.18 337.849 158.802 347.191 159.062C356.388 159.318 365.567 159.003 374.718 158.084C384.958 157.056 395.104 155.42 405.116 152.994C413.46 150.969 421.617 148.337 429.683 145.413C429.956 145.312 430.239 145.24 430.517 145.153C430.576 145.262 430.636 145.372 430.695 145.477V145.481C428.283 146.961 425.903 148.497 423.454 149.914C415.698 154.401 407.441 157.736 398.924 160.437C388.592 163.713 378.023 165.911 367.309 167.501C354.081 169.462 340.785 170.102 327.444 169.604C314.568 169.124 301.819 167.538 289.185 164.911C276.646 162.301 264.595 158.203 252.795 153.328C240.872 148.402 229.063 143.196 217.08 138.421C208.768 135.109 200.301 132.152 191.812 129.324C180.385 125.517 168.717 122.593 156.89 120.313C148.195 118.636 139.436 117.544 130.6 116.982C120.008 116.306 109.429 116.429 98.8604 117.333C94.8937 117.672 90.9361 118.183 86.9785 118.608C86.6092 118.649 86.2352 118.659 85.7793 118.49C85.9982 118.353 86.1991 118.179 86.4316 118.079C95.578 114.076 105.08 111.26 114.888 109.396ZM124.198 130.228C134.808 130.278 145.345 131.321 155.745 133.5C162.051 134.821 168.389 136.05 174.631 137.635C186.367 140.619 197.835 144.476 209.097 148.95C220.869 153.629 232.683 158.221 244.52 162.741C249.193 164.527 253.981 166.007 258.718 167.629C258.946 167.707 259.165 167.817 259.37 168.119C259.06 168.16 258.75 168.224 258.436 168.233C248.482 168.42 238.542 168.128 228.647 166.99C218.001 165.77 207.51 163.618 197.133 160.986C183.459 157.518 169.821 153.889 156.215 150.147C147.109 147.643 138.136 144.654 129.026 142.168C118.362 139.262 107.537 137.133 96.4941 136.173C89.7004 135.584 82.9246 135.607 76.1309 135.904C74.6674 135.968 73.2037 135.913 71.7402 135.913C71.7268 135.769 71.7089 135.626 71.6953 135.487C74.3076 134.884 76.902 134.191 79.5371 133.688C94.2963 130.891 109.225 130.155 124.198 130.228ZM239.541 127.272C296.658 135.894 353.994 133.912 411.371 130.096C411.435 130.347 411.495 130.594 411.559 130.845H411.554C405.48 132.655 399.462 134.661 393.32 136.238C376.432 140.579 359.151 142.548 341.661 143.33C319.292 144.33 297.192 142.626 275.311 138.44C263.634 136.205 252.335 132.893 241.483 128.346C240.822 128.067 240.175 127.765 239.541 127.272ZM187.479 102.775C197.196 102.994 206.913 103.241 216.629 103.419C223.35 103.543 230.066 103.574 236.787 103.624C261.997 103.803 287.211 104.022 312.42 104.114C323.541 104.155 334.667 103.812 345.792 103.844C356.27 103.876 366.729 104.406 377.143 105.704C386.011 106.805 394.747 108.519 403.314 111.078C409.985 113.07 416.46 115.542 422.556 118.951C423.007 119.202 423.441 119.49 423.883 119.764C386.969 112.037 349.886 109.2 312.397 113.207C309.138 113.555 305.901 114.14 302.654 114.62C302.663 114.779 302.673 114.939 302.682 115.099C302.743 115.103 308.4 115.47 310.282 115.688V115.693C322.527 117.114 340.499 118.946 340.17 119.056C338.013 119.769 335.856 120.514 333.649 121.012C323.792 123.242 303.438 124.613 291.264 124.471C243.056 123.914 231.438 118.366 231.438 118.366C232.296 117.918 233.272 117.649 234.225 117.439C240.713 116.018 247.2 114.61 253.702 113.244C255.48 112.869 257.291 112.654 259.115 112.207C258.673 112.165 258.235 112.097 257.793 112.087C251.455 111.991 245.117 111.85 238.774 111.828C229.304 111.791 219.848 111.479 210.588 109.364C202.677 107.554 194.852 105.347 186.996 103.314C186.755 103.25 186.527 103.131 186.317 102.775C186.705 102.775 187.092 102.766 187.479 102.775ZM239.796 1.23191C253.251 -0.947732 266.57 -0.285348 279.692 3.62156C293.23 7.65185 305.061 14.584 315.279 24.3169C324.444 33.0491 331.265 43.3762 336.012 55.0786C340.649 66.5113 342.577 78.4469 342.29 90.7661C342.258 92.1644 342.249 92.1782 340.644 92.1782L261.468 92.1919H254.633V92.2104L254.628 92.2192H169.073C168.845 92.2192 168.612 92.1872 168.389 92.2192C167.372 92.3607 167.117 91.8951 167.107 90.9175C167.021 82.5919 167.728 74.3804 169.771 66.2651C173.404 51.8301 180.322 39.2224 190.325 28.2739C197.319 20.6248 205.467 14.4653 214.646 9.6948C222.584 5.56857 230.969 2.66216 239.796 1.23191Z" fill="white"/>
</svg>
