<svg width="621" height="496" viewBox="0 0 621 496" fill="none" xmlns="http://www.w3.org/2000/svg">
<path d="M89.9697 348.91C91.8797 349.39 93.8102 349.89 95.7402 350.41C134.48 433.58 218.85 491.38 316.49 491.38C395.6 491.38 466.01 453.44 510.49 394.8C510.7 394.77 510.9 394.74 511.11 394.71H511.1C513.08 394.42 515.03 394.11 516.97 393.8C471.83 455.7 398.78 496 316.48 496C215.65 496 128.7 435.5 89.9697 348.91Z" fill="white"/>
<path d="M217.6 395.12C278.21 406.05 339.21 404.64 400.28 401.11C400.34 401.398 400.408 401.686 400.468 401.983C393.992 403.992 387.566 406.231 381.01 407.97C362.99 412.76 344.58 414.78 325.97 415.41C302.17 416.22 278.69 413.89 255.48 408.67C243.091 405.89 231.13 401.86 219.65 396.4C218.95 396.07 218.26 395.71 217.6 395.12Z" fill="white"/>
<path d="M400.47 401.99C400.469 401.988 400.468 401.986 400.468 401.983C400.472 401.982 400.476 401.982 400.48 401.98L400.47 401.99Z" fill="white"/>
<path d="M74.6299 284.9C99.0999 280.25 123.75 279.24 148.5 281.15C158.53 281.92 168.53 283.69 178.47 285.39C193.37 287.94 207.85 292.2 222.18 296.94C238.57 302.35 254.52 308.91 270.15 316.22C291.95 326.42 313.671 336.81 336.44 344.72C352.55 350.33 368.93 355.01 385.54 358.93C399.53 362.23 413.61 364.99 427.84 366.97C443.85 369.21 459.94 370.28 476.08 370.73C491.98 371.17 507.84 370.63 523.65 369.04C541.35 367.26 558.88 364.43 576.18 360.24C590.6 356.74 604.69 352.19 618.63 347.14C619.1 346.97 619.59 346.84 620.07 346.69C620.17 346.88 620.28 347.07 620.38 347.25L620.36 347.26C616.19 349.82 612.08 352.47 607.85 354.92C594.45 362.68 580.18 368.44 565.46 373.11C547.61 378.77 529.35 382.57 510.83 385.32C487.97 388.71 465 389.81 441.94 388.95C419.69 388.12 397.66 385.38 375.83 380.84C354.17 376.33 333.34 369.25 312.95 360.82C292.34 352.31 271.94 343.31 251.23 335.06C236.86 329.34 222.23 324.23 207.56 319.34C187.81 312.76 167.65 307.71 147.21 303.77C132.19 300.87 117.05 298.98 101.78 298.01C83.4703 296.84 65.1897 297.06 46.9297 298.62C40.0799 299.2 33.2402 300.09 26.4004 300.82C25.7604 300.89 25.12 300.9 24.3301 300.61C24.71 300.37 25.06 300.07 25.46 299.9C41.2599 292.99 57.6799 288.12 74.6299 284.9Z" fill="white"/>
<path d="M90.7305 320.9C109.06 320.99 127.27 322.79 145.25 326.55C156.15 328.83 167.1 330.96 177.89 333.7C198.17 338.86 217.99 345.52 237.45 353.25C257.79 361.34 278.21 369.27 298.66 377.08C306.74 380.17 315.01 382.73 323.2 385.53C323.59 385.66 323.97 385.85 324.33 386.38C323.79 386.45 323.26 386.56 322.71 386.58C305.51 386.9 288.33 386.4 271.24 384.43C252.84 382.32 234.71 378.6 216.78 374.05C193.15 368.06 169.58 361.79 146.07 355.32C130.34 350.99 114.83 345.83 99.0898 341.53C80.6599 336.51 61.9601 332.83 42.8701 331.17C31.1301 330.15 19.4197 330.19 7.67969 330.7C5.14979 330.81 2.61974 330.72 0.0898438 330.72C0.0703142 330.476 0.0311668 330.222 0.0107422 329.987C4.51706 328.948 9.00349 327.749 13.5498 326.88C39.0598 322.05 64.8505 320.78 90.7305 320.9Z" fill="white"/>
<path d="M290.04 315.79C388.74 330.69 487.82 327.26 586.98 320.67C587.09 321.1 587.19 321.53 587.3 321.97C576.8 325.1 566.4 328.56 555.79 331.29C526.61 338.79 496.74 342.19 466.52 343.54C427.86 345.27 389.67 342.32 351.86 335.09C331.681 331.23 312.16 325.5 293.4 317.65C292.26 317.17 291.14 316.65 290.04 315.79Z" fill="white"/>
<path d="M0.00976562 329.99H0C0.0032872 329.989 0.00745501 329.988 0.0107422 329.987L0.00976562 329.99Z" fill="white"/>
<path d="M200.09 273.46C216.88 273.84 233.67 274.27 250.46 274.57C262.07 274.78 273.68 274.84 285.29 274.93C328.85 275.24 372.43 275.62 415.99 275.78C435.21 275.85 454.43 275.26 473.66 275.31C491.77 275.37 509.84 276.28 527.84 278.52C543.17 280.42 558.26 283.38 573.07 287.81C584.6 291.25 595.79 295.52 606.32 301.42C607.1 301.85 607.85 302.35 608.61 302.83C544.82 289.48 480.74 284.57 415.95 291.5C410.32 292.1 404.72 293.11 399.11 293.94C399.13 294.22 399.14 294.49 399.16 294.77C399.2 294.772 409.027 295.411 412.29 295.79L412.3 295.78C433.457 298.24 464.522 301.399 463.95 301.59C460.22 302.82 456.5 304.11 452.68 304.97C435.64 308.82 400.47 311.19 379.43 310.95C296.136 309.99 276.058 300.404 276.05 300.4C277.53 299.63 279.22 299.16 280.86 298.8C292.07 296.34 303.28 293.91 314.52 291.55C317.59 290.9 320.72 290.53 323.87 289.76C323.11 289.69 322.35 289.57 321.59 289.55C310.64 289.38 299.69 289.14 288.73 289.1C272.36 289.04 256.02 288.5 240.02 284.84C226.35 281.71 212.83 277.9 199.25 274.39C198.83 274.28 198.44 274.07 198.08 273.46C198.75 273.46 199.42 273.44 200.09 273.46Z" fill="white"/>
<path d="M316.48 0C453.24 0.000248341 564.49 111.26 564.48 248.01C564.48 257.68 563.9 267.23 562.82 276.62C561.33 276.25 559.82 275.89 558.3 275.54C559.33 266.5 559.87 257.32 559.87 248.01C559.87 113.8 450.67 4.62037 316.48 4.62012C182.291 4.62012 73.1105 113.8 73.1104 248.01C73.1104 257.66 73.69 267.17 74.79 276.53C74.5902 276.57 74.3903 276.6 74.1904 276.64C72.8704 276.89 71.56 277.17 70.25 277.44C69.11 267.79 68.5 257.97 68.5 248.01C68.5001 111.26 179.721 0 316.48 0Z" fill="white"/>
<path d="M316.49 95.1797C400.75 95.1798 469.31 163.73 469.31 248C469.31 254.41 468.91 260.73 468.14 266.93C466.59 266.94 465.04 266.95 463.49 266.95C464.29 260.74 464.7 254.42 464.7 248C464.7 166.27 398.21 99.7902 316.49 99.79C234.77 99.79 168.29 166.28 168.29 248H168.3C168.3 257.37 169.18 266.53 170.85 275.42C169.24 275.16 167.63 274.9 166.01 274.66C164.48 266 163.68 257.09 163.68 248C163.68 163.74 232.23 95.1797 316.49 95.1797Z" fill="white"/>
<path d="M530.71 237.05L530.31 261.49L526.71 261.43L496.53 244.99L496.63 239.16L525.69 255.49L525.99 236.97L530.71 237.05Z" fill="white"/>
<path fill-rule="evenodd" clip-rule="evenodd" d="M121.16 227.601C121.93 227.621 122.71 227.7 123.52 227.84L122.87 250.08H123.22C125.8 250.01 127.86 249.271 129.4 247.851C130.94 246.431 131.75 244.52 131.82 242.101C131.88 240.181 131.47 238.55 130.61 237.22C129.75 235.89 128.49 234.99 126.86 234.51L127.04 228.29C130.02 228.92 132.44 230.44 134.29 232.86C136.14 235.28 137.01 238.25 136.91 241.79C136.82 244.86 136.12 247.521 134.8 249.771C133.49 252.02 131.68 253.73 129.37 254.92C127.07 256.1 124.42 256.651 121.42 256.561C118.39 256.471 115.75 255.79 113.5 254.51L113.47 254.5C111.22 253.22 109.5 251.48 108.32 249.28C107.14 247.07 106.58 244.57 106.67 241.76C106.75 238.92 107.4 236.43 108.62 234.29C109.84 232.15 111.52 230.491 113.67 229.311C115.82 228.121 118.32 227.551 121.16 227.601ZM118.77 233.87C116.61 234.08 114.91 234.88 113.65 236.29C112.4 237.69 111.74 239.49 111.68 241.68C111.62 243.72 112.19 245.49 113.4 247.01C114.61 248.53 116.24 249.43 118.31 249.72L118.78 233.88L118.77 233.87Z" fill="white"/>
<path d="M293.35 115.08C314.229 111.7 334.9 112.73 355.27 118.79C376.28 125.04 394.64 135.8 410.5 150.91C424.72 164.46 435.31 180.49 442.68 198.65C449.88 216.39 452.87 234.92 452.42 254.04C452.37 256.21 452.36 256.23 449.86 256.23C408.901 256.23 367.94 256.24 326.98 256.25H316.37V256.28H183.59C183.24 256.28 182.87 256.23 182.53 256.28C180.95 256.5 180.56 255.78 180.54 254.26C180.41 241.34 181.5 228.6 184.67 216C190.31 193.6 201.04 174.03 216.57 157.04C227.43 145.17 240.07 135.61 254.32 128.21C266.64 121.81 279.65 117.3 293.35 115.08Z" fill="white"/>
<path fill-rule="evenodd" clip-rule="evenodd" d="M517.87 206.04C519.63 205.78 521.26 206.01 522.74 206.74C524.23 207.47 525.47 208.65 526.49 210.29C527.5 211.92 528.18 213.91 528.53 216.25C528.88 218.59 528.8 220.69 528.31 222.55C527.82 224.41 526.97 225.9 525.76 227.03C524.55 228.16 523.06 228.86 521.3 229.12C519.41 229.4 517.68 229.04 516.12 228.021C514.56 227.011 513.45 225.61 512.79 223.84C512.69 226.05 512.03 227.95 510.79 229.55V229.54C509.55 231.13 507.78 232.1 505.47 232.45C503.64 232.72 501.94 232.47 500.37 231.69C498.79 230.91 497.48 229.64 496.41 227.88C495.34 226.12 494.62 223.94 494.23 221.351C493.84 218.751 493.9 216.46 494.41 214.47C494.92 212.48 495.81 210.88 497.09 209.67C498.37 208.46 499.92 207.72 501.75 207.45C504.03 207.11 505.99 207.51 507.63 208.64C509.27 209.77 510.48 211.36 511.24 213.41C511.39 211.55 512.04 209.93 513.2 208.55C514.35 207.17 515.91 206.33 517.87 206.04ZM507.24 214.12C505.93 212.92 504.46 212.441 502.82 212.69C501.15 212.94 499.89 213.82 499.04 215.34C498.18 216.86 497.91 218.66 498.22 220.75C498.53 222.83 499.31 224.47 500.57 225.66C501.83 226.85 503.29 227.32 504.96 227.07C506.59 226.83 507.86 225.94 508.77 224.41C509.67 222.88 509.97 221.09 509.67 219.04C509.36 216.96 508.55 215.31 507.24 214.12ZM522.38 212.48C521.26 211.43 519.959 211.02 518.479 211.24C516.97 211.46 515.84 212.241 515.09 213.561C514.34 214.88 514.1 216.48 514.38 218.34C514.66 220.2 515.35 221.64 516.479 222.67C517.599 223.7 518.9 224.1 520.37 223.88C521.84 223.66 522.97 222.9 523.74 221.58C524.51 220.27 524.759 218.68 524.479 216.82C524.199 214.96 523.5 213.51 522.38 212.46V212.48Z" fill="white"/>
<path d="M115.69 194.78C117.8 192.87 120.34 192.141 123.31 192.601L122.01 198.51C120.66 198.37 119.44 198.791 118.34 199.771C117.24 200.75 116.49 202.12 116.11 203.88C115.72 205.64 115.74 207.14 116.18 208.38C116.62 209.62 117.42 210.36 118.58 210.62C119.44 210.81 120.15 210.68 120.7 210.23C121.25 209.78 121.7 209.16 122.05 208.37C122.4 207.58 122.89 206.29 123.52 204.5C124.33 202.08 125.19 200.09 126.11 198.521C127.03 196.951 128.19 195.79 129.59 195.04C131 194.29 132.71 194.13 134.74 194.58C136.54 194.98 138.01 195.85 139.15 197.2C140.29 198.55 141.02 200.231 141.35 202.23C141.68 204.23 141.59 206.37 141.08 208.66C140.23 212.52 138.67 215.46 136.4 217.45C134.13 219.45 131.45 220.15 128.36 219.54L129.646 213.71C131.173 213.928 132.551 213.499 133.79 212.41C135.03 211.33 135.88 209.75 136.34 207.69C136.75 205.85 136.73 204.28 136.29 202.99C135.85 201.69 135.05 200.92 133.88 200.66C132.9 200.45 132.12 200.55 131.51 200.96C130.91 201.38 130.4 202 130 202.84C129.6 203.68 129.08 204.99 128.45 206.78C127.6 209.23 126.74 211.21 125.87 212.73C125 214.25 123.91 215.39 122.58 216.14C121.25 216.89 119.65 217.06 117.78 216.64C116.02 216.25 114.56 215.41 113.41 214.11C112.26 212.81 111.5 211.21 111.14 209.3C110.77 207.39 110.84 205.33 111.32 203.11C112.12 199.47 113.58 196.69 115.69 194.78Z" fill="white"/>
<path d="M129.646 213.71C129.644 213.71 129.641 213.71 129.64 213.71L129.65 213.69L129.646 213.71Z" fill="white"/>
<path fill-rule="evenodd" clip-rule="evenodd" d="M505.28 172.61C507.37 171.92 509.4 171.79 511.37 172.22C513.34 172.65 515.08 173.59 516.59 175.04C518.1 176.49 519.24 178.35 519.98 180.63C520.69 182.79 520.87 184.84 520.54 186.79C520.21 188.74 519.42 190.52 518.17 192.12C517.06 193.51 515.63 194.76 513.88 195.88L513.91 195.91C512.16 197.03 510.18 197.95 507.96 198.68C502.72 200.4 498.27 200.621 494.59 199.351C490.91 198.081 488.42 195.43 487.09 191.391C486.08 188.311 486.07 185.52 487.05 183.01C488.04 180.5 489.88 178.58 492.58 177.26L494.25 182.34C492.86 183.2 491.9 184.31 491.37 185.66C490.84 187.01 490.86 188.551 491.42 190.271C492.23 192.73 493.85 194.31 496.3 195.01C498.75 195.71 501.66 195.501 505.05 194.391L506.3 193.98C505.65 193.881 505.28 193.82 505.16 193.79C503.53 193.51 502.09 192.78 500.84 191.62C499.59 190.46 498.66 188.94 498.04 187.061C497.33 184.901 497.15 182.86 497.49 180.92C497.83 178.98 498.66 177.29 500 175.851C501.33 174.411 503.1 173.33 505.28 172.61ZM512.4 177.93C510.77 177.13 508.98 177.06 507 177.7C505.03 178.35 503.62 179.46 502.77 181.03H502.78C501.93 182.6 501.83 184.36 502.46 186.3C503.11 188.27 504.25 189.67 505.88 190.5C507.51 191.33 509.34 191.41 511.34 190.76C513.28 190.12 514.67 189 515.51 187.4C516.35 185.8 516.45 184.02 515.81 182.08C515.16 180.11 514.03 178.72 512.4 177.93Z" fill="white"/>
<path d="M129.35 166.01L126.78 172.62L141.12 178.2C142.19 178.62 143.04 178.7 143.65 178.44C144.27 178.18 144.77 177.54 145.18 176.5L146.89 172.101L151.99 174.09L149.82 179.68C148.8 182.29 147.45 183.96 145.77 184.69C144.09 185.42 141.969 185.28 139.43 184.3L124.5 178.49V178.47L122.64 183.25L117.54 181.271L119.4 176.49L111.72 173.5L114 167.65L121.68 170.641L124.25 164.03L129.35 166.01Z" fill="white"/>
<path d="M501.72 155.2C502.07 155.93 502.6 156.36 503.31 156.48C504.02 156.6 504.8 156.46 505.64 156.05L509.01 154.41L511.3 159.13L511.31 159.141L480.69 174.01L478.35 169.2L499.04 159.15C498.57 158.84 498.12 158.26 497.71 157.42L495.27 152.391L499.38 150.391L501.72 155.2Z" fill="white"/>
<path d="M152.45 159.26C153.45 158.92 154.46 159.01 155.49 159.55C156.51 160.08 157.17 160.86 157.46 161.88C157.75 162.9 157.63 163.92 157.1 164.94C156.57 165.96 155.799 166.64 154.81 166.96C153.82 167.29 152.81 167.18 151.79 166.65C150.77 166.12 150.11 165.35 149.81 164.351H149.79C149.49 163.351 149.61 162.34 150.14 161.311C150.67 160.281 151.44 159.61 152.45 159.26Z" fill="white"/>
<path d="M448.05 69.1602L449.09 118.94L462.8 102.3C465.17 99.4198 467.62 96.4495 468.32 94.5195C469.26 91.9497 468.35 89.2797 465.46 86.1299L465.08 85.7197L466.31 84.2305L466.32 84.2197L481.44 96.6797L480.21 98.1699L479.73 97.8799C477.87 96.7399 476.34 96.21 474.92 96.21C473.97 96.21 473.05 96.4504 472.12 96.9404C470.79 97.5905 467.729 101.08 465.02 104.15L464.65 104.57C461.92 107.65 458.19 111.86 454.27 116.62C452.53 118.74 450.35 121.4 448.16 124.09C445.94 126.81 443.71 129.54 441.9 131.74C441.5 132.21 440.97 132.49 440.44 132.49C440.061 132.49 439.68 132.35 439.36 132.08C438.66 131.51 438.56 130.56 438.55 129.9C438.3 118.54 438.14 109.48 437.98 100.72C437.8 90.7799 437.64 82.13 437.39 72.1201L419.37 93.9902C416.61 97.3402 413.73 101.03 413.28 102.99C412.81 105.03 413.73 107.04 416.43 109.93L416.82 110.34L415.59 111.84L400.58 99.4697L401.82 97.9697L402.3 98.2803C404.14 99.4502 405.81 100.04 407.26 100.04C407.77 100.04 408.26 99.9596 408.71 99.8096C410.78 99.1395 413.37 96.4896 417.16 92.1396C419.67 89.2996 423.55 84.8402 427.86 79.6104C428.84 78.4304 429.62 77.4899 430.3 76.6699C432.05 74.5599 433.21 73.17 435.69 70C438.29 65.8601 436.39 62.7996 434.19 60.3496L433.82 59.9404L435.05 58.4502L448.05 69.1602Z" fill="white"/>
<path d="M195.09 61.1699L194.33 61.6396C194.25 61.6896 194.15 61.7598 194.05 61.8398C193.9 61.9498 193.74 62.0699 193.58 62.1699C193.14 62.5199 192 63.5002 191.84 63.7002C190.61 65.1401 189.98 66.8 190.05 68.3799C190.13 69.1699 190.34 69.8604 190.7 70.4404L209.71 101.18V101.21C210.79 102.95 211.56 104.96 211.98 107.18C212.5 109.45 212.58 111.71 212.21 114.08C211.73 116.75 210.76 119.21 209.33 121.42C207.8 123.73 205.76 125.66 203.09 127.31C199.93 129.27 196.71 130.26 193.54 130.26C192.62 130.26 191.69 130.17 190.78 130.01C186.74 129.33 183.43 126.96 180.96 122.97C179.91 121.26 179.39 119.37 179.42 117.35C179.45 115.32 180.42 113.7 182.3 112.54C183.52 111.78 184.76 111.4 185.97 111.4C186.35 111.4 186.74 111.44 187.11 111.52C188.65 111.78 189.97 112.72 190.9 114.22C191.43 115.07 191.79 116.04 191.99 117.1V117.21C192.11 118.22 192.21 119.1 192.17 120.01V121.04C192.16 121.58 192.16 122.16 192.15 122.77C192.17 123.599 192.24 124.34 192.37 125.01C193.12 125.31 193.96 125.46 194.87 125.46C195.07 125.46 195.27 125.45 195.47 125.44C196.86 125.39 198.43 124.83 200.16 123.76C201.88 122.7 202.99 121.48 203.58 120.05C204.18 118.68 204.35 117.21 204.09 115.55C203.83 114.04 203.25 112.3 202.34 110.23C201.27 107.96 200.14 105.86 198.89 103.84L181.7 76.0303C181.34 75.4503 180.82 74.9495 180.12 74.5195C179.27 74.0496 178.22 73.7901 177.11 73.79C176.48 73.79 175.84 73.8703 175.19 74.0303C174.9 74.0903 173.42 74.6502 173 74.9102C172.75 75.0601 172.261 75.3101 172.15 75.3604L171.42 75.8096L169.7 73.0303L193.37 58.3896L195.09 61.1699Z" fill="white"/>
<path fill-rule="evenodd" clip-rule="evenodd" d="M335.23 23.0898C336.7 23.3798 338.83 23.7801 341.47 24.29C345.87 25.13 351.7 26.2498 358.33 27.5498L359.57 27.79C365.12 28.87 371.421 30.0905 376.69 33.7305C382.87 38.0805 389.67 46.1302 386.98 59.8096C383.411 77.9893 370.67 81.8095 360.61 81.8096C357.71 81.8096 354.63 81.4901 351.47 80.8701L341.07 78.8301C330.52 76.7601 319.71 76.3802 309.04 77.7002L308.21 77.0303C307.43 76.4103 306.1 75.0235 304.22 72.8701L303.89 72.4902C302.81 71.2503 301.88 70.1396 301 69.0996C298.41 66.0197 296.36 63.5895 292.45 60.0596C290.63 58.4096 287.92 56.1998 285.51 56.0098C285.25 55.9798 285.04 55.9805 284.85 55.9805C284.52 55.9805 284.28 56.0103 284.01 56.0303H283.95C284.69 61.9498 285.22 66.2696 285.67 69.3096L285.81 70.2998C286.16 72.7598 286.42 74.5401 287.29 75.5801C288.06 76.4901 290.011 77.5596 292.98 77.5596C293.34 77.5596 293.721 77.5398 294.11 77.5098L294.73 77.46L294.98 79.4404L293.87 79.5801C278.19 81.5201 262.86 85.6702 248.34 91.9102L247.57 90.1201L248.07 89.8301C249.151 89.22 252.33 87.4096 251.48 85.4297C250.94 84.1796 247.1 79.8202 240.93 73.4404L224.53 80.4902C224.55 81.6701 224.58 82.8002 224.6 83.9102C224.65 86.3101 224.69 88.5805 224.79 90.9805C224.9 93.9898 225.24 95.7598 225.52 96.4199C225.74 96.9199 226.21 97.5898 227.87 97.5898C229.13 97.5898 230.63 97.1899 231.65 96.8799L232.2 96.71L232.97 98.5L217.37 105.2L216.57 103.34L217.07 103.05C219.12 101.87 220.43 99.8395 220.54 99.5195C220.85 98.729 221.38 96.0291 221.5 90.5703C221.68 81.0703 221.61 67.3396 221.5 53.8896L219.51 52.0596L219.99 51.5801C222.37 49.2201 223.85 45.5095 224.39 43.0596L224.46 42.7402L225.71 42.2002L226.02 42.5303C231.929 48.7402 251.479 69.1497 256.14 74C258.22 76.2 259.59 77.4196 261.49 79.0996L261.71 79.2998C262.05 79.5898 263.95 81.08 266.59 81.0801C267.13 81.0801 268.629 80.6896 269.27 80.5195C269.46 80.4595 269.65 80.4101 269.83 80.3301H269.85C270.739 79.9601 271.7 79.4401 272.52 78.9502C274.21 77.9402 275.19 76.0598 275.12 74.0898C275.07 72.7499 274.92 71.2497 274.78 69.9697V69.8604C274.53 67.2804 273.79 60.6703 273.08 54.9404L271.34 40.8896C271.05 38.5595 270.45 33.7302 269.26 32.7402C267.78 31.5303 266.04 31.4101 263.55 31.3701H262.99L262.75 29.4502C262.75 29.4502 265.98 29.0502 268.68 28.7002C273.8 28.0402 281.17 27.0997 284.57 26.6797C288.08 26.2397 290.89 25.9102 293.65 25.9102C296.41 25.9102 298.63 26.2703 300.65 27.0303C305.85 28.9503 308.96 32.8399 309.63 38.2695C310.64 46.3695 304.48 50.9902 300.02 53.2402C301.35 54.0202 302.83 55.2898 304.45 57.0498C305.73 58.4798 307.16 60.0797 308.58 61.6797C310.46 63.7996 312.34 65.9197 313.88 67.5996C317.51 71.6296 320.36 73.2896 324.36 73.5996V73.5801L324.93 73.6201C325.23 73.6401 325.55 73.6504 325.87 73.6504C328.06 73.6504 330.12 73.1303 331.12 72.3203C331.6 71.9403 332.4 70.3996 333.56 65.1396C334.13 62.5995 335.49 56.0795 336.6 50.4297L339.33 36.54C339.93 33.5 340.67 29.7197 339.97 28.4297C339.02 26.6899 337.199 25.8198 334.77 25.0498L334.22 24.8799L334.6 22.9697L335.23 23.0898ZM352 29.2998C350.69 33.9098 349.12 41.94 346.96 52.9199L344.13 67.3096C343.22 72.6396 343.67 74.3504 344.01 74.9004H344.02C345.39 77.0203 348.13 77.7905 350.36 78.2305C351.6 78.4704 353.48 78.7598 355.38 78.7598C355.96 78.7598 356.52 78.7397 357.03 78.6797C366.42 77.6896 372.95 70.2401 375.41 57.6904C377.58 46.6104 372.76 35.2902 364.43 31.9102C362.92 31.2802 361.1 30.6002 357.98 29.9902C355.94 29.5902 353.39 29.3298 352 29.2998ZM224.2 56.46C224.19 60.4999 224.27 68.0998 224.48 77.4297L238.81 71.2695C233.4 65.7597 227.63 59.9099 224.2 56.46ZM286.45 28.9805C285.71 28.9805 284.93 29.0299 284.13 29.1299C282.71 29.2999 281.72 29.5102 281.09 29.6602H281.1C281.05 30.4401 281.06 31.0503 281.45 34.6699C281.99 40.5399 283.22 50.1998 283.62 53.3799L283.67 53.7803C286.91 53.3503 289.54 52.7797 292.32 51.4297C296.94 49.1796 299.11 44.8699 298.42 39.29C297.84 34.6301 295.24 31.2305 291.08 29.7305C289.65 29.2305 288.13 28.9805 286.45 28.9805Z" fill="white"/>
<path d="M421.17 50.79L420.37 52.5498L419.83 52.3896C418.77 52.0897 417.55 51.7598 416.33 51.7598C415.21 51.7598 414.3 52.0404 413.56 52.6104C412.47 53.4605 411.58 55.35 410.8 57.0098C410.61 57.3898 410.44 57.7699 410.26 58.1299C408.16 62.5999 406.4 66.4799 403.97 71.8398L397.2 86.79C396.22 88.94 394.89 91.8902 395.09 92.9102L395.1 92.9297C395.43 94.5097 397.6 96.55 399.42 97.54L399.95 97.8301L399.14 99.6299L376.34 89.2998L377.14 87.54L377.67 87.6904C378.97 88.0504 380.17 88.2402 381.22 88.2402C382.27 88.2402 383.21 88.0603 384.01 87.6904C385.01 87.2405 386.4 84.3302 387.52 81.9902L387.83 81.3496C389.06 78.8194 392.07 72.3302 394.16 67.7305L400 54.8301C401.28 52.0102 402.87 48.4902 402.48 47.0801C402 45.4601 400.72 44.0901 398.33 42.6602L397.83 42.3604L398.63 40.5801L421.17 50.79Z" fill="white"/>
</svg>
